<?xml version="1.0" encoding="UTF-8" standalone="no"?> <!-- Created with Vectornator Pro for iOS (http://vectornator.io/) --><!DOCTYPE svg PUBLIC "-//W3C//DTD SVG 1.1//EN" "http://www.w3.org/Graphics/SVG/1.1/DTD/svg11.dtd">
<svg height="100%" style="fill-rule:evenodd;clip-rule:evenodd;stroke-linecap:round;stroke-linejoin:round;" xmlns:xlink="http://www.w3.org/1999/xlink" xmlns="http://www.w3.org/2000/svg" xml:space="preserve" width="100%" xmlns:vectornator="http://vectornator.io" version="1.1" viewBox="0 0 1024 1024">
<metadata>
<vectornator:setting key="DisplayWhiteBackground" value="0"/>
<vectornator:setting key="RulersVisible" value="1"/>
<vectornator:setting key="SnapToEdges" value="0"/>
<vectornator:setting key="Units" value="Pixels"/>
<vectornator:setting key="DynamicGuides" value="0"/>
<vectornator:setting key="SnapToPoints" value="0"/>
<vectornator:setting key="SnapToGrid" value="0"/>
<vectornator:setting key="ShowGrid" value="1"/>
<vectornator:setting key="GridSpacing" value="36"/>
</metadata>
<defs/>
<g id="Layer 1" vectornator:layerName="Layer 1">
<path d="M1193.87-13.163C1210.01-212.498+1084.58-345.672+890.519-389.012C541.716-466.91+5.67943-381.05-218.603-73.6681C-365.232+127.29-442.694+386.16-437.034+636.645C-420.167+1383.16+299.26+1210.15+788.505+1188.64C953.471+1181.39+1223.03+1209.08+1359.34+1085.26C1441.38+1010.74+1428.35+881.023+1450.29+786.41" opacity="1" fill="#000000"/>
</g>
<g id="Layer 2" vectornator:layerName="Layer 2">
<g opacity="1"/>
<g opacity="1">
<path d="M2384.08-620.049L2384.08-431.649L2356.48-431.649L2356.48-620.049L2296.48-620.049L2296.48-646.449L2444.08-646.449L2444.08-620.049L2384.08-620.049Z" opacity="1" fill="#ffffff"/>
<path d="M2372.08-62.8486C2350.48-62.8486+2332.68-70.2486+2318.68-85.0486C2304.68-99.8486+2297.68-118.549+2297.68-141.149C2297.68-163.549+2304.48-182.199+2318.08-197.099C2331.68-211.999+2349.08-219.449+2370.28-219.449C2392.08-219.449+2409.43-212.399+2422.33-198.299C2435.23-184.199+2441.68-164.449+2441.68-139.049L2441.38-136.049L2325.88-136.049C2326.28-121.649+2331.08-110.049+2340.28-101.249C2349.48-92.4486+2360.48-88.0486+2373.28-88.0486C2390.88-88.0486+2404.68-96.8486+2414.68-114.449L2439.28-102.449C2432.68-90.0486+2423.53-80.3486+2411.83-73.3486C2400.13-66.3486+2386.88-62.8486+2372.08-62.8486ZM2327.98-158.849L2412.28-158.849C2411.48-169.049+2407.33-177.499+2399.83-184.199C2392.33-190.899+2382.28-194.249+2369.68-194.249C2359.28-194.249+2350.33-191.049+2342.83-184.649C2335.33-178.249+2330.38-169.649+2327.98-158.849Z" opacity="1" fill="#ffffff"/>
<path d="M2375.98+221.651L2428.48+296.351L2396.08+296.351L2359.78+242.051L2324.08+296.351L2291.68+296.351L2343.58+221.651L2292.88+149.351L2324.08+149.351L2360.38+201.251L2394.88+149.351L2427.28+149.351L2375.98+221.651Z" opacity="1" fill="#ffffff"/>
<path d="M2364.28+662.751C2352.28+662.751+2342.33+659.051+2334.43+651.651C2326.53+644.251+2322.48+633.951+2322.28+620.751L2322.28+538.551L2296.48+538.551L2296.48+513.351L2322.28+513.351L2322.28+468.351L2349.88+468.351L2349.88+513.351L2385.88+513.351L2385.88+538.551L2349.88+538.551L2349.88+611.751C2349.88+621.551+2351.78+628.201+2355.58+631.701C2359.38+635.201+2363.68+636.951+2368.48+636.951C2370.68+636.951+2372.83+636.701+2374.93+636.201C2377.03+635.701+2378.98+635.051+2380.78+634.251L2389.48+658.851C2382.28+661.451+2373.88+662.751+2364.28+662.751Z" opacity="1" fill="#ffffff"/>
</g>
<g opacity="1">
<path d="M161.38+326.303L140.956+326.303L140.956+167.351L165.82+167.351L243.076+291.005L243.964+291.005L243.076+260.369L243.076+167.351L263.5+167.351L263.5+326.303L242.188+326.303L161.38+196.655L160.492+196.655L161.38+227.291L161.38+326.303Z" opacity="1" fill="#ffffff"/>
<path d="M285.7+271.913C285.7+255.189+290.954+241.351+301.462+230.399C312.118+219.447+325.512+213.971+341.644+213.971C357.776+213.971+371.096+219.447+381.604+230.399C392.26+241.351+397.588+255.189+397.588+271.913C397.588+288.785+392.26+302.623+381.604+313.427C371.096+324.379+357.776+329.855+341.644+329.855C325.512+329.855+312.118+324.379+301.462+313.427C290.954+302.475+285.7+288.637+285.7+271.913ZM306.124+271.913C306.124+283.605+309.528+293.077+316.336+300.329C323.144+307.581+331.58+311.207+341.644+311.207C351.708+311.207+360.144+307.581+366.952+300.329C373.76+293.077+377.164+283.605+377.164+271.913C377.164+260.369+373.76+250.971+366.952+243.719C359.996+236.319+351.56+232.619+341.644+232.619C331.728+232.619+323.292+236.319+316.336+243.719C309.528+250.971+306.124+260.369+306.124+271.913Z" opacity="1" fill="#ffffff"/>
<path d="M489.052+326.303L468.628+326.303L468.628+167.351L489.052+167.351L489.052+326.303Z" opacity="1" fill="#ffffff"/>
<path d="M567.196+329.855C551.064+329.855+537.67+324.379+527.014+313.427C516.506+302.179+511.252+288.341+511.252+271.913C511.252+255.189+516.506+241.351+527.014+230.399C537.67+219.447+551.064+213.971+567.196+213.971C578.296+213.971+587.99+216.746+596.278+222.296C604.566+227.846+610.782+235.505+614.926+245.273L596.278+253.043C590.506+239.427+580.368+232.619+565.864+232.619C556.54+232.619+548.474+236.393+541.666+243.941C535.006+251.489+531.676+260.813+531.676+271.913C531.676+283.013+535.006+292.337+541.666+299.885C548.474+307.433+556.54+311.207+565.864+311.207C580.812+311.207+591.32+304.399+597.388+290.783L615.592+298.553C611.596+308.321+605.343+315.98+596.833+321.53C588.323+327.08+578.444+329.855+567.196+329.855Z" opacity="1" fill="#ffffff"/>
<path d="M626.026+271.913C626.026+255.189+631.28+241.351+641.788+230.399C652.444+219.447+665.838+213.971+681.97+213.971C698.102+213.971+711.422+219.447+721.93+230.399C732.586+241.351+737.914+255.189+737.914+271.913C737.914+288.785+732.586+302.623+721.93+313.427C711.422+324.379+698.102+329.855+681.97+329.855C665.838+329.855+652.444+324.379+641.788+313.427C631.28+302.475+626.026+288.637+626.026+271.913ZM646.45+271.913C646.45+283.605+649.854+293.077+656.662+300.329C663.47+307.581+671.906+311.207+681.97+311.207C692.034+311.207+700.47+307.581+707.278+300.329C714.086+293.077+717.49+283.605+717.49+271.913C717.49+260.369+714.086+250.971+707.278+243.719C700.322+236.319+691.886+232.619+681.97+232.619C672.054+232.619+663.618+236.319+656.662+243.719C649.854+250.971+646.45+260.369+646.45+271.913Z" opacity="1" fill="#ffffff"/>
<path d="M754.342+217.523L773.878+217.523L773.878+232.619L774.766+232.619C777.874+227.291+782.647+222.851+789.085+219.299C795.523+215.747+802.22+213.971+809.176+213.971C822.496+213.971+832.745+217.782+839.923+225.404C847.101+233.026+850.69+243.867+850.69+257.927L850.69+326.303L830.266+326.303L830.266+259.259C829.822+241.499+820.868+232.619+803.404+232.619C795.264+232.619+788.456+235.912+782.98+242.498C777.504+249.084+774.766+256.965+774.766+266.141L774.766+326.303L754.342+326.303L754.342+217.523Z" opacity="1" fill="#ffffff"/>
</g>
<g opacity="1">
<path d="M161.38+326.303L140.956+326.303L140.956+167.351L165.82+167.351L243.076+291.005L243.964+291.005L243.076+260.369L243.076+167.351L263.5+167.351L263.5+326.303L242.188+326.303L161.38+196.655L160.492+196.655L161.38+227.291L161.38+326.303Z" opacity="1" fill="#ffffff"/>
<path d="M285.7+271.913C285.7+255.189+290.954+241.351+301.462+230.399C312.118+219.447+325.512+213.971+341.644+213.971C357.776+213.971+371.096+219.447+381.604+230.399C392.26+241.351+397.588+255.189+397.588+271.913C397.588+288.785+392.26+302.623+381.604+313.427C371.096+324.379+357.776+329.855+341.644+329.855C325.512+329.855+312.118+324.379+301.462+313.427C290.954+302.475+285.7+288.637+285.7+271.913ZM306.124+271.913C306.124+283.605+309.528+293.077+316.336+300.329C323.144+307.581+331.58+311.207+341.644+311.207C351.708+311.207+360.144+307.581+366.952+300.329C373.76+293.077+377.164+283.605+377.164+271.913C377.164+260.369+373.76+250.971+366.952+243.719C359.996+236.319+351.56+232.619+341.644+232.619C331.728+232.619+323.292+236.319+316.336+243.719C309.528+250.971+306.124+260.369+306.124+271.913Z" opacity="1" fill="#ffffff"/>
<path d="M489.052+326.303L468.628+326.303L468.628+167.351L489.052+167.351L489.052+326.303Z" opacity="1" fill="#ffffff"/>
<path d="M567.196+329.855C551.064+329.855+537.67+324.379+527.014+313.427C516.506+302.179+511.252+288.341+511.252+271.913C511.252+255.189+516.506+241.351+527.014+230.399C537.67+219.447+551.064+213.971+567.196+213.971C578.296+213.971+587.99+216.746+596.278+222.296C604.566+227.846+610.782+235.505+614.926+245.273L596.278+253.043C590.506+239.427+580.368+232.619+565.864+232.619C556.54+232.619+548.474+236.393+541.666+243.941C535.006+251.489+531.676+260.813+531.676+271.913C531.676+283.013+535.006+292.337+541.666+299.885C548.474+307.433+556.54+311.207+565.864+311.207C580.812+311.207+591.32+304.399+597.388+290.783L615.592+298.553C611.596+308.321+605.343+315.98+596.833+321.53C588.323+327.08+578.444+329.855+567.196+329.855Z" opacity="1" fill="#ffffff"/>
<path d="M626.026+271.913C626.026+255.189+631.28+241.351+641.788+230.399C652.444+219.447+665.838+213.971+681.97+213.971C698.102+213.971+711.422+219.447+721.93+230.399C732.586+241.351+737.914+255.189+737.914+271.913C737.914+288.785+732.586+302.623+721.93+313.427C711.422+324.379+698.102+329.855+681.97+329.855C665.838+329.855+652.444+324.379+641.788+313.427C631.28+302.475+626.026+288.637+626.026+271.913ZM646.45+271.913C646.45+283.605+649.854+293.077+656.662+300.329C663.47+307.581+671.906+311.207+681.97+311.207C692.034+311.207+700.47+307.581+707.278+300.329C714.086+293.077+717.49+283.605+717.49+271.913C717.49+260.369+714.086+250.971+707.278+243.719C700.322+236.319+691.886+232.619+681.97+232.619C672.054+232.619+663.618+236.319+656.662+243.719C649.854+250.971+646.45+260.369+646.45+271.913Z" opacity="1" fill="#ffffff"/>
<path d="M754.342+217.523L773.878+217.523L773.878+232.619L774.766+232.619C777.874+227.291+782.647+222.851+789.085+219.299C795.523+215.747+802.22+213.971+809.176+213.971C822.496+213.971+832.745+217.782+839.923+225.404C847.101+233.026+850.69+243.867+850.69+257.927L850.69+326.303L830.266+326.303L830.266+259.259C829.822+241.499+820.868+232.619+803.404+232.619C795.264+232.619+788.456+235.912+782.98+242.498C777.504+249.084+774.766+256.965+774.766+266.141L774.766+326.303L754.342+326.303L754.342+217.523Z" opacity="1" fill="#ffffff"/>
</g>
<g opacity="1">
<path d="M161.38+326.303L140.956+326.303L140.956+167.351L165.82+167.351L243.076+291.005L243.964+291.005L243.076+260.369L243.076+167.351L263.5+167.351L263.5+326.303L242.188+326.303L161.38+196.655L160.492+196.655L161.38+227.291L161.38+326.303Z" opacity="1" fill="#ffffff"/>
<path d="M285.7+271.913C285.7+255.189+290.954+241.351+301.462+230.399C312.118+219.447+325.512+213.971+341.644+213.971C357.776+213.971+371.096+219.447+381.604+230.399C392.26+241.351+397.588+255.189+397.588+271.913C397.588+288.785+392.26+302.623+381.604+313.427C371.096+324.379+357.776+329.855+341.644+329.855C325.512+329.855+312.118+324.379+301.462+313.427C290.954+302.475+285.7+288.637+285.7+271.913ZM306.124+271.913C306.124+283.605+309.528+293.077+316.336+300.329C323.144+307.581+331.58+311.207+341.644+311.207C351.708+311.207+360.144+307.581+366.952+300.329C373.76+293.077+377.164+283.605+377.164+271.913C377.164+260.369+373.76+250.971+366.952+243.719C359.996+236.319+351.56+232.619+341.644+232.619C331.728+232.619+323.292+236.319+316.336+243.719C309.528+250.971+306.124+260.369+306.124+271.913Z" opacity="1" fill="#ffffff"/>
<path d="M489.052+326.303L468.628+326.303L468.628+167.351L489.052+167.351L489.052+326.303Z" opacity="1" fill="#ffffff"/>
<path d="M567.196+329.855C551.064+329.855+537.67+324.379+527.014+313.427C516.506+302.179+511.252+288.341+511.252+271.913C511.252+255.189+516.506+241.351+527.014+230.399C537.67+219.447+551.064+213.971+567.196+213.971C578.296+213.971+587.99+216.746+596.278+222.296C604.566+227.846+610.782+235.505+614.926+245.273L596.278+253.043C590.506+239.427+580.368+232.619+565.864+232.619C556.54+232.619+548.474+236.393+541.666+243.941C535.006+251.489+531.676+260.813+531.676+271.913C531.676+283.013+535.006+292.337+541.666+299.885C548.474+307.433+556.54+311.207+565.864+311.207C580.812+311.207+591.32+304.399+597.388+290.783L615.592+298.553C611.596+308.321+605.343+315.98+596.833+321.53C588.323+327.08+578.444+329.855+567.196+329.855Z" opacity="1" fill="#ffffff"/>
<path d="M626.026+271.913C626.026+255.189+631.28+241.351+641.788+230.399C652.444+219.447+665.838+213.971+681.97+213.971C698.102+213.971+711.422+219.447+721.93+230.399C732.586+241.351+737.914+255.189+737.914+271.913C737.914+288.785+732.586+302.623+721.93+313.427C711.422+324.379+698.102+329.855+681.97+329.855C665.838+329.855+652.444+324.379+641.788+313.427C631.28+302.475+626.026+288.637+626.026+271.913ZM646.45+271.913C646.45+283.605+649.854+293.077+656.662+300.329C663.47+307.581+671.906+311.207+681.97+311.207C692.034+311.207+700.47+307.581+707.278+300.329C714.086+293.077+717.49+283.605+717.49+271.913C717.49+260.369+714.086+250.971+707.278+243.719C700.322+236.319+691.886+232.619+681.97+232.619C672.054+232.619+663.618+236.319+656.662+243.719C649.854+250.971+646.45+260.369+646.45+271.913Z" opacity="1" fill="#ffffff"/>
<path d="M754.342+217.523L773.878+217.523L773.878+232.619L774.766+232.619C777.874+227.291+782.647+222.851+789.085+219.299C795.523+215.747+802.22+213.971+809.176+213.971C822.496+213.971+832.745+217.782+839.923+225.404C847.101+233.026+850.69+243.867+850.69+257.927L850.69+326.303L830.266+326.303L830.266+259.259C829.822+241.499+820.868+232.619+803.404+232.619C795.264+232.619+788.456+235.912+782.98+242.498C777.504+249.084+774.766+256.965+774.766+266.141L774.766+326.303L754.342+326.303L754.342+217.523Z" opacity="1" fill="#ffffff"/>
</g>
<g opacity="1">
<path d="M161.38+326.303L140.956+326.303L140.956+167.351L165.82+167.351L243.076+291.005L243.964+291.005L243.076+260.369L243.076+167.351L263.5+167.351L263.5+326.303L242.188+326.303L161.38+196.655L160.492+196.655L161.38+227.291L161.38+326.303Z" opacity="1" fill="#ffffff"/>
<path d="M285.7+271.913C285.7+255.189+290.954+241.351+301.462+230.399C312.118+219.447+325.512+213.971+341.644+213.971C357.776+213.971+371.096+219.447+381.604+230.399C392.26+241.351+397.588+255.189+397.588+271.913C397.588+288.785+392.26+302.623+381.604+313.427C371.096+324.379+357.776+329.855+341.644+329.855C325.512+329.855+312.118+324.379+301.462+313.427C290.954+302.475+285.7+288.637+285.7+271.913ZM306.124+271.913C306.124+283.605+309.528+293.077+316.336+300.329C323.144+307.581+331.58+311.207+341.644+311.207C351.708+311.207+360.144+307.581+366.952+300.329C373.76+293.077+377.164+283.605+377.164+271.913C377.164+260.369+373.76+250.971+366.952+243.719C359.996+236.319+351.56+232.619+341.644+232.619C331.728+232.619+323.292+236.319+316.336+243.719C309.528+250.971+306.124+260.369+306.124+271.913Z" opacity="1" fill="#ffffff"/>
<path d="M489.052+326.303L468.628+326.303L468.628+167.351L489.052+167.351L489.052+326.303Z" opacity="1" fill="#ffffff"/>
<path d="M567.196+329.855C551.064+329.855+537.67+324.379+527.014+313.427C516.506+302.179+511.252+288.341+511.252+271.913C511.252+255.189+516.506+241.351+527.014+230.399C537.67+219.447+551.064+213.971+567.196+213.971C578.296+213.971+587.99+216.746+596.278+222.296C604.566+227.846+610.782+235.505+614.926+245.273L596.278+253.043C590.506+239.427+580.368+232.619+565.864+232.619C556.54+232.619+548.474+236.393+541.666+243.941C535.006+251.489+531.676+260.813+531.676+271.913C531.676+283.013+535.006+292.337+541.666+299.885C548.474+307.433+556.54+311.207+565.864+311.207C580.812+311.207+591.32+304.399+597.388+290.783L615.592+298.553C611.596+308.321+605.343+315.98+596.833+321.53C588.323+327.08+578.444+329.855+567.196+329.855Z" opacity="1" fill="#ffffff"/>
<path d="M626.026+271.913C626.026+255.189+631.28+241.351+641.788+230.399C652.444+219.447+665.838+213.971+681.97+213.971C698.102+213.971+711.422+219.447+721.93+230.399C732.586+241.351+737.914+255.189+737.914+271.913C737.914+288.785+732.586+302.623+721.93+313.427C711.422+324.379+698.102+329.855+681.97+329.855C665.838+329.855+652.444+324.379+641.788+313.427C631.28+302.475+626.026+288.637+626.026+271.913ZM646.45+271.913C646.45+283.605+649.854+293.077+656.662+300.329C663.47+307.581+671.906+311.207+681.97+311.207C692.034+311.207+700.47+307.581+707.278+300.329C714.086+293.077+717.49+283.605+717.49+271.913C717.49+260.369+714.086+250.971+707.278+243.719C700.322+236.319+691.886+232.619+681.97+232.619C672.054+232.619+663.618+236.319+656.662+243.719C649.854+250.971+646.45+260.369+646.45+271.913Z" opacity="1" fill="#ffffff"/>
<path d="M754.342+217.523L773.878+217.523L773.878+232.619L774.766+232.619C777.874+227.291+782.647+222.851+789.085+219.299C795.523+215.747+802.22+213.971+809.176+213.971C822.496+213.971+832.745+217.782+839.923+225.404C847.101+233.026+850.69+243.867+850.69+257.927L850.69+326.303L830.266+326.303L830.266+259.259C829.822+241.499+820.868+232.619+803.404+232.619C795.264+232.619+788.456+235.912+782.98+242.498C777.504+249.084+774.766+256.965+774.766+266.141L774.766+326.303L754.342+326.303L754.342+217.523Z" opacity="1" fill="#ffffff"/>
</g>
<g opacity="1">
<path d="M161.38+326.303L140.956+326.303L140.956+167.351L165.82+167.351L243.076+291.005L243.964+291.005L243.076+260.369L243.076+167.351L263.5+167.351L263.5+326.303L242.188+326.303L161.38+196.655L160.492+196.655L161.38+227.291L161.38+326.303Z" opacity="1" fill="#ffffff"/>
<path d="M285.7+271.913C285.7+255.189+290.954+241.351+301.462+230.399C312.118+219.447+325.512+213.971+341.644+213.971C357.776+213.971+371.096+219.447+381.604+230.399C392.26+241.351+397.588+255.189+397.588+271.913C397.588+288.785+392.26+302.623+381.604+313.427C371.096+324.379+357.776+329.855+341.644+329.855C325.512+329.855+312.118+324.379+301.462+313.427C290.954+302.475+285.7+288.637+285.7+271.913ZM306.124+271.913C306.124+283.605+309.528+293.077+316.336+300.329C323.144+307.581+331.58+311.207+341.644+311.207C351.708+311.207+360.144+307.581+366.952+300.329C373.76+293.077+377.164+283.605+377.164+271.913C377.164+260.369+373.76+250.971+366.952+243.719C359.996+236.319+351.56+232.619+341.644+232.619C331.728+232.619+323.292+236.319+316.336+243.719C309.528+250.971+306.124+260.369+306.124+271.913Z" opacity="1" fill="#ffffff"/>
<path d="M489.052+326.303L468.628+326.303L468.628+167.351L489.052+167.351L489.052+326.303Z" opacity="1" fill="#ffffff"/>
<path d="M567.196+329.855C551.064+329.855+537.67+324.379+527.014+313.427C516.506+302.179+511.252+288.341+511.252+271.913C511.252+255.189+516.506+241.351+527.014+230.399C537.67+219.447+551.064+213.971+567.196+213.971C578.296+213.971+587.99+216.746+596.278+222.296C604.566+227.846+610.782+235.505+614.926+245.273L596.278+253.043C590.506+239.427+580.368+232.619+565.864+232.619C556.54+232.619+548.474+236.393+541.666+243.941C535.006+251.489+531.676+260.813+531.676+271.913C531.676+283.013+535.006+292.337+541.666+299.885C548.474+307.433+556.54+311.207+565.864+311.207C580.812+311.207+591.32+304.399+597.388+290.783L615.592+298.553C611.596+308.321+605.343+315.98+596.833+321.53C588.323+327.08+578.444+329.855+567.196+329.855Z" opacity="1" fill="#ffffff"/>
<path d="M626.026+271.913C626.026+255.189+631.28+241.351+641.788+230.399C652.444+219.447+665.838+213.971+681.97+213.971C698.102+213.971+711.422+219.447+721.93+230.399C732.586+241.351+737.914+255.189+737.914+271.913C737.914+288.785+732.586+302.623+721.93+313.427C711.422+324.379+698.102+329.855+681.97+329.855C665.838+329.855+652.444+324.379+641.788+313.427C631.28+302.475+626.026+288.637+626.026+271.913ZM646.45+271.913C646.45+283.605+649.854+293.077+656.662+300.329C663.47+307.581+671.906+311.207+681.97+311.207C692.034+311.207+700.47+307.581+707.278+300.329C714.086+293.077+717.49+283.605+717.49+271.913C717.49+260.369+714.086+250.971+707.278+243.719C700.322+236.319+691.886+232.619+681.97+232.619C672.054+232.619+663.618+236.319+656.662+243.719C649.854+250.971+646.45+260.369+646.45+271.913Z" opacity="1" fill="#ffffff"/>
<path d="M754.342+217.523L773.878+217.523L773.878+232.619L774.766+232.619C777.874+227.291+782.647+222.851+789.085+219.299C795.523+215.747+802.22+213.971+809.176+213.971C822.496+213.971+832.745+217.782+839.923+225.404C847.101+233.026+850.69+243.867+850.69+257.927L850.69+326.303L830.266+326.303L830.266+259.259C829.822+241.499+820.868+232.619+803.404+232.619C795.264+232.619+788.456+235.912+782.98+242.498C777.504+249.084+774.766+256.965+774.766+266.141L774.766+326.303L754.342+326.303L754.342+217.523Z" opacity="1" fill="#ffffff"/>
</g>
<g opacity="1">
<path d="M161.38+326.303L140.956+326.303L140.956+167.351L165.82+167.351L243.076+291.005L243.964+291.005L243.076+260.369L243.076+167.351L263.5+167.351L263.5+326.303L242.188+326.303L161.38+196.655L160.492+196.655L161.38+227.291L161.38+326.303Z" opacity="1" fill="#ffffff"/>
<path d="M285.7+271.913C285.7+255.189+290.954+241.351+301.462+230.399C312.118+219.447+325.512+213.971+341.644+213.971C357.776+213.971+371.096+219.447+381.604+230.399C392.26+241.351+397.588+255.189+397.588+271.913C397.588+288.785+392.26+302.623+381.604+313.427C371.096+324.379+357.776+329.855+341.644+329.855C325.512+329.855+312.118+324.379+301.462+313.427C290.954+302.475+285.7+288.637+285.7+271.913ZM306.124+271.913C306.124+283.605+309.528+293.077+316.336+300.329C323.144+307.581+331.58+311.207+341.644+311.207C351.708+311.207+360.144+307.581+366.952+300.329C373.76+293.077+377.164+283.605+377.164+271.913C377.164+260.369+373.76+250.971+366.952+243.719C359.996+236.319+351.56+232.619+341.644+232.619C331.728+232.619+323.292+236.319+316.336+243.719C309.528+250.971+306.124+260.369+306.124+271.913Z" opacity="1" fill="#ffffff"/>
<path d="M489.052+326.303L468.628+326.303L468.628+167.351L489.052+167.351L489.052+326.303Z" opacity="1" fill="#ffffff"/>
<path d="M567.196+329.855C551.064+329.855+537.67+324.379+527.014+313.427C516.506+302.179+511.252+288.341+511.252+271.913C511.252+255.189+516.506+241.351+527.014+230.399C537.67+219.447+551.064+213.971+567.196+213.971C578.296+213.971+587.99+216.746+596.278+222.296C604.566+227.846+610.782+235.505+614.926+245.273L596.278+253.043C590.506+239.427+580.368+232.619+565.864+232.619C556.54+232.619+548.474+236.393+541.666+243.941C535.006+251.489+531.676+260.813+531.676+271.913C531.676+283.013+535.006+292.337+541.666+299.885C548.474+307.433+556.54+311.207+565.864+311.207C580.812+311.207+591.32+304.399+597.388+290.783L615.592+298.553C611.596+308.321+605.343+315.98+596.833+321.53C588.323+327.08+578.444+329.855+567.196+329.855Z" opacity="1" fill="#ffffff"/>
<path d="M626.026+271.913C626.026+255.189+631.28+241.351+641.788+230.399C652.444+219.447+665.838+213.971+681.97+213.971C698.102+213.971+711.422+219.447+721.93+230.399C732.586+241.351+737.914+255.189+737.914+271.913C737.914+288.785+732.586+302.623+721.93+313.427C711.422+324.379+698.102+329.855+681.97+329.855C665.838+329.855+652.444+324.379+641.788+313.427C631.28+302.475+626.026+288.637+626.026+271.913ZM646.45+271.913C646.45+283.605+649.854+293.077+656.662+300.329C663.47+307.581+671.906+311.207+681.97+311.207C692.034+311.207+700.47+307.581+707.278+300.329C714.086+293.077+717.49+283.605+717.49+271.913C717.49+260.369+714.086+250.971+707.278+243.719C700.322+236.319+691.886+232.619+681.97+232.619C672.054+232.619+663.618+236.319+656.662+243.719C649.854+250.971+646.45+260.369+646.45+271.913Z" opacity="1" fill="#ffffff"/>
<path d="M754.342+217.523L773.878+217.523L773.878+232.619L774.766+232.619C777.874+227.291+782.647+222.851+789.085+219.299C795.523+215.747+802.22+213.971+809.176+213.971C822.496+213.971+832.745+217.782+839.923+225.404C847.101+233.026+850.69+243.867+850.69+257.927L850.69+326.303L830.266+326.303L830.266+259.259C829.822+241.499+820.868+232.619+803.404+232.619C795.264+232.619+788.456+235.912+782.98+242.498C777.504+249.084+774.766+256.965+774.766+266.141L774.766+326.303L754.342+326.303L754.342+217.523Z" opacity="1" fill="#ffffff"/>
</g>
<g opacity="1">
<path d="M161.38+326.303L140.956+326.303L140.956+167.351L165.82+167.351L243.076+291.005L243.964+291.005L243.076+260.369L243.076+167.351L263.5+167.351L263.5+326.303L242.188+326.303L161.38+196.655L160.492+196.655L161.38+227.291L161.38+326.303Z" opacity="1" fill="#ffffff"/>
<path d="M285.7+271.913C285.7+255.189+290.954+241.351+301.462+230.399C312.118+219.447+325.512+213.971+341.644+213.971C357.776+213.971+371.096+219.447+381.604+230.399C392.26+241.351+397.588+255.189+397.588+271.913C397.588+288.785+392.26+302.623+381.604+313.427C371.096+324.379+357.776+329.855+341.644+329.855C325.512+329.855+312.118+324.379+301.462+313.427C290.954+302.475+285.7+288.637+285.7+271.913ZM306.124+271.913C306.124+283.605+309.528+293.077+316.336+300.329C323.144+307.581+331.58+311.207+341.644+311.207C351.708+311.207+360.144+307.581+366.952+300.329C373.76+293.077+377.164+283.605+377.164+271.913C377.164+260.369+373.76+250.971+366.952+243.719C359.996+236.319+351.56+232.619+341.644+232.619C331.728+232.619+323.292+236.319+316.336+243.719C309.528+250.971+306.124+260.369+306.124+271.913Z" opacity="1" fill="#ffffff"/>
<path d="M489.052+326.303L468.628+326.303L468.628+167.351L489.052+167.351L489.052+326.303Z" opacity="1" fill="#ffffff"/>
<path d="M567.196+329.855C551.064+329.855+537.67+324.379+527.014+313.427C516.506+302.179+511.252+288.341+511.252+271.913C511.252+255.189+516.506+241.351+527.014+230.399C537.67+219.447+551.064+213.971+567.196+213.971C578.296+213.971+587.99+216.746+596.278+222.296C604.566+227.846+610.782+235.505+614.926+245.273L596.278+253.043C590.506+239.427+580.368+232.619+565.864+232.619C556.54+232.619+548.474+236.393+541.666+243.941C535.006+251.489+531.676+260.813+531.676+271.913C531.676+283.013+535.006+292.337+541.666+299.885C548.474+307.433+556.54+311.207+565.864+311.207C580.812+311.207+591.32+304.399+597.388+290.783L615.592+298.553C611.596+308.321+605.343+315.98+596.833+321.53C588.323+327.08+578.444+329.855+567.196+329.855Z" opacity="1" fill="#ffffff"/>
<path d="M626.026+271.913C626.026+255.189+631.28+241.351+641.788+230.399C652.444+219.447+665.838+213.971+681.97+213.971C698.102+213.971+711.422+219.447+721.93+230.399C732.586+241.351+737.914+255.189+737.914+271.913C737.914+288.785+732.586+302.623+721.93+313.427C711.422+324.379+698.102+329.855+681.97+329.855C665.838+329.855+652.444+324.379+641.788+313.427C631.28+302.475+626.026+288.637+626.026+271.913ZM646.45+271.913C646.45+283.605+649.854+293.077+656.662+300.329C663.47+307.581+671.906+311.207+681.97+311.207C692.034+311.207+700.47+307.581+707.278+300.329C714.086+293.077+717.49+283.605+717.49+271.913C717.49+260.369+714.086+250.971+707.278+243.719C700.322+236.319+691.886+232.619+681.97+232.619C672.054+232.619+663.618+236.319+656.662+243.719C649.854+250.971+646.45+260.369+646.45+271.913Z" opacity="1" fill="#ffffff"/>
<path d="M754.342+217.523L773.878+217.523L773.878+232.619L774.766+232.619C777.874+227.291+782.647+222.851+789.085+219.299C795.523+215.747+802.22+213.971+809.176+213.971C822.496+213.971+832.745+217.782+839.923+225.404C847.101+233.026+850.69+243.867+850.69+257.927L850.69+326.303L830.266+326.303L830.266+259.259C829.822+241.499+820.868+232.619+803.404+232.619C795.264+232.619+788.456+235.912+782.98+242.498C777.504+249.084+774.766+256.965+774.766+266.141L774.766+326.303L754.342+326.303L754.342+217.523Z" opacity="1" fill="#ffffff"/>
</g>
<g opacity="1">
<path d="M161.38+326.303L140.956+326.303L140.956+167.351L165.82+167.351L243.076+291.005L243.964+291.005L243.076+260.369L243.076+167.351L263.5+167.351L263.5+326.303L242.188+326.303L161.38+196.655L160.492+196.655L161.38+227.291L161.38+326.303Z" opacity="1" fill="#ffffff"/>
<path d="M285.7+271.913C285.7+255.189+290.954+241.351+301.462+230.399C312.118+219.447+325.512+213.971+341.644+213.971C357.776+213.971+371.096+219.447+381.604+230.399C392.26+241.351+397.588+255.189+397.588+271.913C397.588+288.785+392.26+302.623+381.604+313.427C371.096+324.379+357.776+329.855+341.644+329.855C325.512+329.855+312.118+324.379+301.462+313.427C290.954+302.475+285.7+288.637+285.7+271.913ZM306.124+271.913C306.124+283.605+309.528+293.077+316.336+300.329C323.144+307.581+331.58+311.207+341.644+311.207C351.708+311.207+360.144+307.581+366.952+300.329C373.76+293.077+377.164+283.605+377.164+271.913C377.164+260.369+373.76+250.971+366.952+243.719C359.996+236.319+351.56+232.619+341.644+232.619C331.728+232.619+323.292+236.319+316.336+243.719C309.528+250.971+306.124+260.369+306.124+271.913Z" opacity="1" fill="#ffffff"/>
<path d="M489.052+326.303L468.628+326.303L468.628+167.351L489.052+167.351L489.052+326.303Z" opacity="1" fill="#ffffff"/>
<path d="M567.196+329.855C551.064+329.855+537.67+324.379+527.014+313.427C516.506+302.179+511.252+288.341+511.252+271.913C511.252+255.189+516.506+241.351+527.014+230.399C537.67+219.447+551.064+213.971+567.196+213.971C578.296+213.971+587.99+216.746+596.278+222.296C604.566+227.846+610.782+235.505+614.926+245.273L596.278+253.043C590.506+239.427+580.368+232.619+565.864+232.619C556.54+232.619+548.474+236.393+541.666+243.941C535.006+251.489+531.676+260.813+531.676+271.913C531.676+283.013+535.006+292.337+541.666+299.885C548.474+307.433+556.54+311.207+565.864+311.207C580.812+311.207+591.32+304.399+597.388+290.783L615.592+298.553C611.596+308.321+605.343+315.98+596.833+321.53C588.323+327.08+578.444+329.855+567.196+329.855Z" opacity="1" fill="#ffffff"/>
<path d="M626.026+271.913C626.026+255.189+631.28+241.351+641.788+230.399C652.444+219.447+665.838+213.971+681.97+213.971C698.102+213.971+711.422+219.447+721.93+230.399C732.586+241.351+737.914+255.189+737.914+271.913C737.914+288.785+732.586+302.623+721.93+313.427C711.422+324.379+698.102+329.855+681.97+329.855C665.838+329.855+652.444+324.379+641.788+313.427C631.28+302.475+626.026+288.637+626.026+271.913ZM646.45+271.913C646.45+283.605+649.854+293.077+656.662+300.329C663.47+307.581+671.906+311.207+681.97+311.207C692.034+311.207+700.47+307.581+707.278+300.329C714.086+293.077+717.49+283.605+717.49+271.913C717.49+260.369+714.086+250.971+707.278+243.719C700.322+236.319+691.886+232.619+681.97+232.619C672.054+232.619+663.618+236.319+656.662+243.719C649.854+250.971+646.45+260.369+646.45+271.913Z" opacity="1" fill="#ffffff"/>
<path d="M754.342+217.523L773.878+217.523L773.878+232.619L774.766+232.619C777.874+227.291+782.647+222.851+789.085+219.299C795.523+215.747+802.22+213.971+809.176+213.971C822.496+213.971+832.745+217.782+839.923+225.404C847.101+233.026+850.69+243.867+850.69+257.927L850.69+326.303L830.266+326.303L830.266+259.259C829.822+241.499+820.868+232.619+803.404+232.619C795.264+232.619+788.456+235.912+782.98+242.498C777.504+249.084+774.766+256.965+774.766+266.141L774.766+326.303L754.342+326.303L754.342+217.523Z" opacity="1" fill="#ffffff"/>
</g>
<g opacity="1">
<path d="M161.38+388.303L140.956+388.303L140.956+229.351L165.82+229.351L243.076+353.005L243.964+353.005L243.076+322.369L243.076+229.351L263.5+229.351L263.5+388.303L242.188+388.303L161.38+258.655L160.492+258.655L161.38+289.291L161.38+388.303Z" opacity="1" fill="#ffffff"/>
<path d="M285.7+333.913C285.7+317.189+290.954+303.351+301.462+292.399C312.118+281.447+325.512+275.971+341.644+275.971C357.776+275.971+371.096+281.447+381.604+292.399C392.26+303.351+397.588+317.189+397.588+333.913C397.588+350.785+392.26+364.623+381.604+375.427C371.096+386.379+357.776+391.855+341.644+391.855C325.512+391.855+312.118+386.379+301.462+375.427C290.954+364.475+285.7+350.637+285.7+333.913ZM306.124+333.913C306.124+345.605+309.528+355.077+316.336+362.329C323.144+369.581+331.58+373.207+341.644+373.207C351.708+373.207+360.144+369.581+366.952+362.329C373.76+355.077+377.164+345.605+377.164+333.913C377.164+322.369+373.76+312.971+366.952+305.719C359.996+298.319+351.56+294.619+341.644+294.619C331.728+294.619+323.292+298.319+316.336+305.719C309.528+312.971+306.124+322.369+306.124+333.913Z" opacity="1" fill="#ffffff"/>
<path d="M489.052+388.303L468.628+388.303L468.628+229.351L489.052+229.351L489.052+388.303Z" opacity="1" fill="#ffffff"/>
<path d="M567.196+391.855C551.064+391.855+537.67+386.379+527.014+375.427C516.506+364.179+511.252+350.341+511.252+333.913C511.252+317.189+516.506+303.351+527.014+292.399C537.67+281.447+551.064+275.971+567.196+275.971C578.296+275.971+587.99+278.746+596.278+284.296C604.566+289.846+610.782+297.505+614.926+307.273L596.278+315.043C590.506+301.427+580.368+294.619+565.864+294.619C556.54+294.619+548.474+298.393+541.666+305.941C535.006+313.489+531.676+322.813+531.676+333.913C531.676+345.013+535.006+354.337+541.666+361.885C548.474+369.433+556.54+373.207+565.864+373.207C580.812+373.207+591.32+366.399+597.388+352.783L615.592+360.553C611.596+370.321+605.343+377.98+596.833+383.53C588.323+389.08+578.444+391.855+567.196+391.855Z" opacity="1" fill="#ffffff"/>
<path d="M626.026+333.913C626.026+317.189+631.28+303.351+641.788+292.399C652.444+281.447+665.838+275.971+681.97+275.971C698.102+275.971+711.422+281.447+721.93+292.399C732.586+303.351+737.914+317.189+737.914+333.913C737.914+350.785+732.586+364.623+721.93+375.427C711.422+386.379+698.102+391.855+681.97+391.855C665.838+391.855+652.444+386.379+641.788+375.427C631.28+364.475+626.026+350.637+626.026+333.913ZM646.45+333.913C646.45+345.605+649.854+355.077+656.662+362.329C663.47+369.581+671.906+373.207+681.97+373.207C692.034+373.207+700.47+369.581+707.278+362.329C714.086+355.077+717.49+345.605+717.49+333.913C717.49+322.369+714.086+312.971+707.278+305.719C700.322+298.319+691.886+294.619+681.97+294.619C672.054+294.619+663.618+298.319+656.662+305.719C649.854+312.971+646.45+322.369+646.45+333.913Z" opacity="1" fill="#ffffff"/>
<path d="M754.342+279.523L773.878+279.523L773.878+294.619L774.766+294.619C777.874+289.291+782.647+284.851+789.085+281.299C795.523+277.747+802.22+275.971+809.176+275.971C822.496+275.971+832.745+279.782+839.923+287.404C847.101+295.026+850.69+305.867+850.69+319.927L850.69+388.303L830.266+388.303L830.266+321.259C829.822+303.499+820.868+294.619+803.404+294.619C795.264+294.619+788.456+297.912+782.98+304.498C777.504+311.084+774.766+318.965+774.766+328.141L774.766+388.303L754.342+388.303L754.342+279.523Z" opacity="1" fill="#ffffff"/>
</g>
<g opacity="1">
<path d="M161.38+326.303L140.956+326.303L140.956+167.351L165.82+167.351L243.076+291.005L243.964+291.005L243.076+260.369L243.076+167.351L263.5+167.351L263.5+326.303L242.188+326.303L161.38+196.655L160.492+196.655L161.38+227.291L161.38+326.303Z" opacity="1" fill="#ffffff"/>
<path d="M285.7+271.913C285.7+255.189+290.954+241.351+301.462+230.399C312.118+219.447+325.512+213.971+341.644+213.971C357.776+213.971+371.096+219.447+381.604+230.399C392.26+241.351+397.588+255.189+397.588+271.913C397.588+288.785+392.26+302.623+381.604+313.427C371.096+324.379+357.776+329.855+341.644+329.855C325.512+329.855+312.118+324.379+301.462+313.427C290.954+302.475+285.7+288.637+285.7+271.913ZM306.124+271.913C306.124+283.605+309.528+293.077+316.336+300.329C323.144+307.581+331.58+311.207+341.644+311.207C351.708+311.207+360.144+307.581+366.952+300.329C373.76+293.077+377.164+283.605+377.164+271.913C377.164+260.369+373.76+250.971+366.952+243.719C359.996+236.319+351.56+232.619+341.644+232.619C331.728+232.619+323.292+236.319+316.336+243.719C309.528+250.971+306.124+260.369+306.124+271.913Z" opacity="1" fill="#ffffff"/>
<path d="M489.052+326.303L468.628+326.303L468.628+167.351L489.052+167.351L489.052+326.303Z" opacity="1" fill="#ffffff"/>
<path d="M567.196+329.855C551.064+329.855+537.67+324.379+527.014+313.427C516.506+302.179+511.252+288.341+511.252+271.913C511.252+255.189+516.506+241.351+527.014+230.399C537.67+219.447+551.064+213.971+567.196+213.971C578.296+213.971+587.99+216.746+596.278+222.296C604.566+227.846+610.782+235.505+614.926+245.273L596.278+253.043C590.506+239.427+580.368+232.619+565.864+232.619C556.54+232.619+548.474+236.393+541.666+243.941C535.006+251.489+531.676+260.813+531.676+271.913C531.676+283.013+535.006+292.337+541.666+299.885C548.474+307.433+556.54+311.207+565.864+311.207C580.812+311.207+591.32+304.399+597.388+290.783L615.592+298.553C611.596+308.321+605.343+315.98+596.833+321.53C588.323+327.08+578.444+329.855+567.196+329.855Z" opacity="1" fill="#ffffff"/>
<path d="M626.026+271.913C626.026+255.189+631.28+241.351+641.788+230.399C652.444+219.447+665.838+213.971+681.97+213.971C698.102+213.971+711.422+219.447+721.93+230.399C732.586+241.351+737.914+255.189+737.914+271.913C737.914+288.785+732.586+302.623+721.93+313.427C711.422+324.379+698.102+329.855+681.97+329.855C665.838+329.855+652.444+324.379+641.788+313.427C631.28+302.475+626.026+288.637+626.026+271.913ZM646.45+271.913C646.45+283.605+649.854+293.077+656.662+300.329C663.47+307.581+671.906+311.207+681.97+311.207C692.034+311.207+700.47+307.581+707.278+300.329C714.086+293.077+717.49+283.605+717.49+271.913C717.49+260.369+714.086+250.971+707.278+243.719C700.322+236.319+691.886+232.619+681.97+232.619C672.054+232.619+663.618+236.319+656.662+243.719C649.854+250.971+646.45+260.369+646.45+271.913Z" opacity="1" fill="#ffffff"/>
<path d="M754.342+217.523L773.878+217.523L773.878+232.619L774.766+232.619C777.874+227.291+782.647+222.851+789.085+219.299C795.523+215.747+802.22+213.971+809.176+213.971C822.496+213.971+832.745+217.782+839.923+225.404C847.101+233.026+850.69+243.867+850.69+257.927L850.69+326.303L830.266+326.303L830.266+259.259C829.822+241.499+820.868+232.619+803.404+232.619C795.264+232.619+788.456+235.912+782.98+242.498C777.504+249.084+774.766+256.965+774.766+266.141L774.766+326.303L754.342+326.303L754.342+217.523Z" opacity="1" fill="#ffffff"/>
</g>
<g opacity="1">
<path d="M163.111+731.392L142.687+731.392L142.687+572.44L167.551+572.44L244.807+696.094L245.695+696.094L244.807+665.458L244.807+572.44L265.231+572.44L265.231+731.392L243.919+731.392L163.111+601.744L162.223+601.744L163.111+632.38L163.111+731.392Z" opacity="1" fill="#ffffff"/>
<path d="M287.431+677.002C287.431+660.278+292.685+646.44+303.193+635.488C313.849+624.536+327.243+619.06+343.375+619.06C359.507+619.06+372.827+624.536+383.335+635.488C393.991+646.44+399.319+660.278+399.319+677.002C399.319+693.874+393.991+707.712+383.335+718.516C372.827+729.468+359.507+734.944+343.375+734.944C327.243+734.944+313.849+729.468+303.193+718.516C292.685+707.564+287.431+693.726+287.431+677.002ZM307.855+677.002C307.855+688.694+311.259+698.166+318.067+705.418C324.875+712.67+333.311+716.296+343.375+716.296C353.439+716.296+361.875+712.67+368.683+705.418C375.491+698.166+378.895+688.694+378.895+677.002C378.895+665.458+375.491+656.06+368.683+648.808C361.727+641.408+353.291+637.708+343.375+637.708C333.459+637.708+325.023+641.408+318.067+648.808C311.259+656.06+307.855+665.458+307.855+677.002Z" opacity="1" fill="#ffffff"/>
<path d="M490.783+731.392L470.359+731.392L470.359+572.44L490.783+572.44L490.783+731.392Z" opacity="1" fill="#ffffff"/>
<path d="M568.927+734.944C552.795+734.944+539.401+729.468+528.745+718.516C518.237+707.268+512.983+693.43+512.983+677.002C512.983+660.278+518.237+646.44+528.745+635.488C539.401+624.536+552.795+619.06+568.927+619.06C580.027+619.06+589.721+621.835+598.009+627.385C606.297+632.935+612.513+640.594+616.657+650.362L598.009+658.132C592.237+644.516+582.099+637.708+567.595+637.708C558.271+637.708+550.205+641.482+543.397+649.03C536.737+656.578+533.407+665.902+533.407+677.002C533.407+688.102+536.737+697.426+543.397+704.974C550.205+712.522+558.271+716.296+567.595+716.296C582.543+716.296+593.051+709.488+599.119+695.872L617.323+703.642C613.327+713.41+607.074+721.069+598.564+726.619C590.054+732.169+580.175+734.944+568.927+734.944Z" opacity="1" fill="#ffffff"/>
<path d="M627.757+677.002C627.757+660.278+633.011+646.44+643.519+635.488C654.175+624.536+667.569+619.06+683.701+619.06C699.833+619.06+713.153+624.536+723.661+635.488C734.317+646.44+739.645+660.278+739.645+677.002C739.645+693.874+734.317+707.712+723.661+718.516C713.153+729.468+699.833+734.944+683.701+734.944C667.569+734.944+654.175+729.468+643.519+718.516C633.011+707.564+627.757+693.726+627.757+677.002ZM648.181+677.002C648.181+688.694+651.585+698.166+658.393+705.418C665.201+712.67+673.637+716.296+683.701+716.296C693.765+716.296+702.201+712.67+709.009+705.418C715.817+698.166+719.221+688.694+719.221+677.002C719.221+665.458+715.817+656.06+709.009+648.808C702.053+641.408+693.617+637.708+683.701+637.708C673.785+637.708+665.349+641.408+658.393+648.808C651.585+656.06+648.181+665.458+648.181+677.002Z" opacity="1" fill="#ffffff"/>
<path d="M756.073+622.612L775.609+622.612L775.609+637.708L776.497+637.708C779.605+632.38+784.378+627.94+790.816+624.388C797.254+620.836+803.951+619.06+810.907+619.06C824.227+619.06+834.476+622.871+841.654+630.493C848.832+638.115+852.421+648.956+852.421+663.016L852.421+731.392L831.997+731.392L831.997+664.348C831.553+646.588+822.599+637.708+805.135+637.708C796.995+637.708+790.187+641.001+784.711+647.587C779.235+654.173+776.497+662.054+776.497+671.23L776.497+731.392L756.073+731.392L756.073+622.612Z" opacity="1" fill="#ffffff"/>
</g>
<g opacity="1">
<path d="M161.38+559.303L140.956+559.303L140.956+400.351L165.82+400.351L243.076+524.005L243.964+524.005L243.076+493.369L243.076+400.351L263.5+400.351L263.5+559.303L242.188+559.303L161.38+429.655L160.492+429.655L161.38+460.291L161.38+559.303Z" opacity="1" fill="#ffffff"/>
<path d="M285.7+504.913C285.7+488.189+290.954+474.351+301.462+463.399C312.118+452.447+325.512+446.971+341.644+446.971C357.776+446.971+371.096+452.447+381.604+463.399C392.26+474.351+397.588+488.189+397.588+504.913C397.588+521.785+392.26+535.623+381.604+546.427C371.096+557.379+357.776+562.855+341.644+562.855C325.512+562.855+312.118+557.379+301.462+546.427C290.954+535.475+285.7+521.637+285.7+504.913ZM306.124+504.913C306.124+516.605+309.528+526.077+316.336+533.329C323.144+540.581+331.58+544.207+341.644+544.207C351.708+544.207+360.144+540.581+366.952+533.329C373.76+526.077+377.164+516.605+377.164+504.913C377.164+493.369+373.76+483.971+366.952+476.719C359.996+469.319+351.56+465.619+341.644+465.619C331.728+465.619+323.292+469.319+316.336+476.719C309.528+483.971+306.124+493.369+306.124+504.913Z" opacity="1" fill="#ffffff"/>
<path d="M489.052+559.303L468.628+559.303L468.628+400.351L489.052+400.351L489.052+559.303Z" opacity="1" fill="#ffffff"/>
<path d="M567.196+562.855C551.064+562.855+537.67+557.379+527.014+546.427C516.506+535.179+511.252+521.341+511.252+504.913C511.252+488.189+516.506+474.351+527.014+463.399C537.67+452.447+551.064+446.971+567.196+446.971C578.296+446.971+587.99+449.746+596.278+455.296C604.566+460.846+610.782+468.505+614.926+478.273L596.278+486.043C590.506+472.427+580.368+465.619+565.864+465.619C556.54+465.619+548.474+469.393+541.666+476.941C535.006+484.489+531.676+493.813+531.676+504.913C531.676+516.013+535.006+525.337+541.666+532.885C548.474+540.433+556.54+544.207+565.864+544.207C580.812+544.207+591.32+537.399+597.388+523.783L615.592+531.553C611.596+541.321+605.343+548.98+596.833+554.53C588.323+560.08+578.444+562.855+567.196+562.855Z" opacity="1" fill="#ffffff"/>
<path d="M626.026+504.913C626.026+488.189+631.28+474.351+641.788+463.399C652.444+452.447+665.838+446.971+681.97+446.971C698.102+446.971+711.422+452.447+721.93+463.399C732.586+474.351+737.914+488.189+737.914+504.913C737.914+521.785+732.586+535.623+721.93+546.427C711.422+557.379+698.102+562.855+681.97+562.855C665.838+562.855+652.444+557.379+641.788+546.427C631.28+535.475+626.026+521.637+626.026+504.913ZM646.45+504.913C646.45+516.605+649.854+526.077+656.662+533.329C663.47+540.581+671.906+544.207+681.97+544.207C692.034+544.207+700.47+540.581+707.278+533.329C714.086+526.077+717.49+516.605+717.49+504.913C717.49+493.369+714.086+483.971+707.278+476.719C700.322+469.319+691.886+465.619+681.97+465.619C672.054+465.619+663.618+469.319+656.662+476.719C649.854+483.971+646.45+493.369+646.45+504.913Z" opacity="1" fill="#ffffff"/>
<path d="M754.342+450.523L773.878+450.523L773.878+465.619L774.766+465.619C777.874+460.291+782.647+455.851+789.085+452.299C795.523+448.747+802.22+446.971+809.176+446.971C822.496+446.971+832.745+450.782+839.923+458.404C847.101+466.026+850.69+476.867+850.69+490.927L850.69+559.303L830.266+559.303L830.266+492.259C829.822+474.499+820.868+465.619+803.404+465.619C795.264+465.619+788.456+468.912+782.98+475.498C777.504+482.084+774.766+489.965+774.766+499.141L774.766+559.303L754.342+559.303L754.342+450.523Z" opacity="1" fill="#ffffff"/>
</g>
</g>
</svg>
