<?xml version="1.0" encoding="UTF-8" standalone="no"?> <!-- Created with Vectornator Pro for iOS (http://vectornator.io/) --><!DOCTYPE svg PUBLIC "-//W3C//DTD SVG 1.1//EN" "http://www.w3.org/Graphics/SVG/1.1/DTD/svg11.dtd">
<svg height="100%" style="fill-rule:evenodd;clip-rule:evenodd;stroke-linecap:round;stroke-linejoin:round;" xmlns:xlink="http://www.w3.org/1999/xlink" xmlns="http://www.w3.org/2000/svg" xml:space="preserve" width="100%" xmlns:vectornator="http://vectornator.io" version="1.1" viewBox="0 0 1024 1024">
<metadata>
<vectornator:setting key="DisplayWhiteBackground" value="0"/>
<vectornator:setting key="RulersVisible" value="1"/>
<vectornator:setting key="SnapToEdges" value="0"/>
<vectornator:setting key="Units" value="Pixels"/>
<vectornator:setting key="DynamicGuides" value="0"/>
<vectornator:setting key="SnapToPoints" value="0"/>
<vectornator:setting key="CMYKEnabledKey" value="0"/>
<vectornator:setting key="SnapToGrid" value="0"/>
<vectornator:setting key="ShowGrid" value="1"/>
<vectornator:setting key="GridSpacing" value="36"/>
</metadata>
<defs/>
<g id="Layer 1" vectornator:layerName="Layer 1">
<path d="M1193.87-13.163C1210.01-212.498+1084.58-345.672+890.519-389.012C541.716-466.91+5.67943-381.05-218.603-73.6681C-365.232+127.29-442.694+386.16-437.034+636.645C-420.167+1383.16+299.26+1210.15+788.505+1188.64C953.471+1181.39+1223.03+1209.08+1359.34+1085.26C1441.38+1010.74+1428.35+881.023+1450.29+786.41" opacity="1" fill="#000000"/>
</g>
<g id="Layer 2" vectornator:layerName="Layer 2">
<g opacity="1">
<path d="M161.38+326.303L140.956+326.303L140.956+167.351L165.82+167.351L243.076+291.005L243.964+291.005L243.076+260.369L243.076+167.351L263.5+167.351L263.5+326.303L242.188+326.303L161.38+196.655L160.492+196.655L161.38+227.291L161.38+326.303Z" opacity="1" fill="#ffffff"/>
<path d="M285.7+271.913C285.7+255.189+290.954+241.351+301.462+230.399C312.118+219.447+325.512+213.971+341.644+213.971C357.776+213.971+371.096+219.447+381.604+230.399C392.26+241.351+397.588+255.189+397.588+271.913C397.588+288.785+392.26+302.623+381.604+313.427C371.096+324.379+357.776+329.855+341.644+329.855C325.512+329.855+312.118+324.379+301.462+313.427C290.954+302.475+285.7+288.637+285.7+271.913ZM306.124+271.913C306.124+283.605+309.528+293.077+316.336+300.329C323.144+307.581+331.58+311.207+341.644+311.207C351.708+311.207+360.144+307.581+366.952+300.329C373.76+293.077+377.164+283.605+377.164+271.913C377.164+260.369+373.76+250.971+366.952+243.719C359.996+236.319+351.56+232.619+341.644+232.619C331.728+232.619+323.292+236.319+316.336+243.719C309.528+250.971+306.124+260.369+306.124+271.913Z" opacity="1" fill="#ffffff"/>
<path d="M489.052+326.303L468.628+326.303L468.628+167.351L489.052+167.351L489.052+326.303Z" opacity="1" fill="#ffffff"/>
<path d="M567.196+329.855C551.064+329.855+537.67+324.379+527.014+313.427C516.506+302.179+511.252+288.341+511.252+271.913C511.252+255.189+516.506+241.351+527.014+230.399C537.67+219.447+551.064+213.971+567.196+213.971C578.296+213.971+587.99+216.746+596.278+222.296C604.566+227.846+610.782+235.505+614.926+245.273L596.278+253.043C590.506+239.427+580.368+232.619+565.864+232.619C556.54+232.619+548.474+236.393+541.666+243.941C535.006+251.489+531.676+260.813+531.676+271.913C531.676+283.013+535.006+292.337+541.666+299.885C548.474+307.433+556.54+311.207+565.864+311.207C580.812+311.207+591.32+304.399+597.388+290.783L615.592+298.553C611.596+308.321+605.343+315.98+596.833+321.53C588.323+327.08+578.444+329.855+567.196+329.855Z" opacity="1" fill="#ffffff"/>
<path d="M626.026+271.913C626.026+255.189+631.28+241.351+641.788+230.399C652.444+219.447+665.838+213.971+681.97+213.971C698.102+213.971+711.422+219.447+721.93+230.399C732.586+241.351+737.914+255.189+737.914+271.913C737.914+288.785+732.586+302.623+721.93+313.427C711.422+324.379+698.102+329.855+681.97+329.855C665.838+329.855+652.444+324.379+641.788+313.427C631.28+302.475+626.026+288.637+626.026+271.913ZM646.45+271.913C646.45+283.605+649.854+293.077+656.662+300.329C663.47+307.581+671.906+311.207+681.97+311.207C692.034+311.207+700.47+307.581+707.278+300.329C714.086+293.077+717.49+283.605+717.49+271.913C717.49+260.369+714.086+250.971+707.278+243.719C700.322+236.319+691.886+232.619+681.97+232.619C672.054+232.619+663.618+236.319+656.662+243.719C649.854+250.971+646.45+260.369+646.45+271.913Z" opacity="1" fill="#ffffff"/>
<path d="M754.342+217.523L773.878+217.523L773.878+232.619L774.766+232.619C777.874+227.291+782.647+222.851+789.085+219.299C795.523+215.747+802.22+213.971+809.176+213.971C822.496+213.971+832.745+217.782+839.923+225.404C847.101+233.026+850.69+243.867+850.69+257.927L850.69+326.303L830.266+326.303L830.266+259.259C829.822+241.499+820.868+232.619+803.404+232.619C795.264+232.619+788.456+235.912+782.98+242.498C777.504+249.084+774.766+256.965+774.766+266.141L774.766+326.303L754.342+326.303L754.342+217.523Z" opacity="1" fill="#ffffff"/>
</g>
<g opacity="1">
<path d="M163.111+731.392L142.687+731.392L142.687+572.44L167.551+572.44L244.807+696.094L245.695+696.094L244.807+665.458L244.807+572.44L265.231+572.44L265.231+731.392L243.919+731.392L163.111+601.744L162.223+601.744L163.111+632.38L163.111+731.392Z" opacity="1" fill="#ffffff"/>
<path d="M287.431+677.002C287.431+660.278+292.685+646.44+303.193+635.488C313.849+624.536+327.243+619.06+343.375+619.06C359.507+619.06+372.827+624.536+383.335+635.488C393.991+646.44+399.319+660.278+399.319+677.002C399.319+693.874+393.991+707.712+383.335+718.516C372.827+729.468+359.507+734.944+343.375+734.944C327.243+734.944+313.849+729.468+303.193+718.516C292.685+707.564+287.431+693.726+287.431+677.002ZM307.855+677.002C307.855+688.694+311.259+698.166+318.067+705.418C324.875+712.67+333.311+716.296+343.375+716.296C353.439+716.296+361.875+712.67+368.683+705.418C375.491+698.166+378.895+688.694+378.895+677.002C378.895+665.458+375.491+656.06+368.683+648.808C361.727+641.408+353.291+637.708+343.375+637.708C333.459+637.708+325.023+641.408+318.067+648.808C311.259+656.06+307.855+665.458+307.855+677.002Z" opacity="1" fill="#ffffff"/>
<path d="M490.783+731.392L470.359+731.392L470.359+572.44L490.783+572.44L490.783+731.392Z" opacity="1" fill="#ffffff"/>
<path d="M568.927+734.944C552.795+734.944+539.401+729.468+528.745+718.516C518.237+707.268+512.983+693.43+512.983+677.002C512.983+660.278+518.237+646.44+528.745+635.488C539.401+624.536+552.795+619.06+568.927+619.06C580.027+619.06+589.721+621.835+598.009+627.385C606.297+632.935+612.513+640.594+616.657+650.362L598.009+658.132C592.237+644.516+582.099+637.708+567.595+637.708C558.271+637.708+550.205+641.482+543.397+649.03C536.737+656.578+533.407+665.902+533.407+677.002C533.407+688.102+536.737+697.426+543.397+704.974C550.205+712.522+558.271+716.296+567.595+716.296C582.543+716.296+593.051+709.488+599.119+695.872L617.323+703.642C613.327+713.41+607.074+721.069+598.564+726.619C590.054+732.169+580.175+734.944+568.927+734.944Z" opacity="1" fill="#ffffff"/>
<path d="M627.757+677.002C627.757+660.278+633.011+646.44+643.519+635.488C654.175+624.536+667.569+619.06+683.701+619.06C699.833+619.06+713.153+624.536+723.661+635.488C734.317+646.44+739.645+660.278+739.645+677.002C739.645+693.874+734.317+707.712+723.661+718.516C713.153+729.468+699.833+734.944+683.701+734.944C667.569+734.944+654.175+729.468+643.519+718.516C633.011+707.564+627.757+693.726+627.757+677.002ZM648.181+677.002C648.181+688.694+651.585+698.166+658.393+705.418C665.201+712.67+673.637+716.296+683.701+716.296C693.765+716.296+702.201+712.67+709.009+705.418C715.817+698.166+719.221+688.694+719.221+677.002C719.221+665.458+715.817+656.06+709.009+648.808C702.053+641.408+693.617+637.708+683.701+637.708C673.785+637.708+665.349+641.408+658.393+648.808C651.585+656.06+648.181+665.458+648.181+677.002Z" opacity="1" fill="#ffffff"/>
<path d="M756.073+622.612L775.609+622.612L775.609+637.708L776.497+637.708C779.605+632.38+784.378+627.94+790.816+624.388C797.254+620.836+803.951+619.06+810.907+619.06C824.227+619.06+834.476+622.871+841.654+630.493C848.832+638.115+852.421+648.956+852.421+663.016L852.421+731.392L831.997+731.392L831.997+664.348C831.553+646.588+822.599+637.708+805.135+637.708C796.995+637.708+790.187+641.001+784.711+647.587C779.235+654.173+776.497+662.054+776.497+671.23L776.497+731.392L756.073+731.392L756.073+622.612Z" opacity="1" fill="#ffffff"/>
</g>
<g opacity="1">
<path d="M162.38+526.303L141.956+526.303L141.956+367.351L166.82+367.351L244.076+491.005L244.964+491.005L244.076+460.369L244.076+367.351L264.5+367.351L264.5+526.303L243.188+526.303L162.38+396.655L161.492+396.655L162.38+427.291L162.38+526.303Z" opacity="1" fill="#ffffff"/>
<path d="M286.7+471.913C286.7+455.189+291.954+441.351+302.462+430.399C313.118+419.447+326.512+413.971+342.644+413.971C358.776+413.971+372.096+419.447+382.604+430.399C393.26+441.351+398.588+455.189+398.588+471.913C398.588+488.785+393.26+502.623+382.604+513.427C372.096+524.379+358.776+529.855+342.644+529.855C326.512+529.855+313.118+524.379+302.462+513.427C291.954+502.475+286.7+488.637+286.7+471.913ZM307.124+471.913C307.124+483.605+310.528+493.077+317.336+500.329C324.144+507.581+332.58+511.207+342.644+511.207C352.708+511.207+361.144+507.581+367.952+500.329C374.76+493.077+378.164+483.605+378.164+471.913C378.164+460.369+374.76+450.971+367.952+443.719C360.996+436.319+352.56+432.619+342.644+432.619C332.728+432.619+324.292+436.319+317.336+443.719C310.528+450.971+307.124+460.369+307.124+471.913Z" opacity="1" fill="#ffffff"/>
<path d="M490.052+526.303L469.628+526.303L469.628+367.351L490.052+367.351L490.052+526.303Z" opacity="1" fill="#ffffff"/>
<path d="M568.196+529.855C552.064+529.855+538.67+524.379+528.014+513.427C517.506+502.179+512.252+488.341+512.252+471.913C512.252+455.189+517.506+441.351+528.014+430.399C538.67+419.447+552.064+413.971+568.196+413.971C579.296+413.971+588.99+416.746+597.278+422.296C605.566+427.846+611.782+435.505+615.926+445.273L597.278+453.043C591.506+439.427+581.368+432.619+566.864+432.619C557.54+432.619+549.474+436.393+542.666+443.941C536.006+451.489+532.676+460.813+532.676+471.913C532.676+483.013+536.006+492.337+542.666+499.885C549.474+507.433+557.54+511.207+566.864+511.207C581.812+511.207+592.32+504.399+598.388+490.783L616.592+498.553C612.596+508.321+606.343+515.98+597.833+521.53C589.323+527.08+579.444+529.855+568.196+529.855Z" opacity="1" fill="#ffffff"/>
<path d="M627.026+471.913C627.026+455.189+632.28+441.351+642.788+430.399C653.444+419.447+666.838+413.971+682.97+413.971C699.102+413.971+712.422+419.447+722.93+430.399C733.586+441.351+738.914+455.189+738.914+471.913C738.914+488.785+733.586+502.623+722.93+513.427C712.422+524.379+699.102+529.855+682.97+529.855C666.838+529.855+653.444+524.379+642.788+513.427C632.28+502.475+627.026+488.637+627.026+471.913ZM647.45+471.913C647.45+483.605+650.854+493.077+657.662+500.329C664.47+507.581+672.906+511.207+682.97+511.207C693.034+511.207+701.47+507.581+708.278+500.329C715.086+493.077+718.49+483.605+718.49+471.913C718.49+460.369+715.086+450.971+708.278+443.719C701.322+436.319+692.886+432.619+682.97+432.619C673.054+432.619+664.618+436.319+657.662+443.719C650.854+450.971+647.45+460.369+647.45+471.913Z" opacity="1" fill="#ffffff"/>
<path d="M755.342+417.523L774.878+417.523L774.878+432.619L775.766+432.619C778.874+427.291+783.647+422.851+790.085+419.299C796.523+415.747+803.22+413.971+810.176+413.971C823.496+413.971+833.745+417.782+840.923+425.404C848.101+433.026+851.69+443.867+851.69+457.927L851.69+526.303L831.266+526.303L831.266+459.259C830.822+441.499+821.868+432.619+804.404+432.619C796.264+432.619+789.456+435.912+783.98+442.498C778.504+449.084+775.766+456.965+775.766+466.141L775.766+526.303L755.342+526.303L755.342+417.523Z" opacity="1" fill="#ffffff"/>
</g>
</g>
</svg>
