<?xml version="1.0" encoding="UTF-8" standalone="no"?> <!-- Created with Vectornator Pro for iOS (http://vectornator.io/) --><!DOCTYPE svg PUBLIC "-//W3C//DTD SVG 1.1//EN" "http://www.w3.org/Graphics/SVG/1.1/DTD/svg11.dtd">
<svg height="100%" style="fill-rule:evenodd;clip-rule:evenodd;stroke-linecap:round;stroke-linejoin:round;" xmlns:xlink="http://www.w3.org/1999/xlink" xmlns="http://www.w3.org/2000/svg" xml:space="preserve" width="100%" xmlns:vectornator="http://vectornator.io" version="1.1" viewBox="0 0 1024 1024">
<metadata>
<vectornator:setting key="DisplayWhiteBackground" value="0"/>
<vectornator:setting key="RulersVisible" value="1"/>
<vectornator:setting key="SnapToEdges" value="0"/>
<vectornator:setting key="Units" value="Pixels"/>
<vectornator:setting key="DynamicGuides" value="0"/>
<vectornator:setting key="SnapToPoints" value="0"/>
<vectornator:setting key="SnapToGrid" value="0"/>
<vectornator:setting key="ShowGrid" value="1"/>
<vectornator:setting key="GridSpacing" value="36"/>
</metadata>
<defs/>
<g id="Layer 2" vectornator:layerName="Layer 2">
<path d="M-268.353-155.156C2451.57-188.389+245.056+1025.71-662.026-188.389C-1492.83-1300.39-1901.84+1639.38-263.24+136.264C1375.36-1366.85+724.922+3090.85-431.378+238.47C-1587.68-2613.91+3270.32+1440.82+719.806+220.563C-1830.71-999.692+2907.05+775.689+985.857+351.03C-935.34-73.6285+1461.68+461.032+1384.93+430.334C1308.19+399.636-14.3935+3236.66+845.157+338.239C1704.71-2560.19+1177.72+565.918+635.386+1031.51" opacity="1" fill="#000000"/>
</g>
<g id="Layer 1" vectornator:layerName="Layer 1">
<g opacity="1">
<path d="M122.259+292.63C90.4587+292.63+63.8587+281.93+42.4587+260.53C21.2587+239.13+10.6587+212.43+10.6587+180.43C10.6587+148.43+21.2587+121.83+42.4587+100.63C63.6587+79.0301+90.2587+68.2301+122.259+68.2301C154.659+68.2301+180.959+79.9301+201.159+103.33L181.359+122.53C165.959+103.93+146.259+94.6301+122.259+94.6301C98.4587+94.6301+78.5587+102.63+62.5587+118.63C46.7587+134.43+38.8587+155.03+38.8587+180.43C38.8587+205.83+46.7587+226.43+62.5587+242.23C78.5587+258.23+98.4587+266.23+122.259+266.23C147.259+266.23+168.959+255.73+187.359+234.73L207.459+254.23C197.259+266.43+184.759+275.88+169.959+282.58C155.159+289.28+139.259+292.63+122.259+292.63Z" opacity="1" fill="#ff0000"/>
<path d="M259.659+287.83L232.059+287.83L232.059+140.83L258.459+140.83L258.459+164.83L259.659+164.83C262.459+157.03+268.209+150.38+276.909+144.88C285.609+139.38+294.159+136.63+302.559+136.63C310.559+136.63+317.359+137.83+322.959+140.23L314.559+166.93C311.159+165.53+305.759+164.83+298.359+164.83C287.959+164.83+278.909+169.03+271.209+177.43C263.509+185.83+259.659+195.63+259.659+206.83L259.659+287.83Z" opacity="1" fill="#ff0000"/>
<path d="M397.959+292.63C376.359+292.63+358.559+285.23+344.559+270.43C330.559+255.63+323.559+236.93+323.559+214.33C323.559+191.93+330.359+173.28+343.959+158.38C357.559+143.48+374.959+136.03+396.159+136.03C417.959+136.03+435.309+143.08+448.209+157.18C461.109+171.28+467.559+191.03+467.559+216.43L467.259+219.43L351.759+219.43C352.159+233.83+356.959+245.43+366.159+254.23C375.359+263.03+386.359+267.43+399.159+267.43C416.759+267.43+430.559+258.63+440.559+241.03L465.159+253.03C458.559+265.43+449.409+275.13+437.709+282.13C426.009+289.13+412.759+292.63+397.959+292.63ZM353.859+196.63L438.159+196.63C437.359+186.43+433.209+177.98+425.709+171.28C418.209+164.58+408.159+161.23+395.559+161.23C385.159+161.23+376.209+164.43+368.709+170.83C361.209+177.23+356.259+185.83+353.859+196.63Z" opacity="1" fill="#ff0000"/>
<path d="M560.259+267.43C573.859+267.43+584.959+262.53+593.559+252.73C602.559+242.93+607.059+230.13+607.059+214.33C607.059+198.93+602.559+186.23+593.559+176.23C584.759+166.23+573.659+161.23+560.259+161.23C547.059+161.23+535.959+166.23+526.959+176.23C517.959+186.23+513.459+198.93+513.459+214.33C513.459+229.93+517.959+242.63+526.959+252.43C535.959+262.43+547.059+267.43+560.259+267.43ZM555.759+292.63C536.559+292.63+520.059+285.03+506.259+269.83C492.659+254.43+485.859+235.93+485.859+214.33C485.859+192.73+492.659+174.23+506.259+158.83C520.059+143.63+536.559+136.03+555.759+136.03C566.559+136.03+576.409+138.33+585.309+142.93C594.209+147.53+601.059+153.63+605.859+161.23L607.059+161.23L605.859+140.83L605.859+73.0301L633.459+73.0301L633.459+287.83L607.059+287.83L607.059+267.43L605.859+267.43C601.059+275.03+594.209+281.13+585.309+285.73C576.409+290.33+566.559+292.63+555.759+292.63Z" opacity="1" fill="#ff0000"/>
<path d="M702.759+90.1301C702.759+95.5301+700.859+100.13+697.059+103.93C693.259+107.73+688.659+109.63+683.259+109.63C677.859+109.63+673.259+107.73+669.459+103.93C665.659+100.13+663.759+95.5301+663.759+90.1301C663.759+84.7301+665.659+80.1301+669.459+76.3301C673.259+72.5301+677.859+70.6301+683.259+70.6301C688.659+70.6301+693.259+72.5301+697.059+76.3301C700.859+80.1301+702.759+84.7301+702.759+90.1301ZM697.059+140.83L697.059+287.83L669.459+287.83L669.459+140.83L697.059+140.83Z" opacity="1" fill="#ff0000"/>
<path d="M789.759+290.23C777.759+290.23+767.809+286.53+759.909+279.13C752.009+271.73+747.959+261.43+747.759+248.23L747.759+166.03L721.959+166.03L721.959+140.83L747.759+140.83L747.759+95.8301L775.359+95.8301L775.359+140.83L811.359+140.83L811.359+166.03L775.359+166.03L775.359+239.23C775.359+249.03+777.259+255.68+781.059+259.18C784.859+262.68+789.159+264.43+793.959+264.43C796.159+264.43+798.309+264.18+800.409+263.68C802.509+263.18+804.459+262.53+806.259+261.73L814.959+286.33C807.759+288.93+799.359+290.23+789.759+290.23Z" opacity="1" fill="#ff0000"/>
<path d="M953.259+247.03C953.259+259.83+947.659+270.63+936.459+279.43C925.259+288.23+911.159+292.63+894.159+292.63C879.359+292.63+866.359+288.78+855.159+281.08C843.959+273.38+835.959+263.23+831.159+250.63L855.759+240.13C859.359+248.93+864.609+255.78+871.509+260.68C878.409+265.58+885.959+268.03+894.159+268.03C902.959+268.03+910.309+266.13+916.209+262.33C922.109+258.53+925.059+254.03+925.059+248.83C925.059+239.43+917.859+232.53+903.459+228.13L878.259+221.83C849.659+214.63+835.359+200.83+835.359+180.43C835.359+167.03+840.809+156.28+851.709+148.18C862.609+140.08+876.559+136.03+893.559+136.03C906.559+136.03+918.309+139.13+928.809+145.33C939.309+151.53+946.659+159.83+950.859+170.23L926.259+180.43C923.459+174.23+918.909+169.38+912.609+165.88C906.309+162.38+899.259+160.63+891.459+160.63C884.259+160.63+877.809+162.43+872.109+166.03C866.409+169.63+863.559+174.03+863.559+179.23C863.559+187.63+871.459+193.63+887.259+197.23L909.459+202.93C938.659+210.13+953.259+224.83+953.259+247.03Z" opacity="1" fill="#ff0000"/>
</g>
<g opacity="1">
<path d="M122.259+292.63C90.4587+292.63+63.8587+281.93+42.4587+260.53C21.2587+239.13+10.6587+212.43+10.6587+180.43C10.6587+148.43+21.2587+121.83+42.4587+100.63C63.6587+79.0301+90.2587+68.2301+122.259+68.2301C154.659+68.2301+180.959+79.9301+201.159+103.33L181.359+122.53C165.959+103.93+146.259+94.6301+122.259+94.6301C98.4587+94.6301+78.5587+102.63+62.5587+118.63C46.7587+134.43+38.8587+155.03+38.8587+180.43C38.8587+205.83+46.7587+226.43+62.5587+242.23C78.5587+258.23+98.4587+266.23+122.259+266.23C147.259+266.23+168.959+255.73+187.359+234.73L207.459+254.23C197.259+266.43+184.759+275.88+169.959+282.58C155.159+289.28+139.259+292.63+122.259+292.63Z" opacity="1" fill="#ff0000"/>
<path d="M259.659+287.83L232.059+287.83L232.059+140.83L258.459+140.83L258.459+164.83L259.659+164.83C262.459+157.03+268.209+150.38+276.909+144.88C285.609+139.38+294.159+136.63+302.559+136.63C310.559+136.63+317.359+137.83+322.959+140.23L314.559+166.93C311.159+165.53+305.759+164.83+298.359+164.83C287.959+164.83+278.909+169.03+271.209+177.43C263.509+185.83+259.659+195.63+259.659+206.83L259.659+287.83Z" opacity="1" fill="#ff0000"/>
<path d="M397.959+292.63C376.359+292.63+358.559+285.23+344.559+270.43C330.559+255.63+323.559+236.93+323.559+214.33C323.559+191.93+330.359+173.28+343.959+158.38C357.559+143.48+374.959+136.03+396.159+136.03C417.959+136.03+435.309+143.08+448.209+157.18C461.109+171.28+467.559+191.03+467.559+216.43L467.259+219.43L351.759+219.43C352.159+233.83+356.959+245.43+366.159+254.23C375.359+263.03+386.359+267.43+399.159+267.43C416.759+267.43+430.559+258.63+440.559+241.03L465.159+253.03C458.559+265.43+449.409+275.13+437.709+282.13C426.009+289.13+412.759+292.63+397.959+292.63ZM353.859+196.63L438.159+196.63C437.359+186.43+433.209+177.98+425.709+171.28C418.209+164.58+408.159+161.23+395.559+161.23C385.159+161.23+376.209+164.43+368.709+170.83C361.209+177.23+356.259+185.83+353.859+196.63Z" opacity="1" fill="#ff0000"/>
<path d="M560.259+267.43C573.859+267.43+584.959+262.53+593.559+252.73C602.559+242.93+607.059+230.13+607.059+214.33C607.059+198.93+602.559+186.23+593.559+176.23C584.759+166.23+573.659+161.23+560.259+161.23C547.059+161.23+535.959+166.23+526.959+176.23C517.959+186.23+513.459+198.93+513.459+214.33C513.459+229.93+517.959+242.63+526.959+252.43C535.959+262.43+547.059+267.43+560.259+267.43ZM555.759+292.63C536.559+292.63+520.059+285.03+506.259+269.83C492.659+254.43+485.859+235.93+485.859+214.33C485.859+192.73+492.659+174.23+506.259+158.83C520.059+143.63+536.559+136.03+555.759+136.03C566.559+136.03+576.409+138.33+585.309+142.93C594.209+147.53+601.059+153.63+605.859+161.23L607.059+161.23L605.859+140.83L605.859+73.0301L633.459+73.0301L633.459+287.83L607.059+287.83L607.059+267.43L605.859+267.43C601.059+275.03+594.209+281.13+585.309+285.73C576.409+290.33+566.559+292.63+555.759+292.63Z" opacity="1" fill="#ff0000"/>
<path d="M702.759+90.1301C702.759+95.5301+700.859+100.13+697.059+103.93C693.259+107.73+688.659+109.63+683.259+109.63C677.859+109.63+673.259+107.73+669.459+103.93C665.659+100.13+663.759+95.5301+663.759+90.1301C663.759+84.7301+665.659+80.1301+669.459+76.3301C673.259+72.5301+677.859+70.6301+683.259+70.6301C688.659+70.6301+693.259+72.5301+697.059+76.3301C700.859+80.1301+702.759+84.7301+702.759+90.1301ZM697.059+140.83L697.059+287.83L669.459+287.83L669.459+140.83L697.059+140.83Z" opacity="1" fill="#ff0000"/>
<path d="M789.759+290.23C777.759+290.23+767.809+286.53+759.909+279.13C752.009+271.73+747.959+261.43+747.759+248.23L747.759+166.03L721.959+166.03L721.959+140.83L747.759+140.83L747.759+95.8301L775.359+95.8301L775.359+140.83L811.359+140.83L811.359+166.03L775.359+166.03L775.359+239.23C775.359+249.03+777.259+255.68+781.059+259.18C784.859+262.68+789.159+264.43+793.959+264.43C796.159+264.43+798.309+264.18+800.409+263.68C802.509+263.18+804.459+262.53+806.259+261.73L814.959+286.33C807.759+288.93+799.359+290.23+789.759+290.23Z" opacity="1" fill="#ff0000"/>
<path d="M953.259+247.03C953.259+259.83+947.659+270.63+936.459+279.43C925.259+288.23+911.159+292.63+894.159+292.63C879.359+292.63+866.359+288.78+855.159+281.08C843.959+273.38+835.959+263.23+831.159+250.63L855.759+240.13C859.359+248.93+864.609+255.78+871.509+260.68C878.409+265.58+885.959+268.03+894.159+268.03C902.959+268.03+910.309+266.13+916.209+262.33C922.109+258.53+925.059+254.03+925.059+248.83C925.059+239.43+917.859+232.53+903.459+228.13L878.259+221.83C849.659+214.63+835.359+200.83+835.359+180.43C835.359+167.03+840.809+156.28+851.709+148.18C862.609+140.08+876.559+136.03+893.559+136.03C906.559+136.03+918.309+139.13+928.809+145.33C939.309+151.53+946.659+159.83+950.859+170.23L926.259+180.43C923.459+174.23+918.909+169.38+912.609+165.88C906.309+162.38+899.259+160.63+891.459+160.63C884.259+160.63+877.809+162.43+872.109+166.03C866.409+169.63+863.559+174.03+863.559+179.23C863.559+187.63+871.459+193.63+887.259+197.23L909.459+202.93C938.659+210.13+953.259+224.83+953.259+247.03Z" opacity="1" fill="#ff0000"/>
</g>
</g>
</svg>
