<?xml version="1.0" encoding="UTF-8" standalone="no"?> <!-- Created with Vectornator Pro for iOS (http://vectornator.io/) --><!DOCTYPE svg PUBLIC "-//W3C//DTD SVG 1.1//EN" "http://www.w3.org/Graphics/SVG/1.1/DTD/svg11.dtd">
<svg height="100%" style="fill-rule:evenodd;clip-rule:evenodd;stroke-linecap:round;stroke-linejoin:round;" xmlns:xlink="http://www.w3.org/1999/xlink" xmlns="http://www.w3.org/2000/svg" xml:space="preserve" width="100%" xmlns:vectornator="http://vectornator.io" version="1.1" viewBox="0 0 1024 1024">
<metadata>
<vectornator:setting key="DisplayWhiteBackground" value="0"/>
<vectornator:setting key="RulersVisible" value="1"/>
<vectornator:setting key="SnapToEdges" value="0"/>
<vectornator:setting key="Units" value="Pixels"/>
<vectornator:setting key="DynamicGuides" value="0"/>
<vectornator:setting key="SnapToPoints" value="0"/>
<vectornator:setting key="CMYKEnabledKey" value="0"/>
<vectornator:setting key="SnapToGrid" value="0"/>
<vectornator:setting key="ShowGrid" value="1"/>
<vectornator:setting key="GridSpacing" value="36"/>
</metadata>
<defs/>
<g id="Layer 1" vectornator:layerName="Layer 1">
<path d="M-151.994-95.2081L1523.94-95.2081L1523.94+1370.72L-151.994+1370.72L-151.994-95.2081Z" opacity="1" fill="#000000"/>
</g>
<g id="Layer 2" vectornator:layerName="Layer 2">
<g opacity="1">
<path d="M162.365+97.2027L162.365+130.553L151.785+130.553L151.785+48.2127L179.845+48.2127C186.975+48.2127+193.031+50.5894+198.015+55.3427C203.075+60.0961+205.605+65.8844+205.605+72.7077C205.605+79.6844+203.075+85.5111+198.015+90.1877C193.108+94.8644+187.051+97.2027+179.845+97.2027L162.365+97.2027ZM162.365+58.3327L162.365+87.0827L180.075+87.0827C184.291+87.0827+187.78+85.6644+190.54+82.8277C193.376+79.9911+194.795+76.6177+194.795+72.7077C194.795+68.8744+193.376+65.5394+190.54+62.7027C187.78+59.7894+184.291+58.3327+180.075+58.3327L162.365+58.3327Z" opacity="1" fill="#ffffff"/>
<path d="M220.21+113.303C220.21+116.063+221.379+118.363+223.717+120.203C226.056+122.043+228.796+122.963+231.94+122.963C236.386+122.963+240.354+121.314+243.842+118.018C247.331+114.721+249.075+110.849+249.075+106.403C245.778+103.796+241.178+102.493+235.275+102.493C230.981+102.493+227.397+103.528+224.522+105.598C221.647+107.668+220.21+110.236+220.21+113.303ZM233.895+72.3627C241.715+72.3627+247.886+74.4519+252.41+78.6302C256.933+82.8086+259.195+88.5394+259.195+95.8227L259.195+130.553L249.075+130.553L249.075+122.733L248.615+122.733C244.245+129.173+238.418+132.393+231.135+132.393C224.925+132.393+219.731+130.553+215.552+126.873C211.374+123.193+209.285+118.593+209.285+113.073C209.285+107.246+211.489+102.608+215.897+99.1577C220.306+95.7077+226.19+93.9827+233.55+93.9827C239.836+93.9827+245.011+95.1327+249.075+97.4327L249.075+95.0177C249.075+91.3377+247.618+88.2136+244.705+85.6452C241.791+83.0769+238.38+81.7927+234.47+81.7927C228.566+81.7927+223.89+84.2844+220.44+89.2677L211.125+83.4027C216.261+76.0427+223.851+72.3627+233.895+72.3627Z" opacity="1" fill="#ffffff"/>
<path d="M313.705+114.913C313.705+119.819+311.558+123.959+307.265+127.333C302.971+130.706+297.566+132.393+291.05+132.393C285.376+132.393+280.393+130.917+276.1+127.965C271.806+125.014+268.74+121.123+266.9+116.293L276.33+112.268C277.71+115.641+279.722+118.267+282.367+120.145C285.012+122.024+287.906+122.963+291.05+122.963C294.423+122.963+297.241+122.234+299.502+120.778C301.764+119.321+302.895+117.596+302.895+115.603C302.895+111.999+300.135+109.354+294.615+107.668L284.955+105.253C273.991+102.493+268.51+97.2027+268.51+89.3827C268.51+84.2461+270.599+80.1252+274.777+77.0202C278.956+73.9152+284.303+72.3627+290.82+72.3627C295.803+72.3627+300.307+73.5511+304.332+75.9277C308.357+78.3044+311.175+81.4861+312.785+85.4727L303.355+89.3827C302.281+87.0061+300.537+85.1469+298.122+83.8052C295.707+82.4636+293.005+81.7927+290.015+81.7927C287.255+81.7927+284.782+82.4827+282.597+83.8627C280.412+85.2427+279.32+86.9294+279.32+88.9227C279.32+92.1427+282.348+94.4427+288.405+95.8227L296.915+98.0077C308.108+100.768+313.705+106.403+313.705+114.913Z" opacity="1" fill="#ffffff"/>
<path d="M366.03+114.913C366.03+119.819+363.883+123.959+359.59+127.333C355.296+130.706+349.891+132.393+343.375+132.393C337.701+132.393+332.718+130.917+328.425+127.965C324.131+125.014+321.065+121.123+319.225+116.293L328.655+112.268C330.035+115.641+332.047+118.267+334.692+120.145C337.337+122.024+340.231+122.963+343.375+122.963C346.748+122.963+349.566+122.234+351.827+120.778C354.089+119.321+355.22+117.596+355.22+115.603C355.22+111.999+352.46+109.354+346.94+107.668L337.28+105.253C326.316+102.493+320.835+97.2027+320.835+89.3827C320.835+84.2461+322.924+80.1252+327.102+77.0202C331.281+73.9152+336.628+72.3627+343.145+72.3627C348.128+72.3627+352.632+73.5511+356.657+75.9277C360.682+78.3044+363.5+81.4861+365.11+85.4727L355.68+89.3827C354.606+87.0061+352.862+85.1469+350.447+83.8052C348.032+82.4636+345.33+81.7927+342.34+81.7927C339.58+81.7927+337.107+82.4827+334.922+83.8627C332.737+85.2427+331.645+86.9294+331.645+88.9227C331.645+92.1427+334.673+94.4427+340.73+95.8227L349.24+98.0077C360.433+100.768+366.03+106.403+366.03+114.913Z" opacity="1" fill="#ffffff"/>
<path d="M401.565+132.393C393.208+132.393+386.27+129.556+380.75+123.883C375.306+118.056+372.585+110.888+372.585+102.378C372.585+93.7144+375.306+86.5461+380.75+80.8727C386.27+75.1994+393.208+72.3627+401.565+72.3627C407.315+72.3627+412.336+73.8002+416.63+76.6752C420.923+79.5502+424.143+83.5177+426.29+88.5777L416.63+92.6027C413.64+85.5494+408.388+82.0227+400.875+82.0227C396.045+82.0227+391.866+83.9777+388.34+87.8877C384.89+91.7977+383.165+96.6277+383.165+102.378C383.165+108.128+384.89+112.958+388.34+116.868C391.866+120.778+396.045+122.733+400.875+122.733C408.618+122.733+414.061+119.206+417.205+112.153L426.635+116.178C424.565+121.238+421.326+125.205+416.917+128.08C412.509+130.955+407.391+132.393+401.565+132.393Z" opacity="1" fill="#ffffff"/>
<path d="M432.04+102.378C432.04+93.7144+434.761+86.5461+440.205+80.8727C445.725+75.1994+452.663+72.3627+461.02+72.3627C469.376+72.3627+476.276+75.1994+481.72+80.8727C487.24+86.5461+490+93.7144+490+102.378C490+111.118+487.24+118.286+481.72+123.883C476.276+129.556+469.376+132.393+461.02+132.393C452.663+132.393+445.725+129.556+440.205+123.883C434.761+118.209+432.04+111.041+432.04+102.378ZM442.62+102.378C442.62+108.434+444.383+113.341+447.91+117.098C451.436+120.854+455.806+122.733+461.02+122.733C466.233+122.733+470.603+120.854+474.13+117.098C477.656+113.341+479.42+108.434+479.42+102.378C479.42+96.3977+477.656+91.5294+474.13+87.7727C470.526+83.9394+466.156+82.0227+461.02+82.0227C455.883+82.0227+451.513+83.9394+447.91+87.7727C444.383+91.5294+442.62+96.3977+442.62+102.378Z" opacity="1" fill="#ffffff"/>
<path d="M524.96+122.733C530.173+122.733+534.428+120.854+537.725+117.098C541.175+113.341+542.9+108.434+542.9+102.378C542.9+96.4744+541.175+91.6061+537.725+87.7727C534.351+83.9394+530.096+82.0227+524.96+82.0227C519.9+82.0227+515.645+83.9394+512.195+87.7727C508.745+91.6061+507.02+96.4744+507.02+102.378C507.02+108.358+508.745+113.226+512.195+116.983C515.645+120.816+519.9+122.733+524.96+122.733ZM523.235+132.393C515.875+132.393+509.55+129.479+504.26+123.653C499.046+117.749+496.44+110.658+496.44+102.378C496.44+94.0977+499.046+87.0061+504.26+81.1027C509.55+75.2761+515.875+72.3627+523.235+72.3627C527.375+72.3627+531.151+73.2444+534.562+75.0077C537.974+76.7711+540.6+79.1094+542.44+82.0227L542.9+82.0227L542.44+74.2027L542.44+48.2127L553.02+48.2127L553.02+130.553L542.9+130.553L542.9+122.733L542.44+122.733C540.6+125.646+537.974+127.984+534.562+129.748C531.151+131.511+527.375+132.393+523.235+132.393Z" opacity="1" fill="#ffffff"/>
<path d="M590.625+132.393C582.345+132.393+575.521+129.556+570.155+123.883C564.788+118.209+562.105+111.041+562.105+102.378C562.105+93.7911+564.711+86.6419+569.925+80.9302C575.138+75.2186+581.808+72.3627+589.935+72.3627C598.291+72.3627+604.942+75.0652+609.887+80.4702C614.832+85.8752+617.305+93.4461+617.305+103.183L617.19+104.333L572.915+104.333C573.068+109.853+574.908+114.299+578.435+117.673C581.961+121.046+586.178+122.733+591.085+122.733C597.831+122.733+603.121+119.359+606.955+112.613L616.385+117.213C613.855+121.966+610.347+125.684+605.862+128.368C601.377+131.051+596.298+132.393+590.625+132.393ZM573.72+95.5927L606.035+95.5927C605.728+91.6827+604.137+88.4436+601.262+85.8752C598.387+83.3069+594.535+82.0227+589.705+82.0227C585.718+82.0227+582.287+83.2494+579.412+85.7027C576.537+88.1561+574.64+91.4527+573.72+95.5927Z" opacity="1" fill="#ffffff"/>
<path d="M700.335+130.553L654.105+130.553L654.105+48.2127L664.685+48.2127L664.685+120.433L700.335+120.433L700.335+130.553Z" opacity="1" fill="#ffffff"/>
<path d="M706.315+102.378C706.315+93.7144+709.036+86.5461+714.48+80.8727C720+75.1994+726.938+72.3627+735.295+72.3627C743.651+72.3627+750.551+75.1994+755.995+80.8727C761.515+86.5461+764.275+93.7144+764.275+102.378C764.275+111.118+761.515+118.286+755.995+123.883C750.551+129.556+743.651+132.393+735.295+132.393C726.938+132.393+720+129.556+714.48+123.883C709.036+118.209+706.315+111.041+706.315+102.378ZM716.895+102.378C716.895+108.434+718.658+113.341+722.185+117.098C725.711+120.854+730.081+122.733+735.295+122.733C740.508+122.733+744.878+120.854+748.405+117.098C751.931+113.341+753.695+108.434+753.695+102.378C753.695+96.3977+751.931+91.5294+748.405+87.7727C744.801+83.9394+740.431+82.0227+735.295+82.0227C730.158+82.0227+725.788+83.9394+722.185+87.7727C718.658+91.5294+716.895+96.3977+716.895+102.378Z" opacity="1" fill="#ffffff"/>
<path d="M799.695+132.393C791.338+132.393+784.4+129.556+778.88+123.883C773.436+118.056+770.715+110.888+770.715+102.378C770.715+93.7144+773.436+86.5461+778.88+80.8727C784.4+75.1994+791.338+72.3627+799.695+72.3627C805.445+72.3627+810.466+73.8002+814.76+76.6752C819.053+79.5502+822.273+83.5177+824.42+88.5777L814.76+92.6027C811.77+85.5494+806.518+82.0227+799.005+82.0227C794.175+82.0227+789.996+83.9777+786.47+87.8877C783.02+91.7977+781.295+96.6277+781.295+102.378C781.295+108.128+783.02+112.958+786.47+116.868C789.996+120.778+794.175+122.733+799.005+122.733C806.748+122.733+812.191+119.206+815.335+112.153L824.765+116.178C822.695+121.238+819.456+125.205+815.047+128.08C810.639+130.955+805.521+132.393+799.695+132.393Z" opacity="1" fill="#ffffff"/>
<path d="M883.53+130.553L870.765+130.553L853.17+103.988L844.545+112.498L844.545+130.553L833.965+130.553L833.965+48.2127L844.545+48.2127L844.545+98.9277L868.925+74.2027L882.495+74.2027L882.495+74.6627L860.53+96.5127L883.53+130.093L883.53+130.553Z" opacity="1" fill="#ffffff"/>
</g>
<path d="M697.194+260.757L933.449+260.757L933.449+389.066L697.194+389.066L697.194+260.757Z" opacity="1" fill="#ffe700"/>
<path d="M401.504+259.757L637.758+259.757L637.758+388.066L401.504+388.066L401.504+259.757Z" opacity="1" fill="#ff7800"/>
<path d="M105.449+259.757L341.703+259.757L341.703+388.067L105.449+388.067L105.449+259.757Z" opacity="1" fill="#ff0c00"/>
<path d="M697.194+454.757L933.449+454.757L933.449+583.066L697.194+583.066L697.194+454.757Z" opacity="1" fill="#5500ff"/>
<path d="M401.504+453.757L637.758+453.757L637.758+582.066L401.504+582.066L401.504+453.757Z" opacity="1" fill="#0d00ff"/>
<path d="M105.449+453.757L341.703+453.757L341.703+582.067L105.449+582.067L105.449+453.757Z" opacity="1" fill="#52ff00"/>
<path d="M697.194+645.757L933.449+645.757L933.449+774.066L697.194+774.066L697.194+645.757Z" opacity="1" fill="#00fffb"/>
<path d="M401.504+644.757L637.758+644.757L637.758+773.066L401.504+773.066L401.504+644.757Z" opacity="1" fill="#ff00db"/>
<path d="M105.45+644.76L341.704+644.76L341.704+773.07L105.45+773.07L105.45+644.76Z" opacity="1" fill="#af00ff"/>
<path d="M697.194+830.757L933.449+830.757L933.449+959.066L697.194+959.066L697.194+830.757Z" opacity="1" fill="#e500ff"/>
<path d="M401.504+829.757L637.758+829.757L637.758+958.066L401.504+958.066L401.504+829.757Z" opacity="1" fill="#ff6c64"/>
<path d="M105.449+829.757L341.703+829.757L341.703+958.067L105.449+958.067L105.449+829.757Z" opacity="1" fill="#508de2"/>
</g>
</svg>
