<?xml version="1.0" encoding="UTF-8" standalone="no"?> <!-- Created with Vectornator for iOS (http://vectornator.io/) --><!DOCTYPE svg PUBLIC "-//W3C//DTD SVG 1.1//EN" "http://www.w3.org/Graphics/SVG/1.1/DTD/svg11.dtd">
<svg style="fill-rule:evenodd;clip-rule:evenodd;stroke-linecap:round;stroke-linejoin:round;" xmlns:vectornator="http://vectornator.io" xmlns:xlink="http://www.w3.org/1999/xlink" xmlns="http://www.w3.org/2000/svg" xml:space="preserve" version="1.1" viewBox="0 0 1024 1024">
<metadata>
<vectornator:setting key="DisplayWhiteBackground" value="0"/>
<vectornator:setting key="RulersVisible" value="1"/>
<vectornator:setting key="GridSpacing" value="60"/>
<vectornator:setting key="Units" value="Pixels"/>
<vectornator:setting key="DynamicGuides" value="0"/>
<vectornator:setting key="SnapToPoints" value="0"/>
<vectornator:setting key="CMYKEnabledKey" value="0"/>
<vectornator:setting key="SnapToGrid" value="0"/>
<vectornator:setting key="SnapToGuides" value="1"/>
<vectornator:setting key="ShowGrid" value="1"/>
<vectornator:setting key="SnapToEdges" value="0"/>
</metadata>
<defs>
<radialGradient cx="512" r="512" id="RadialGradient" gradientUnits="userSpaceOnUse" gradientTransform="matrix(1 0 0 1 0 0)" cy="512">
<stop stop-color="#ff9600" offset="0"/>
<stop stop-color="#ff4700" offset="0.551308"/>
<stop stop-color="#ff8100" offset="1"/>
</radialGradient>
</defs>
<g id="Layer 1" vectornator:layerName="Layer 1">
<path d="M80+0L944+0C988.183+0+1024+35.8172+1024+80L1024+944C1024+988.183+988.183+1024+944+1024L80+1024C35.8172+1024+0+988.183+0+944L0+80C0+35.8172+35.8172+0+80+0Z" opacity="1" fill="url(#RadialGradient)"/>
<g opacity="1">
<path d="M509.739+234.279L512.243+234.279C661.666+234.279+782.797+355.855+782.797+505.826L782.797+508.339C782.797+658.31+661.666+779.886+512.243+779.886L509.739+779.886C360.316+779.886+239.184+658.31+239.184+508.339L239.184+505.826C239.184+355.855+360.316+234.279+509.739+234.279Z" opacity="1" fill="#ffdfb1"/>
<g opacity="1">
<path d="M510.472+84.5L510.472+84.5C524.768+84.5+536.358+98.0709+536.358+114.811L536.358+315.733C536.358+332.474+524.768+346.045+510.472+346.045L510.472+346.045C496.175+346.045+484.585+332.474+484.585+315.733L484.585+114.811C484.585+98.0709+496.175+84.5+510.472+84.5Z" opacity="1" fill="#ffdfb1"/>
<path d="M510.901+672.955L510.901+672.955C525.197+672.955+536.787+686.526+536.787+703.267L536.787+904.189C536.787+920.929+525.197+934.5+510.901+934.5L510.901+934.5C496.604+934.5+485.014+920.929+485.014+904.189L485.014+703.267C485.014+686.526+496.604+672.955+510.901+672.955Z" opacity="1" fill="#ffdfb1"/>
<path d="M345.089+506.662L345.089+506.662C345.089+521.011+331.568+532.643+314.888+532.643L114.701+532.643C98.0213+532.643+84.5+521.011+84.5+506.662L84.5+506.662C84.5+492.313+98.0213+480.681+114.701+480.681L314.888+480.681C331.568+480.681+345.089+492.313+345.089+506.662Z" opacity="1" fill="#ffdfb1"/>
<path d="M934.5+507.346L934.5+507.346C934.5+521.695+920.979+533.327+904.299+533.327L704.112+533.327C687.432+533.327+673.911+521.695+673.911+507.346L673.911+507.346C673.911+492.997+687.432+481.364+704.112+481.364L904.299+481.364C920.979+481.364+934.5+492.997+934.5+507.346Z" opacity="1" fill="#ffdfb1"/>
</g>
<g opacity="1">
<path d="M809.432+208.345L809.432+208.345C819.541+218.491+818.175+236.313+806.381+248.15L664.827+390.223C653.033+402.061+635.277+403.432+625.168+393.285L625.168+393.285C615.058+383.139+616.424+365.318+628.218+353.48L769.772+211.407C781.567+199.57+799.323+198.199+809.432+208.345Z" opacity="1" fill="#ffdfb1"/>
<path d="M395.155+624.75L395.155+624.75C405.265+634.896+403.899+652.718+392.105+664.555L250.551+806.628C238.757+818.466+221+819.836+210.891+809.69L210.891+809.69C200.782+799.544+202.148+781.723+213.942+769.885L355.496+627.812C367.29+615.975+385.046+614.604+395.155+624.75Z" opacity="1" fill="#ffdfb1"/>
<path d="M395.066+389.486L395.066+389.486C384.957+399.633+367.201+398.262+355.407+386.424L213.853+244.351C202.059+232.514+200.693+214.692+210.802+204.546L210.802+204.546C220.911+194.4+238.668+195.771+250.462+207.608L392.016+349.681C403.81+361.519+405.175+379.34+395.066+389.486Z" opacity="1" fill="#ffdfb1"/>
<path d="M811.361+808.276L811.361+808.276C801.252+818.422+783.496+817.051+771.701+805.214L630.148+663.14C618.353+651.303+616.988+633.482+627.097+623.335L627.097+623.335C637.206+613.189+654.962+614.56+666.756+626.397L808.31+768.47C820.104+780.308+821.47+798.129+811.361+808.276Z" opacity="1" fill="#ffdfb1"/>
</g>
<g opacity="1">
<path d="M671.193+113.327L671.193+113.327C684.402+118.818+689.935+135.807+683.552+151.274L606.943+336.901C600.561+352.368+584.679+360.454+571.47+354.963L571.47+354.963C558.262+349.472+552.729+332.482+559.112+317.016L635.72+131.388C642.103+115.922+657.985+107.836+671.193+113.327Z" opacity="1" fill="#ffdfb1"/>
<path d="M447.221+657.153L447.221+657.153C460.429+662.644+465.962+679.634+459.579+695.1L382.971+880.728C376.588+896.194+360.706+904.28+347.498+898.789L347.498+898.789C334.289+893.298+328.756+876.309+335.139+860.842L411.747+675.215C418.13+659.748+434.012+651.662+447.221+657.153Z" opacity="1" fill="#ffdfb1"/>
<path d="M357.436+439.832L357.436+439.832C351.965+453.089+335.037+458.642+319.628+452.236L134.679+375.346C119.269+368.94+111.212+353+116.683+339.743L116.683+339.743C122.154+326.486+139.081+320.933+154.491+327.339L339.44+404.229C354.85+410.635+362.907+426.575+357.436+439.832Z" opacity="1" fill="#ffdfb1"/>
<path d="M901.72+666.849L901.72+666.849C896.249+680.106+879.321+685.66+863.912+679.253L678.963+602.364C663.553+595.957+655.496+580.017+660.967+566.76L660.967+566.76C666.438+553.504+683.365+547.95+698.775+554.357L883.724+631.246C899.134+637.652+907.191+653.593+901.72+666.849Z" opacity="1" fill="#ffdfb1"/>
</g>
<g opacity="1">
<path d="M346.953+113.802L346.953+113.802C360.162+108.311+376.044+116.398+382.427+131.864L459.035+317.492C465.418+332.958+459.885+349.947+446.676+355.438L446.676+355.438C433.468+360.93+417.586+352.843+411.203+337.377L334.595+151.749C328.212+136.283+333.745+119.294+346.953+113.802Z" opacity="1" fill="#ffdfb1"/>
<path d="M571.718+657.299L571.718+657.299C584.927+651.808+600.809+659.895+607.192+675.361L683.8+860.989C690.183+876.455+684.65+893.444+671.441+898.935L671.441+898.935C658.233+904.426+642.351+896.34+635.968+880.874L559.36+695.246C552.977+679.78+558.51+662.79+571.718+657.299Z" opacity="1" fill="#ffdfb1"/>
<path d="M355.123+567.351L355.123+567.351C360.595+580.607+352.538+596.547+337.128+602.954L152.179+679.843C136.769+686.25+119.842+680.696+114.371+667.439L114.371+667.439C108.9+654.183+116.956+638.242+132.366+631.836L317.315+554.947C332.725+548.54+349.652+554.094+355.123+567.351Z" opacity="1" fill="#ffdfb1"/>
<path d="M899.929+341.597L899.929+341.597C905.4+354.854+897.343+370.794+881.933+377.2L696.984+454.09C681.575+460.496+664.647+454.943+659.176+441.686L659.176+441.686C653.705+428.429+661.762+412.489+677.172+406.083L862.121+329.193C877.531+322.787+894.458+328.34+899.929+341.597Z" opacity="1" fill="#ffdfb1"/>
</g>
</g>
</g>
</svg>
