<?xml version="1.0" encoding="UTF-8" standalone="no"?> <!-- Created with Vectornator for iOS (http://vectornator.io/) --><!DOCTYPE svg PUBLIC "-//W3C//DTD SVG 1.1//EN" "http://www.w3.org/Graphics/SVG/1.1/DTD/svg11.dtd">
<svg style="fill-rule:evenodd;clip-rule:evenodd;stroke-linecap:round;stroke-linejoin:round;" xmlns:vectornator="http://vectornator.io" xmlns:xlink="http://www.w3.org/1999/xlink" xmlns="http://www.w3.org/2000/svg" xml:space="preserve" version="1.1" viewBox="0 0 1536 1536">
<metadata>
<vectornator:setting key="DisplayWhiteBackground" value="0"/>
<vectornator:setting key="RulersVisible" value="1"/>
<vectornator:setting key="GridSpacing" value="32"/>
<vectornator:setting key="Units" value="Pixels"/>
<vectornator:setting key="DynamicGuides" value="0"/>
<vectornator:setting key="SnapToPoints" value="0"/>
<vectornator:setting key="CMYKEnabledKey" value="0"/>
<vectornator:setting key="SnapToGrid" value="0"/>
<vectornator:setting key="SnapToGuides" value="1"/>
<vectornator:setting key="ShowGrid" value="1"/>
<vectornator:setting key="SnapToEdges" value="0"/>
</metadata>
<defs/>
<g id="Background" vectornator:layerName="Background">
<path d="M75+0L1461+0C1502.42+0+1536+33.5786+1536+75L1536+1461C1536+1502.42+1502.42+1536+1461+1536L75+1536C33.5786+1536+0+1502.42+0+1461L0+75C0+33.5786+33.5786+0+75+0Z" opacity="1" fill="#00b1ff"/>
</g>
<g id="Boat" vectornator:layerName="Boat">
<path d="M510.071+1159.4L1027.92+1159.4C1041.54+1159.4+1052.58+1171.37+1052.58+1186.13L1052.58+1186.13C1052.58+1200.9+1041.54+1212.87+1027.92+1212.87L510.071+1212.87C496.452+1212.87+485.412+1200.9+485.412+1186.13L485.412+1186.13C485.412+1171.37+496.452+1159.4+510.071+1159.4Z" opacity="1" fill="#ffffff"/>
<path d="M1009.27+1168.62L1364.87+804.596C1374.22+795.022+1389.97+795.461+1400.05+805.576L1400.05+805.576C1410.13+815.691+1410.72+831.652+1401.37+841.225L1119.3+1129.99L1045.78+1205.25C1036.43+1214.83+1020.67+1214.39+1010.59+1204.27L1010.59+1204.27C1000.51+1194.16+999.92+1178.2+1009.27+1168.62Z" opacity="1" fill="#ffffff"/>
<path d="M528.121+1168.62L172.528+804.594C163.176+795.02+147.423+795.459+137.342+805.574L137.342+805.574C127.261+815.689+126.669+831.65+136.021+841.224L418.098+1129.99L491.614+1205.25C500.966+1214.83+516.72+1214.39+526.801+1204.27L526.801+1204.27C536.882+1194.16+537.473+1178.2+528.121+1168.62Z" opacity="1" fill="#ffffff"/>
<path d="M777.046+902.734L167.842+795.071C151.821+792.24+136.465+803.271+133.545+819.711L133.545+819.711C130.625+836.15+141.246+851.773+157.268+854.604L640.523+940.008L766.471+962.267C782.492+965.098+797.848+954.067+800.768+937.627L800.768+937.627C803.688+921.188+793.067+905.566+777.046+902.734Z" opacity="1" fill="#ffffff"/>
<path d="M762.447+901.591L1371.65+793.928C1387.67+791.097+1403.03+802.128+1405.95+818.568L1405.95+818.568C1408.87+835.007+1398.25+850.629+1382.23+853.461L898.97+938.865L773.022+961.124C757+963.955+741.645+952.924+738.725+936.484L738.725+936.484C735.805+920.045+746.426+904.422+762.447+901.591Z" opacity="1" fill="#ffffff"/>
<path d="M749.056+365.265L350.801+838.671C340.327+851.121+342.187+869.936+354.954+880.696L354.954+880.696C367.722+891.456+386.563+890.086+397.037+877.635L712.956+502.103L795.292+404.23C805.766+391.78+803.906+372.964+791.139+362.204L791.139+362.204C778.371+351.445+759.53+352.815+749.056+365.265Z" opacity="1" fill="#ffffff"/>
<path d="M792.868+365.265L1191.12+838.671C1201.6+851.121+1199.74+869.936+1186.97+880.696L1186.97+880.696C1174.2+891.456+1155.36+890.086+1144.89+877.635L828.969+502.103L746.633+404.23C736.159+391.78+738.019+372.964+750.786+362.204L750.786+362.204C763.554+351.445+782.394+352.815+792.868+365.265Z" opacity="1" fill="#ffffff"/>
</g>
</svg>
