<?xml version="1.0" encoding="UTF-8" standalone="no"?> <!-- Created with Vectornator for iOS (http://vectornator.io/) --><!DOCTYPE svg PUBLIC "-//W3C//DTD SVG 1.1//EN" "http://www.w3.org/Graphics/SVG/1.1/DTD/svg11.dtd">
<svg style="fill-rule:evenodd;clip-rule:evenodd;stroke-linecap:round;stroke-linejoin:round;" xmlns:vectornator="http://vectornator.io" xmlns:xlink="http://www.w3.org/1999/xlink" xmlns="http://www.w3.org/2000/svg" xml:space="preserve" version="1.1" viewBox="0 0 4096 2048">
<metadata>
<vectornator:setting key="DisplayWhiteBackground" value="0"/>
<vectornator:setting key="RulersVisible" value="1"/>
<vectornator:setting key="GridSpacing" value="36"/>
<vectornator:setting key="Units" value="Pixels"/>
<vectornator:setting key="DynamicGuides" value="0"/>
<vectornator:setting key="SnapToPoints" value="0"/>
<vectornator:setting key="CMYKEnabledKey" value="0"/>
<vectornator:setting key="SnapToGrid" value="0"/>
<vectornator:setting key="ShowGrid" value="1"/>
<vectornator:setting key="SnapToEdges" value="0"/>
</metadata>
<defs>
<linearGradient y1="-19.6048" id="LinearGradient" x1="1407.86" y2="1609.9" x2="1418.71" gradientUnits="userSpaceOnUse" gradientTransform="matrix(0.950972 0 0 0.902539 97.3055 96.2712)">
<stop stop-color="#025260" offset="0"/>
<stop stop-opacity="0.95" stop-color="#ff692f" offset="1"/>
</linearGradient>
</defs>
<g id="Layer 1" vectornator:layerName="Layer 1">
<path d="M0+0L4096+0L4096+2048L0+2048L0+0Z" opacity="1" fill="url(#LinearGradient)"/>
<g opacity="1">
<path d="M775.371+887.909C805.771+887.909+820.971+877.509+820.971+856.709C820.971+850.309+819.621+844.859+816.921+840.359C814.221+835.859+810.571+831.959+805.971+828.659C801.371+825.359+796.121+822.509+790.221+820.109C784.321+817.709+778.071+815.309+771.471+812.909C763.871+810.309+756.671+807.359+749.871+804.059C743.071+800.759+737.171+796.859+732.171+792.359C727.171+787.859+723.221+782.509+720.321+776.309C717.421+770.109+715.971+762.609+715.971+753.809C715.971+735.609+722.171+721.409+734.571+711.209C746.971+701.009+764.071+695.909+785.871+695.909C798.471+695.909+809.921+697.259+820.221+699.959C830.521+702.659+838.071+705.609+842.871+708.809L833.571+732.509C829.371+729.909+823.121+727.359+814.821+724.859C806.521+722.359+796.871+721.109+785.871+721.109C780.271+721.109+775.071+721.709+770.271+722.909C765.471+724.109+761.271+725.909+757.671+728.309C754.071+730.709+751.221+733.759+749.121+737.459C747.021+741.159+745.971+745.509+745.971+750.509C745.971+756.109+747.071+760.809+749.271+764.609C751.471+768.409+754.571+771.759+758.571+774.659C762.571+777.559+767.221+780.209+772.521+782.609C777.821+785.009+783.671+787.409+790.071+789.809C799.071+793.409+807.321+797.009+814.821+800.609C822.321+804.209+828.821+808.509+834.321+813.509C839.821+818.509+844.071+824.459+847.071+831.359C850.071+838.259+851.571+846.609+851.571+856.409C851.571+874.609+844.921+888.609+831.621+898.409C818.321+908.209+799.571+913.109+775.371+913.109C767.171+913.109+759.621+912.559+752.721+911.459C745.821+910.359+739.671+909.059+734.271+907.559C728.871+906.059+724.221+904.459+720.321+902.759C716.421+901.059+713.371+899.609+711.171+898.409L719.871+874.409C724.471+877.009+731.471+879.909+740.871+883.109C750.271+886.309+761.771+887.909+775.371+887.909Z" opacity="1" fill="#ffffff"/>
<path d="M1040.57+700.709C1034.37+707.509+1027.37+715.059+1019.57+723.359C1011.77+731.659+1003.62+740.159+995.121+748.859C986.621+757.559+978.171+766.109+969.771+774.509C961.371+782.909+953.471+790.709+946.071+797.909C954.671+803.909+963.771+811.309+973.371+820.109C982.971+828.909+992.371+838.309+1001.57+848.309C1010.77+858.309+1019.42+868.509+1027.52+878.909C1035.62+889.309+1042.37+899.209+1047.77+908.609L1013.57+908.609C1007.57+899.209+1000.67+889.759+992.871+880.259C985.071+870.759+976.821+861.659+968.121+852.959C959.421+844.259+950.621+836.209+941.721+828.809C932.821+821.409+924.171+815.109+915.771+809.909L915.771+908.609L886.671+908.609L886.671+700.709L915.771+700.709L915.771+792.509C922.771+785.909+930.471+778.459+938.871+770.159C947.271+761.859+955.571+753.509+963.771+745.109C971.971+736.709+979.721+728.659+987.021+720.959C994.321+713.259+1000.47+706.509+1005.47+700.709L1040.57+700.709Z" opacity="1" fill="#ffffff"/>
<path d="M1131.47+908.609L1131.47+825.209C1117.67+803.809+1104.67+782.709+1092.47+761.909C1080.27+741.109+1068.77+720.709+1057.97+700.709L1092.17+700.709C1099.77+717.109+1108.27+733.759+1117.67+750.659C1127.07+767.559+1136.77+783.809+1146.77+799.409C1156.57+783.809+1166.17+767.559+1175.57+750.659C1184.97+733.759+1193.57+717.109+1201.37+700.709L1233.77+700.709C1222.97+720.709+1211.47+741.059+1199.27+761.759C1187.07+782.459+1174.17+803.409+1160.57+824.609L1160.57+908.609L1131.47+908.609Z" opacity="1" fill="#ffffff"/>
<path d="M1386.47+883.409L1386.47+908.609L1261.37+908.609L1261.37+700.709L1290.47+700.709L1290.47+883.409L1386.47+883.409Z" opacity="1" fill="#ffffff"/>
<path d="M1564.37+908.609C1560.97+899.609+1557.77+890.759+1554.77+882.059C1551.77+873.359+1548.67+864.509+1545.47+855.509L1451.27+855.509L1432.37+908.609L1402.07+908.609C1410.07+886.609+1417.57+866.259+1424.57+847.559C1431.57+828.859+1438.42+811.109+1445.12+794.309C1451.82+777.509+1458.47+761.459+1465.07+746.159C1471.67+730.859+1478.57+715.709+1485.77+700.709L1512.47+700.709C1519.67+715.709+1526.57+730.859+1533.17+746.159C1539.77+761.459+1546.42+777.509+1553.12+794.309C1559.82+811.109+1566.67+828.859+1573.67+847.559C1580.67+866.259+1588.17+886.609+1596.17+908.609L1564.37+908.609ZM1537.07+831.509C1530.67+814.109+1524.32+797.259+1518.02+780.959C1511.72+764.659+1505.17+749.009+1498.37+734.009C1491.37+749.009+1484.72+764.659+1478.42+780.959C1472.12+797.259+1465.87+814.109+1459.67+831.509L1537.07+831.509Z" opacity="1" fill="#ffffff"/>
<path d="M1726.07+821.609C1729.27+825.609+1733.32+830.859+1738.22+837.359C1743.12+843.859+1748.17+851.059+1753.37+858.959C1758.57+866.859+1763.72+875.109+1768.82+883.709C1773.92+892.309+1778.27+900.609+1781.87+908.609L1750.07+908.609C1746.07+901.009+1741.72+893.309+1737.02+885.509C1732.32+877.709+1727.57+870.259+1722.77+863.159C1717.97+856.059+1713.22+849.409+1708.52+843.209C1703.82+837.009+1699.57+831.609+1695.77+827.009C1693.17+827.209+1690.52+827.309+1687.82+827.309C1685.12+827.309+1682.37+827.309+1679.57+827.309L1653.47+827.309L1653.47+908.609L1624.37+908.609L1624.37+703.709C1632.57+701.709+1641.72+700.359+1651.82+699.659C1661.92+698.959+1671.17+698.609+1679.57+698.609C1708.77+698.609+1731.02+704.109+1746.32+715.109C1761.62+726.109+1769.27+742.509+1769.27+764.309C1769.27+778.109+1765.62+789.909+1758.32+799.709C1751.02+809.509+1740.27+816.809+1726.07+821.609ZM1681.97+724.109C1669.57+724.109+1660.07+724.409+1653.47+725.009L1653.47+803.309L1674.17+803.309C1684.17+803.309+1693.17+802.809+1701.17+801.809C1709.17+800.809+1715.92+798.909+1721.42+796.109C1726.92+793.309+1731.17+789.359+1734.17+784.259C1737.17+779.159+1738.67+772.409+1738.67+764.009C1738.67+756.209+1737.17+749.709+1734.17+744.509C1731.17+739.309+1727.12+735.209+1722.02+732.209C1716.92+729.209+1710.92+727.109+1704.02+725.909C1697.12+724.709+1689.77+724.109+1681.97+724.109Z" opacity="1" fill="#ffffff"/>
<path d="M1975.67+879.809C1973.67+875.009+1971.02+868.909+1967.72+861.509C1964.42+854.109+1960.87+846.109+1957.07+837.509C1953.27+828.909+1949.22+820.059+1944.92+810.959C1940.62+801.859+1936.57+793.259+1932.77+785.159C1928.97+777.059+1925.42+769.809+1922.12+763.409C1918.82+757.009+1916.17+752.109+1914.17+748.709C1911.97+772.309+1910.17+797.859+1908.77+825.359C1907.37+852.859+1906.17+880.609+1905.17+908.609L1876.67+908.609C1877.47+890.609+1878.37+872.459+1879.37+854.159C1880.37+835.859+1881.52+817.859+1882.82+800.159C1884.12+782.459+1885.52+765.209+1887.02+748.409C1888.52+731.609+1890.17+715.709+1891.97+700.709L1917.47+700.709C1922.87+709.509+1928.67+719.909+1934.87+731.909C1941.07+743.909+1947.27+756.459+1953.47+769.559C1959.67+782.659+1965.67+795.759+1971.47+808.859C1977.27+821.959+1982.57+833.909+1987.37+844.709C1992.17+833.909+1997.47+821.959+2003.27+808.859C2009.07+795.759+2015.07+782.659+2021.27+769.559C2027.47+756.459+2033.67+743.909+2039.87+731.909C2046.07+719.909+2051.87+709.509+2057.27+700.709L2082.77+700.709C2089.57+767.709+2094.67+837.009+2098.07+908.609L2069.57+908.609C2068.57+880.609+2067.37+852.859+2065.97+825.359C2064.57+797.859+2062.77+772.309+2060.57+748.709C2058.57+752.109+2055.92+757.009+2052.62+763.409C2049.32+769.809+2045.77+777.059+2041.97+785.159C2038.17+793.259+2034.12+801.859+2029.82+810.959C2025.52+820.059+2021.47+828.909+2017.67+837.509C2013.87+846.109+2010.32+854.109+2007.02+861.509C2003.72+868.909+2001.07+875.009+1999.07+879.809L1975.67+879.809Z" opacity="1" fill="#ffffff"/>
<path d="M2233.07+913.109C2218.47+913.109+2205.17+910.709+2193.17+905.909C2181.17+901.109+2170.87+894.109+2162.27+884.909C2153.67+875.709+2147.02+864.359+2142.32+850.859C2137.62+837.359+2135.27+821.909+2135.27+804.509C2135.27+787.109+2137.92+771.659+2143.22+758.159C2148.52+744.659+2155.67+733.309+2164.67+724.109C2173.67+714.909+2184.17+707.909+2196.17+703.109C2208.17+698.309+2220.97+695.909+2234.57+695.909C2243.17+695.909+2250.92+696.509+2257.82+697.709C2264.72+698.909+2270.72+700.309+2275.82+701.909C2280.92+703.509+2285.07+705.109+2288.27+706.709C2291.47+708.309+2293.67+709.509+2294.87+710.309L2286.47+734.309C2284.67+733.109+2282.07+731.809+2278.67+730.409C2275.27+729.009+2271.42+727.609+2267.12+726.209C2262.82+724.809+2258.12+723.659+2253.02+722.759C2247.92+721.859+2242.77+721.409+2237.57+721.409C2226.57+721.409+2216.67+723.309+2207.87+727.109C2199.07+730.909+2191.57+736.409+2185.37+743.609C2179.17+750.809+2174.42+759.559+2171.12+769.859C2167.82+780.159+2166.17+791.709+2166.17+804.509C2166.17+816.909+2167.62+828.209+2170.52+838.409C2173.42+848.609+2177.77+857.359+2183.57+864.659C2189.37+871.959+2196.62+877.609+2205.32+881.609C2214.02+885.609+2224.17+887.609+2235.77+887.609C2249.17+887.609+2260.27+886.209+2269.07+883.409C2277.87+880.609+2284.47+878.109+2288.87+875.909L2296.37+899.909C2294.97+900.909+2292.47+902.159+2288.87+903.659C2285.27+905.159+2280.77+906.609+2275.37+908.009C2269.97+909.409+2263.67+910.609+2256.47+911.609C2249.27+912.609+2241.47+913.109+2233.07+913.109Z" opacity="1" fill="#ffffff"/>
<path d="M2413.07+913.109C2398.47+913.109+2385.17+910.709+2373.17+905.909C2361.17+901.109+2350.87+894.109+2342.27+884.909C2333.67+875.709+2327.02+864.359+2322.32+850.859C2317.62+837.359+2315.27+821.909+2315.27+804.509C2315.27+787.109+2317.92+771.659+2323.22+758.159C2328.52+744.659+2335.67+733.309+2344.67+724.109C2353.67+714.909+2364.17+707.909+2376.17+703.109C2388.17+698.309+2400.97+695.909+2414.57+695.909C2423.17+695.909+2430.92+696.509+2437.82+697.709C2444.72+698.909+2450.72+700.309+2455.82+701.909C2460.92+703.509+2465.07+705.109+2468.27+706.709C2471.47+708.309+2473.67+709.509+2474.87+710.309L2466.47+734.309C2464.67+733.109+2462.07+731.809+2458.67+730.409C2455.27+729.009+2451.42+727.609+2447.12+726.209C2442.82+724.809+2438.12+723.659+2433.02+722.759C2427.92+721.859+2422.77+721.409+2417.57+721.409C2406.57+721.409+2396.67+723.309+2387.87+727.109C2379.07+730.909+2371.57+736.409+2365.37+743.609C2359.17+750.809+2354.42+759.559+2351.12+769.859C2347.82+780.159+2346.17+791.709+2346.17+804.509C2346.17+816.909+2347.62+828.209+2350.52+838.409C2353.42+848.609+2357.77+857.359+2363.57+864.659C2369.37+871.959+2376.62+877.609+2385.32+881.609C2394.02+885.609+2404.17+887.609+2415.77+887.609C2429.17+887.609+2440.27+886.209+2449.07+883.409C2457.87+880.609+2464.47+878.109+2468.87+875.909L2476.37+899.909C2474.97+900.909+2472.47+902.159+2468.87+903.659C2465.27+905.159+2460.77+906.609+2455.37+908.009C2449.97+909.409+2443.67+910.609+2436.47+911.609C2429.27+912.609+2421.47+913.109+2413.07+913.109Z" opacity="1" fill="#ffffff"/>
<path d="M2655.17+908.609C2651.77+899.609+2648.57+890.759+2645.57+882.059C2642.57+873.359+2639.47+864.509+2636.27+855.509L2542.07+855.509L2523.17+908.609L2492.87+908.609C2500.87+886.609+2508.37+866.259+2515.37+847.559C2522.37+828.859+2529.22+811.109+2535.92+794.309C2542.62+777.509+2549.27+761.459+2555.87+746.159C2562.47+730.859+2569.37+715.709+2576.57+700.709L2603.27+700.709C2610.47+715.709+2617.37+730.859+2623.97+746.159C2630.57+761.459+2637.22+777.509+2643.92+794.309C2650.62+811.109+2657.47+828.859+2664.47+847.559C2671.47+866.259+2678.97+886.609+2686.97+908.609L2655.17+908.609ZM2627.87+831.509C2621.47+814.109+2615.12+797.259+2608.82+780.959C2602.52+764.659+2595.97+749.009+2589.17+734.009C2582.17+749.009+2575.52+764.659+2569.22+780.959C2562.92+797.259+2556.67+814.109+2550.47+831.509L2627.87+831.509Z" opacity="1" fill="#ffffff"/>
<path d="M2789.57+913.109C2775.97+913.109+2764.17+911.009+2754.17+906.809C2744.17+902.609+2735.97+896.859+2729.57+889.559C2723.17+882.259+2718.42+873.609+2715.32+863.609C2712.22+853.609+2710.67+842.809+2710.67+831.209L2710.67+700.709L2739.77+700.709L2739.77+827.909C2739.77+848.709+2744.37+863.809+2753.57+873.209C2762.77+882.609+2774.77+887.309+2789.57+887.309C2796.97+887.309+2803.72+886.159+2809.82+883.859C2815.92+881.559+2821.17+878.009+2825.57+873.209C2829.97+868.409+2833.37+862.259+2835.77+854.759C2838.17+847.259+2839.37+838.309+2839.37+827.909L2839.37+700.709L2868.47+700.709L2868.47+831.209C2868.47+842.809+2866.92+853.609+2863.82+863.609C2860.72+873.609+2855.92+882.259+2849.42+889.559C2842.92+896.859+2834.72+902.609+2824.82+906.809C2814.92+911.009+2803.17+913.109+2789.57+913.109Z" opacity="1" fill="#ffffff"/>
<path d="M3043.67+883.409L3043.67+908.609L2918.57+908.609L2918.57+700.709L2947.67+700.709L2947.67+883.409L3043.67+883.409Z" opacity="1" fill="#ffffff"/>
<path d="M3074.27+908.609L3074.27+700.709L3201.17+700.709L3201.17+725.609L3103.37+725.609L3103.37+787.409L3190.37+787.409L3190.37+811.709L3103.37+811.709L3103.37+883.709L3208.67+883.709L3208.67+908.609L3074.27+908.609Z" opacity="1" fill="#ffffff"/>
<path d="M3295.07+908.609L3295.07+825.209C3281.27+803.809+3268.27+782.709+3256.07+761.909C3243.87+741.109+3232.37+720.709+3221.57+700.709L3255.77+700.709C3263.37+717.109+3271.87+733.759+3281.27+750.659C3290.67+767.559+3300.37+783.809+3310.37+799.409C3320.17+783.809+3329.77+767.559+3339.17+750.659C3348.57+733.759+3357.17+717.109+3364.97+700.709L3397.37+700.709C3386.57+720.709+3375.07+741.059+3362.87+761.759C3350.67+782.459+3337.77+803.409+3324.17+824.609L3324.17+908.609L3295.07+908.609Z" opacity="1" fill="#ffffff"/>
</g>
<g opacity="1">
<path d="M1377.65+1083.78C1376.65+1082.1+1375.5+1080.22+1374.21+1078.14C1372.92+1076.05+1371.53+1073.89+1370.03+1071.64C1368.53+1069.4+1366.98+1067.12+1365.37+1064.81C1363.76+1062.5+1362.16+1060.26+1360.58+1058.11C1358.99+1055.96+1357.45+1053.93+1355.95+1052.03C1354.46+1050.12+1353.08+1048.44+1351.81+1046.99L1351.81+1083.78L1345.35+1083.78L1345.35+1036.66L1350.58+1036.66C1352.71+1038.92+1354.99+1041.56+1357.42+1044.58C1359.84+1047.59+1362.24+1050.7+1364.62+1053.9C1367+1057.09+1369.25+1060.23+1371.36+1063.31C1373.46+1066.4+1375.24+1069.14+1376.69+1071.54L1376.69+1036.66L1383.15+1036.66L1383.15+1083.78L1377.65+1083.78Z" opacity="1" fill="#ffffff"/>
<path d="M1425.65+1066.1C1425.65+1068.91+1425.25+1071.45+1424.43+1073.72C1423.61+1075.98+1422.47+1077.93+1421+1079.57C1419.52+1081.2+1417.77+1082.46+1415.73+1083.34C1413.69+1084.22+1411.46+1084.67+1409.06+1084.67C1406.66+1084.67+1404.44+1084.22+1402.4+1083.34C1400.36+1082.46+1398.6+1081.2+1397.13+1079.57C1395.65+1077.93+1394.51+1075.98+1393.69+1073.72C1392.88+1071.45+1392.47+1068.91+1392.47+1066.1C1392.47+1063.34+1392.88+1060.81+1393.69+1058.52C1394.51+1056.23+1395.65+1054.27+1397.13+1052.64C1398.6+1051.01+1400.36+1049.75+1402.4+1048.86C1404.44+1047.98+1406.66+1047.54+1409.06+1047.54C1411.46+1047.54+1413.69+1047.98+1415.73+1048.86C1417.77+1049.75+1419.52+1051.01+1421+1052.64C1422.47+1054.27+1423.61+1056.23+1424.43+1058.52C1425.25+1060.81+1425.65+1063.34+1425.65+1066.1ZM1419.06+1066.1C1419.06+1062.11+1418.16+1058.95+1416.37+1056.62C1414.58+1054.28+1412.14+1053.11+1409.06+1053.11C1405.98+1053.11+1403.54+1054.28+1401.75+1056.62C1399.96+1058.95+1399.07+1062.11+1399.07+1066.1C1399.07+1070.09+1399.96+1073.25+1401.75+1075.59C1403.54+1077.92+1405.98+1079.09+1409.06+1079.09C1412.14+1079.09+1414.58+1077.92+1416.37+1075.59C1418.16+1073.25+1419.06+1070.09+1419.06+1066.1Z" opacity="1" fill="#ffffff"/>
<path d="M1457.41+1055.9C1456.64+1055.27+1455.53+1054.65+1454.08+1054.07C1452.63+1053.48+1451.04+1053.18+1449.32+1053.18C1447.5+1053.18+1445.95+1053.51+1444.66+1054.17C1443.37+1054.82+1442.31+1055.73+1441.5+1056.89C1440.68+1058.04+1440.09+1059.41+1439.73+1061C1439.37+1062.59+1439.19+1064.29+1439.19+1066.1C1439.19+1070.23+1440.21+1073.41+1442.25+1075.66C1444.29+1077.9+1447.01+1079.02+1450.41+1079.02C1452.13+1079.02+1453.57+1078.94+1454.72+1078.78C1455.88+1078.62+1456.78+1078.45+1457.41+1078.27L1457.41+1055.9ZM1457.41+1032.1L1463.73+1031.01L1463.73+1082.76C1462.28+1083.17+1460.42+1083.58+1458.16+1083.99C1455.89+1084.39+1453.28+1084.6+1450.34+1084.6C1447.62+1084.6+1445.17+1084.17+1442.99+1083.31C1440.82+1082.44+1438.96+1081.22+1437.42+1079.63C1435.88+1078.05+1434.69+1076.11+1433.85+1073.82C1433.01+1071.53+1432.59+1068.96+1432.59+1066.1C1432.59+1063.38+1432.94+1060.89+1433.64+1058.62C1434.35+1056.35+1435.38+1054.41+1436.74+1052.77C1438.1+1051.14+1439.76+1049.87+1441.74+1048.97C1443.71+1048.06+1445.96+1047.61+1448.5+1047.61C1450.54+1047.61+1452.34+1047.88+1453.91+1048.42C1455.47+1048.97+1456.64+1049.49+1457.41+1049.99L1457.41+1032.1Z" opacity="1" fill="#ffffff"/>
<path d="M1472.64+1066.17C1472.64+1063.04+1473.1+1060.31+1474+1057.98C1474.91+1055.64+1476.11+1053.7+1477.61+1052.16C1479.1+1050.62+1480.82+1049.46+1482.77+1048.69C1484.72+1047.92+1486.72+1047.54+1488.76+1047.54C1493.52+1047.54+1497.17+1049.02+1499.71+1051.99C1502.24+1054.96+1503.51+1059.48+1503.51+1065.56C1503.51+1065.83+1503.51+1066.18+1503.51+1066.61C1503.51+1067.04+1503.49+1067.44+1503.45+1067.8L1479.24+1067.8C1479.51+1071.47+1480.58+1074.26+1482.43+1076.17C1484.29+1078.07+1487.19+1079.02+1491.14+1079.02C1493.36+1079.02+1495.23+1078.83+1496.75+1078.44C1498.27+1078.06+1499.41+1077.68+1500.18+1077.32L1501.07+1082.63C1500.3+1083.03+1498.95+1083.46+1497.02+1083.92C1495.09+1084.37+1492.91+1084.6+1490.46+1084.6C1487.38+1084.6+1484.71+1084.13+1482.47+1083.2C1480.22+1082.27+1478.38+1080.99+1476.93+1079.36C1475.48+1077.73+1474.4+1075.79+1473.7+1073.55C1472.99+1071.3+1472.64+1068.84+1472.64+1066.17ZM1496.92+1062.7C1496.96+1059.85+1496.25+1057.5+1494.78+1055.66C1493.3+1053.83+1491.27+1052.91+1488.69+1052.91C1487.24+1052.91+1485.96+1053.19+1484.85+1053.76C1483.74+1054.33+1482.8+1055.06+1482.03+1055.97C1481.26+1056.88+1480.65+1057.92+1480.22+1059.1C1479.79+1060.28+1479.51+1061.48+1479.37+1062.7L1496.92+1062.7Z" opacity="1" fill="#ffffff"/>
<path d="M1535.68+1068.62C1535.68+1070.88+1535.44+1072.99+1534.96+1074.94C1534.49+1076.89+1533.65+1078.6+1532.45+1080.08C1531.25+1081.55+1529.64+1082.7+1527.62+1083.54C1525.6+1084.38+1523.08+1084.8+1520.04+1084.8C1518.5+1084.8+1517.08+1084.68+1515.79+1084.43C1514.5+1084.18+1513.33+1083.86+1512.29+1083.48C1511.24+1083.09+1510.34+1082.68+1509.57+1082.25C1508.8+1081.82+1508.18+1081.4+1507.73+1080.99L1510.31+1075.76C1511.27+1076.44+1512.5+1077.15+1514.02+1077.9C1515.54+1078.65+1517.43+1079.02+1519.7+1079.02C1522.96+1079.02+1525.34+1078.19+1526.84+1076.54C1528.33+1074.88+1529.08+1072.04+1529.08+1068.01L1529.08+1036.66L1535.68+1036.66L1535.68+1068.62Z" opacity="1" fill="#ffffff"/>
<path d="M1557.98+1079.09C1564.87+1079.09+1568.32+1076.73+1568.32+1072.02C1568.32+1070.57+1568.01+1069.33+1567.4+1068.31C1566.79+1067.29+1565.96+1066.41+1564.92+1065.66C1563.88+1064.91+1562.69+1064.27+1561.35+1063.72C1560.01+1063.18+1558.59+1062.63+1557.1+1062.09C1555.38+1061.5+1553.74+1060.83+1552.2+1060.08C1550.66+1059.34+1549.32+1058.45+1548.19+1057.43C1547.06+1056.41+1546.16+1055.2+1545.5+1053.79C1544.85+1052.39+1544.52+1050.69+1544.52+1048.69C1544.52+1044.57+1545.92+1041.35+1548.73+1039.04C1551.54+1036.73+1555.42+1035.57+1560.36+1035.57C1563.22+1035.57+1565.81+1035.88+1568.15+1036.49C1570.48+1037.1+1572.19+1037.77+1573.28+1038.49L1571.17+1043.87C1570.22+1043.28+1568.81+1042.7+1566.92+1042.13C1565.04+1041.56+1562.86+1041.28+1560.36+1041.28C1559.09+1041.28+1557.91+1041.42+1556.83+1041.69C1555.74+1041.96+1554.79+1042.37+1553.97+1042.91C1553.15+1043.46+1552.51+1044.15+1552.03+1044.99C1551.56+1045.83+1551.32+1046.81+1551.32+1047.95C1551.32+1049.21+1551.57+1050.28+1552.07+1051.14C1552.56+1052+1553.27+1052.76+1554.17+1053.42C1555.08+1054.08+1556.13+1054.68+1557.34+1055.22C1558.54+1055.77+1559.86+1056.31+1561.31+1056.85C1563.35+1057.67+1565.22+1058.49+1566.92+1059.3C1568.62+1060.12+1570.1+1061.09+1571.34+1062.23C1572.59+1063.36+1573.55+1064.71+1574.23+1066.27C1574.91+1067.84+1575.25+1069.73+1575.25+1071.95C1575.25+1076.07+1573.75+1079.25+1570.73+1081.47C1567.72+1083.69+1563.47+1084.8+1557.98+1084.8C1556.12+1084.8+1554.41+1084.68+1552.85+1084.43C1551.28+1084.18+1549.89+1083.88+1548.67+1083.54C1547.44+1083.2+1546.39+1082.84+1545.5+1082.46C1544.62+1082.07+1543.93+1081.74+1543.43+1081.47L1545.4+1076.03C1546.44+1076.62+1548.03+1077.28+1550.16+1078C1552.29+1078.73+1554.9+1079.09+1557.98+1079.09Z" opacity="1" fill="#ffffff"/>
<path d="M1589.47+1076.03C1589.51+1076.39+1589.53+1076.74+1589.53+1077.08C1589.53+1077.42+1589.53+1077.77+1589.53+1078.14C1589.53+1080.99+1589.11+1083.82+1588.28+1086.6C1587.44+1089.39+1586.29+1092.05+1584.84+1094.59L1579.95+1093.03C1581.08+1090.72+1581.83+1088.37+1582.19+1085.99C1582.55+1083.61+1582.73+1081.38+1582.73+1079.29C1582.73+1078.7+1582.72+1078.14+1582.7+1077.59C1582.68+1077.05+1582.64+1076.53+1582.6+1076.03L1589.47+1076.03Z" opacity="1" fill="#ffffff"/>
<path d="M1626.59+1079.09C1633.48+1079.09+1636.93+1076.73+1636.93+1072.02C1636.93+1070.57+1636.62+1069.33+1636.01+1068.31C1635.4+1067.29+1634.57+1066.41+1633.53+1065.66C1632.49+1064.91+1631.3+1064.27+1629.96+1063.72C1628.62+1063.18+1627.21+1062.63+1625.71+1062.09C1623.99+1061.5+1622.36+1060.83+1620.81+1060.08C1619.27+1059.34+1617.94+1058.45+1616.8+1057.43C1615.67+1056.41+1614.77+1055.2+1614.12+1053.79C1613.46+1052.39+1613.13+1050.69+1613.13+1048.69C1613.13+1044.57+1614.54+1041.35+1617.35+1039.04C1620.16+1036.73+1624.03+1035.57+1628.97+1035.57C1631.83+1035.57+1634.43+1035.88+1636.76+1036.49C1639.09+1037.1+1640.81+1037.77+1641.89+1038.49L1639.79+1043.87C1638.83+1043.28+1637.42+1042.7+1635.54+1042.13C1633.65+1041.56+1631.47+1041.28+1628.97+1041.28C1627.7+1041.28+1626.53+1041.42+1625.44+1041.69C1624.35+1041.96+1623.4+1042.37+1622.58+1042.91C1621.77+1043.46+1621.12+1044.15+1620.64+1044.99C1620.17+1045.83+1619.93+1046.81+1619.93+1047.95C1619.93+1049.21+1620.18+1050.28+1620.68+1051.14C1621.18+1052+1621.88+1052.76+1622.79+1053.42C1623.69+1054.08+1624.75+1054.68+1625.95+1055.22C1627.15+1055.77+1628.48+1056.31+1629.93+1056.85C1631.97+1057.67+1633.84+1058.49+1635.54+1059.3C1637.24+1060.12+1638.71+1061.09+1639.96+1062.23C1641.2+1063.36+1642.17+1064.71+1642.85+1066.27C1643.53+1067.84+1643.87+1069.73+1643.87+1071.95C1643.87+1076.07+1642.36+1079.25+1639.34+1081.47C1636.33+1083.69+1632.08+1084.8+1626.59+1084.8C1624.74+1084.8+1623.02+1084.68+1621.46+1084.43C1619.9+1084.18+1618.5+1083.88+1617.28+1083.54C1616.05+1083.2+1615+1082.84+1614.12+1082.46C1613.23+1082.07+1612.54+1081.74+1612.04+1081.47L1614.01+1076.03C1615.06+1076.62+1616.64+1077.28+1618.77+1078C1620.9+1078.73+1623.51+1079.09+1626.59+1079.09Z" opacity="1" fill="#ffffff"/>
<path d="M1651.41+1083.78L1651.41+1032.1L1657.74+1031.01L1657.74+1049.1C1658.92+1048.65+1660.17+1048.3+1661.51+1048.05C1662.85+1047.8+1664.18+1047.67+1665.49+1047.67C1668.3+1047.67+1670.64+1048.07+1672.49+1048.86C1674.35+1049.66+1675.84+1050.77+1676.95+1052.2C1678.06+1053.62+1678.84+1055.33+1679.29+1057.33C1679.75+1059.32+1679.97+1061.52+1679.97+1063.93L1679.97+1083.78L1673.65+1083.78L1673.65+1065.29C1673.65+1063.11+1673.5+1061.25+1673.21+1059.71C1672.91+1058.17+1672.43+1056.92+1671.75+1055.97C1671.07+1055.02+1670.16+1054.33+1669.03+1053.9C1667.89+1053.46+1666.49+1053.25+1664.81+1053.25C1664.13+1053.25+1663.43+1053.29+1662.7+1053.39C1661.98+1053.48+1661.29+1053.58+1660.63+1053.69C1659.97+1053.8+1659.38+1053.93+1658.86+1054.07C1658.34+1054.2+1657.96+1054.31+1657.74+1054.41L1657.74+1083.78L1651.41+1083.78Z" opacity="1" fill="#ffffff"/>
<path d="M1688.27+1066.17C1688.27+1063.04+1688.72+1060.31+1689.63+1057.98C1690.54+1055.64+1691.74+1053.7+1693.23+1052.16C1694.73+1050.62+1696.45+1049.46+1698.4+1048.69C1700.35+1047.92+1702.35+1047.54+1704.39+1047.54C1709.15+1047.54+1712.8+1049.02+1715.33+1051.99C1717.87+1054.96+1719.14+1059.48+1719.14+1065.56C1719.14+1065.83+1719.14+1066.18+1719.14+1066.61C1719.14+1067.04+1719.12+1067.44+1719.07+1067.8L1694.87+1067.8C1695.14+1071.47+1696.2+1074.26+1698.06+1076.17C1699.92+1078.07+1702.82+1079.02+1706.77+1079.02C1708.99+1079.02+1710.86+1078.83+1712.38+1078.44C1713.89+1078.06+1715.04+1077.68+1715.81+1077.32L1716.69+1082.63C1715.92+1083.03+1714.57+1083.46+1712.65+1083.92C1710.72+1084.37+1708.53+1084.6+1706.09+1084.6C1703+1084.6+1700.34+1084.13+1698.1+1083.2C1695.85+1082.27+1694+1080.99+1692.55+1079.36C1691.1+1077.73+1690.03+1075.79+1689.32+1073.55C1688.62+1071.3+1688.27+1068.84+1688.27+1066.17ZM1712.55+1062.7C1712.59+1059.85+1711.88+1057.5+1710.4+1055.66C1708.93+1053.83+1706.9+1052.91+1704.32+1052.91C1702.87+1052.91+1701.59+1053.19+1700.48+1053.76C1699.37+1054.33+1698.42+1055.06+1697.65+1055.97C1696.88+1056.88+1696.28+1057.92+1695.85+1059.1C1695.42+1060.28+1695.14+1061.48+1695+1062.7L1712.55+1062.7Z" opacity="1" fill="#ffffff"/>
<path d="M1738.86+1084.46C1734.96+1084.37+1732.2+1083.53+1730.57+1081.95C1728.93+1080.36+1728.12+1077.89+1728.12+1074.53L1728.12+1032.1L1734.44+1031.01L1734.44+1073.51C1734.44+1074.56+1734.53+1075.42+1734.71+1076.1C1734.9+1076.78+1735.19+1077.32+1735.6+1077.73C1736.01+1078.14+1736.55+1078.44+1737.23+1078.65C1737.91+1078.85+1738.75+1079.02+1739.75+1079.16L1738.86+1084.46Z" opacity="1" fill="#ffffff"/>
<path d="M1757.43+1084.46C1753.53+1084.37+1750.76+1083.53+1749.13+1081.95C1747.5+1080.36+1746.68+1077.89+1746.68+1074.53L1746.68+1032.1L1753.01+1031.01L1753.01+1073.51C1753.01+1074.56+1753.1+1075.42+1753.28+1076.1C1753.46+1076.78+1753.75+1077.32+1754.16+1077.73C1754.57+1078.14+1755.11+1078.44+1755.79+1078.65C1756.47+1078.85+1757.31+1079.02+1758.31+1079.16L1757.43+1084.46Z" opacity="1" fill="#ffffff"/>
<path d="M1772.05+1076.03C1772.09+1076.39+1772.11+1076.74+1772.11+1077.08C1772.11+1077.42+1772.11+1077.77+1772.11+1078.14C1772.11+1080.99+1771.69+1083.82+1770.86+1086.6C1770.02+1089.39+1768.87+1092.05+1767.42+1094.59L1762.53+1093.03C1763.66+1090.72+1764.41+1088.37+1764.77+1085.99C1765.13+1083.61+1765.31+1081.38+1765.31+1079.29C1765.31+1078.7+1765.3+1078.14+1765.28+1077.59C1765.26+1077.05+1765.22+1076.53+1765.18+1076.03L1772.05+1076.03Z" opacity="1" fill="#ffffff"/>
<path d="M1809.79+1079.23C1811.28+1079.23+1812.61+1079.19+1813.76+1079.12C1814.92+1079.06+1815.88+1078.93+1816.65+1078.75L1816.65+1068.21C1816.2+1067.98+1815.46+1067.79+1814.44+1067.63C1813.42+1067.47+1812.19+1067.39+1810.74+1067.39C1809.79+1067.39+1808.78+1067.46+1807.71+1067.6C1806.65+1067.73+1805.67+1068.02+1804.79+1068.45C1803.9+1068.88+1803.17+1069.47+1802.58+1070.22C1801.99+1070.96+1801.69+1071.95+1801.69+1073.17C1801.69+1075.44+1802.42+1077.02+1803.87+1077.9C1805.32+1078.78+1807.29+1079.23+1809.79+1079.23ZM1809.24+1047.54C1811.78+1047.54+1813.92+1047.87+1815.67+1048.52C1817.41+1049.18+1818.82+1050.11+1819.88+1051.31C1820.95+1052.51+1821.71+1053.94+1822.16+1055.6C1822.62+1057.25+1822.84+1059.07+1822.84+1061.07L1822.84+1083.17C1822.3+1083.26+1821.54+1083.38+1820.56+1083.54C1819.59+1083.7+1818.49+1083.85+1817.27+1083.99C1816.04+1084.12+1814.72+1084.25+1813.29+1084.36C1811.86+1084.47+1810.44+1084.53+1809.04+1084.53C1807.04+1084.53+1805.21+1084.33+1803.53+1083.92C1801.85+1083.51+1800.4+1082.86+1799.18+1081.98C1797.95+1081.1+1797+1079.93+1796.32+1078.48C1795.64+1077.03+1795.3+1075.28+1795.3+1073.24C1795.3+1071.29+1795.7+1069.61+1796.49+1068.21C1797.29+1066.8+1798.36+1065.67+1799.72+1064.81C1801.08+1063.95+1802.67+1063.31+1804.48+1062.91C1806.3+1062.5+1808.2+1062.29+1810.19+1062.29C1810.83+1062.29+1811.49+1062.33+1812.17+1062.4C1812.85+1062.46+1813.49+1062.55+1814.1+1062.67C1814.72+1062.78+1815.25+1062.88+1815.7+1062.97C1816.16+1063.06+1816.47+1063.13+1816.65+1063.18L1816.65+1061.41C1816.65+1060.37+1816.54+1059.34+1816.31+1058.32C1816.09+1057.3+1815.68+1056.39+1815.09+1055.6C1814.5+1054.8+1813.7+1054.17+1812.68+1053.69C1811.66+1053.22+1810.33+1052.98+1808.7+1052.98C1806.61+1052.98+1804.79+1053.12+1803.22+1053.42C1801.66+1053.71+1800.49+1054.02+1799.72+1054.34L1798.97+1049.1C1799.79+1048.74+1801.15+1048.39+1803.05+1048.05C1804.96+1047.71+1807.02+1047.54+1809.24+1047.54Z" opacity="1" fill="#ffffff"/>
<path d="M1833.31+1049.44C1834.76+1049.08+1836.69+1048.69+1839.09+1048.29C1841.5+1047.88+1844.26+1047.67+1847.39+1047.67C1850.2+1047.67+1852.54+1048.07+1854.39+1048.86C1856.25+1049.66+1857.74+1050.77+1858.85+1052.2C1859.96+1053.62+1860.74+1055.33+1861.19+1057.33C1861.65+1059.32+1861.87+1061.52+1861.87+1063.93L1861.87+1083.78L1855.55+1083.78L1855.55+1065.29C1855.55+1063.11+1855.4+1061.25+1855.11+1059.71C1854.81+1058.17+1854.33+1056.92+1853.65+1055.97C1852.97+1055.02+1852.06+1054.33+1850.93+1053.9C1849.79+1053.46+1848.39+1053.25+1846.71+1053.25C1846.03+1053.25+1845.33+1053.27+1844.6+1053.32C1843.88+1053.36+1843.19+1053.42+1842.53+1053.49C1841.87+1053.56+1841.28+1053.63+1840.76+1053.73C1840.24+1053.82+1839.86+1053.88+1839.64+1053.93L1839.64+1083.78L1833.31+1083.78L1833.31+1049.44Z" opacity="1" fill="#ffffff"/>
<path d="M1895.19+1055.9C1894.42+1055.27+1893.31+1054.65+1891.86+1054.07C1890.41+1053.48+1888.82+1053.18+1887.1+1053.18C1885.29+1053.18+1883.74+1053.51+1882.44+1054.17C1881.15+1054.82+1880.1+1055.73+1879.28+1056.89C1878.47+1058.04+1877.88+1059.41+1877.51+1061C1877.15+1062.59+1876.97+1064.29+1876.97+1066.1C1876.97+1070.23+1877.99+1073.41+1880.03+1075.66C1882.07+1077.9+1884.79+1079.02+1888.19+1079.02C1889.91+1079.02+1891.35+1078.94+1892.51+1078.78C1893.66+1078.62+1894.56+1078.45+1895.19+1078.27L1895.19+1055.9ZM1895.19+1032.1L1901.52+1031.01L1901.52+1082.76C1900.07+1083.17+1898.21+1083.58+1895.94+1083.99C1893.68+1084.39+1891.07+1084.6+1888.12+1084.6C1885.4+1084.6+1882.95+1084.17+1880.78+1083.31C1878.6+1082.44+1876.74+1081.22+1875.2+1079.63C1873.66+1078.05+1872.47+1076.11+1871.63+1073.82C1870.79+1071.53+1870.37+1068.96+1870.37+1066.1C1870.37+1063.38+1870.73+1060.89+1871.43+1058.62C1872.13+1056.35+1873.16+1054.41+1874.52+1052.77C1875.88+1051.14+1877.55+1049.87+1879.52+1048.97C1881.49+1048.06+1883.75+1047.61+1886.29+1047.61C1888.33+1047.61+1890.13+1047.88+1891.69+1048.42C1893.26+1048.97+1894.42+1049.49+1895.19+1049.99L1895.19+1032.1Z" opacity="1" fill="#ffffff"/>
<path d="M1954.29+1051.82C1952.38+1057.9+1950.46+1063.52+1948.51+1068.69C1946.56+1073.85+1944.61+1078.89+1942.66+1083.78L1936.06+1083.78C1933.66+1076.85+1931.54+1069.52+1929.7+1061.82C1927.87+1054.11+1926.16+1045.72+1924.57+1036.66L1931.51+1036.66C1932.14+1040.19+1932.8+1043.73+1933.48+1047.27C1934.16+1050.8+1934.86+1054.24+1935.59+1057.57C1936.31+1060.9+1937.04+1064.08+1937.76+1067.12C1938.49+1070.16+1939.24+1072.97+1940.01+1075.55C1941.82+1070.79+1943.75+1065.57+1945.79+1059.88C1947.83+1054.19+1949.73+1048.31+1951.5+1042.23L1957.21+1042.23C1958.98+1048.31+1960.9+1054.19+1962.99+1059.88C1965.08+1065.57+1967.02+1070.79+1968.84+1075.55C1969.56+1073.01+1970.29+1070.23+1971.01+1067.19C1971.74+1064.15+1972.45+1060.97+1973.16+1057.64C1973.86+1054.3+1974.55+1050.86+1975.23+1047.3C1975.91+1043.74+1976.57+1040.19+1977.2+1036.66L1983.93+1036.66C1982.3+1045.72+1980.57+1054.11+1978.73+1061.82C1976.9+1069.52+1974.8+1076.85+1972.44+1083.78L1965.85+1083.78C1963.85+1078.89+1961.9+1073.85+1960+1068.69C1958.09+1063.52+1956.19+1057.9+1954.29+1051.82Z" opacity="1" fill="#ffffff"/>
<path d="M1987.81+1066.17C1987.81+1063.04+1988.26+1060.31+1989.17+1057.98C1990.08+1055.64+1991.28+1053.7+1992.77+1052.16C1994.27+1050.62+1995.99+1049.46+1997.94+1048.69C1999.89+1047.92+2001.89+1047.54+2003.93+1047.54C2008.69+1047.54+2012.34+1049.02+2014.87+1051.99C2017.41+1054.96+2018.68+1059.48+2018.68+1065.56C2018.68+1065.83+2018.68+1066.18+2018.68+1066.61C2018.68+1067.04+2018.66+1067.44+2018.61+1067.8L1994.41+1067.8C1994.68+1071.47+1995.74+1074.26+1997.6+1076.17C1999.46+1078.07+2002.36+1079.02+2006.31+1079.02C2008.53+1079.02+2010.4+1078.83+2011.92+1078.44C2013.43+1078.06+2014.58+1077.68+2015.35+1077.32L2016.23+1082.63C2015.46+1083.03+2014.11+1083.46+2012.19+1083.92C2010.26+1084.37+2008.07+1084.6+2005.63+1084.6C2002.54+1084.6+1999.88+1084.13+1997.64+1083.2C1995.39+1082.27+1993.54+1080.99+1992.09+1079.36C1990.64+1077.73+1989.57+1075.79+1988.86+1073.55C1988.16+1071.3+1987.81+1068.84+1987.81+1066.17ZM2012.09+1062.7C2012.13+1059.85+2011.42+1057.5+2009.94+1055.66C2008.47+1053.83+2006.44+1052.91+2003.86+1052.91C2002.41+1052.91+2001.13+1053.19+2000.02+1053.76C1998.91+1054.33+1997.96+1055.06+1997.19+1055.97C1996.42+1056.88+1995.82+1057.92+1995.39+1059.1C1994.96+1060.28+1994.68+1061.48+1994.54+1062.7L2012.09+1062.7Z" opacity="1" fill="#ffffff"/>
<path d="M2034.12+1049.99C2034.89+1049.49+2036.06+1048.97+2037.62+1048.42C2039.18+1047.88+2040.99+1047.61+2043.03+1047.61C2045.56+1047.61+2047.82+1048.06+2049.79+1048.97C2051.76+1049.87+2053.43+1051.14+2054.79+1052.77C2056.15+1054.41+2057.18+1056.35+2057.88+1058.62C2058.59+1060.89+2058.94+1063.38+2058.94+1066.1C2058.94+1068.96+2058.52+1071.53+2057.68+1073.82C2056.84+1076.11+2055.65+1078.05+2054.11+1079.63C2052.57+1081.22+2050.71+1082.44+2048.53+1083.31C2046.36+1084.17+2043.91+1084.6+2041.19+1084.6C2038.24+1084.6+2035.64+1084.39+2033.37+1083.99C2031.1+1083.58+2029.24+1083.17+2027.79+1082.76L2027.79+1032.1L2034.12+1031.01L2034.12+1049.99ZM2034.12+1078.27C2034.75+1078.45+2035.65+1078.62+2036.8+1078.78C2037.96+1078.94+2039.4+1079.02+2041.12+1079.02C2044.52+1079.02+2047.24+1077.9+2049.28+1075.66C2051.32+1073.41+2052.34+1070.23+2052.34+1066.1C2052.34+1064.29+2052.16+1062.59+2051.8+1061C2051.44+1059.41+2050.85+1058.04+2050.03+1056.89C2049.21+1055.73+2048.16+1054.82+2046.87+1054.17C2045.58+1053.51+2044.02+1053.18+2042.21+1053.18C2040.49+1053.18+2038.9+1053.48+2037.45+1054.07C2036+1054.65+2034.89+1055.27+2034.12+1055.9L2034.12+1078.27Z" opacity="1" fill="#ffffff"/>
<path d="M2083.96+1083.78L2083.96+1036.66L2112.39+1036.66L2112.39+1042.3L2090.56+1042.3L2090.56+1056.51L2109.94+1056.51L2109.94+1062.09L2090.56+1062.09L2090.56+1083.78L2083.96+1083.78Z" opacity="1" fill="#ffffff"/>
<path d="M2131.22+1047.67C2131.77+1047.67+2132.39+1047.71+2133.09+1047.78C2133.79+1047.84+2134.49+1047.93+2135.17+1048.05C2135.85+1048.16+2136.47+1048.27+2137.04+1048.39C2137.6+1048.5+2138.02+1048.6+2138.29+1048.69L2137.21+1054.2C2136.71+1054.02+2135.88+1053.8+2134.72+1053.56C2133.57+1053.31+2132.08+1053.18+2130.27+1053.18C2129.09+1053.18+2127.92+1053.31+2126.77+1053.56C2125.61+1053.8+2124.85+1053.97+2124.49+1054.07L2124.49+1083.78L2118.17+1083.78L2118.17+1049.92C2119.66+1049.37+2121.52+1048.86+2123.74+1048.39C2125.96+1047.91+2128.46+1047.67+2131.22+1047.67Z" opacity="1" fill="#ffffff"/>
<path d="M2175.63+1066.1C2175.63+1068.91+2175.22+1071.45+2174.4+1073.72C2173.59+1075.98+2172.44+1077.93+2170.97+1079.57C2169.49+1081.2+2167.74+1082.46+2165.7+1083.34C2163.66+1084.22+2161.44+1084.67+2159.03+1084.67C2156.63+1084.67+2154.41+1084.22+2152.37+1083.34C2150.33+1082.46+2148.57+1081.2+2147.1+1079.57C2145.63+1077.93+2144.48+1075.98+2143.67+1073.72C2142.85+1071.45+2142.44+1068.91+2142.44+1066.1C2142.44+1063.34+2142.85+1060.81+2143.67+1058.52C2144.48+1056.23+2145.63+1054.27+2147.1+1052.64C2148.57+1051.01+2150.33+1049.75+2152.37+1048.86C2154.41+1047.98+2156.63+1047.54+2159.03+1047.54C2161.44+1047.54+2163.66+1047.98+2165.7+1048.86C2167.74+1049.75+2169.49+1051.01+2170.97+1052.64C2172.44+1054.27+2173.59+1056.23+2174.4+1058.52C2175.22+1060.81+2175.63+1063.34+2175.63+1066.1ZM2169.03+1066.1C2169.03+1062.11+2168.13+1058.95+2166.34+1056.62C2164.55+1054.28+2162.12+1053.11+2159.03+1053.11C2155.95+1053.11+2153.51+1054.28+2151.72+1056.62C2149.93+1058.95+2149.04+1062.11+2149.04+1066.1C2149.04+1070.09+2149.93+1073.25+2151.72+1075.59C2153.51+1077.92+2155.95+1079.09+2159.03+1079.09C2162.12+1079.09+2164.55+1077.92+2166.34+1075.59C2168.13+1073.25+2169.03+1070.09+2169.03+1066.1Z" opacity="1" fill="#ffffff"/>
<path d="M2184.53+1049.44C2185.98+1049.08+2187.91+1048.69+2190.31+1048.29C2192.72+1047.88+2195.48+1047.67+2198.61+1047.67C2201.42+1047.67+2203.76+1048.07+2205.61+1048.86C2207.47+1049.66+2208.96+1050.77+2210.07+1052.2C2211.18+1053.62+2211.96+1055.33+2212.41+1057.33C2212.87+1059.32+2213.09+1061.52+2213.09+1063.93L2213.09+1083.78L2206.77+1083.78L2206.77+1065.29C2206.77+1063.11+2206.62+1061.25+2206.33+1059.71C2206.03+1058.17+2205.55+1056.92+2204.87+1055.97C2204.19+1055.02+2203.28+1054.33+2202.15+1053.9C2201.01+1053.46+2199.61+1053.25+2197.93+1053.25C2197.25+1053.25+2196.55+1053.27+2195.82+1053.32C2195.1+1053.36+2194.41+1053.42+2193.75+1053.49C2193.09+1053.56+2192.5+1053.63+2191.98+1053.73C2191.46+1053.82+2191.08+1053.88+2190.86+1053.93L2190.86+1083.78L2184.53+1083.78L2184.53+1049.44Z" opacity="1" fill="#ffffff"/>
<path d="M2229.48+1048.42L2242.88+1048.42L2242.88+1053.73L2229.48+1053.73L2229.48+1070.05C2229.48+1071.81+2229.62+1073.28+2229.89+1074.43C2230.16+1075.59+2230.57+1076.49+2231.11+1077.15C2231.66+1077.81+2232.34+1078.27+2233.15+1078.55C2233.97+1078.82+2234.92+1078.95+2236.01+1078.95C2237.91+1078.95+2239.44+1078.74+2240.6+1078.31C2241.76+1077.88+2242.56+1077.57+2243.01+1077.39L2244.24+1082.63C2243.6+1082.94+2242.49+1083.34+2240.91+1083.82C2239.32+1084.29+2237.51+1084.53+2235.47+1084.53C2233.06+1084.53+2231.08+1084.22+2229.52+1083.61C2227.95+1083+2226.69+1082.08+2225.74+1080.86C2224.79+1079.63+2224.12+1078.13+2223.74+1076.34C2223.35+1074.54+2223.16+1072.47+2223.16+1070.11L2223.16+1038.56L2229.48+1037.47L2229.48+1048.42Z" opacity="1" fill="#ffffff"/>
<path d="M2248.25+1066.17C2248.25+1063.04+2248.7+1060.31+2249.61+1057.98C2250.52+1055.64+2251.72+1053.7+2253.21+1052.16C2254.71+1050.62+2256.43+1049.46+2258.38+1048.69C2260.33+1047.92+2262.33+1047.54+2264.37+1047.54C2269.13+1047.54+2272.78+1049.02+2275.31+1051.99C2277.85+1054.96+2279.12+1059.48+2279.12+1065.56C2279.12+1065.83+2279.12+1066.18+2279.12+1066.61C2279.12+1067.04+2279.1+1067.44+2279.05+1067.8L2254.85+1067.8C2255.12+1071.47+2256.18+1074.26+2258.04+1076.17C2259.9+1078.07+2262.8+1079.02+2266.75+1079.02C2268.97+1079.02+2270.84+1078.83+2272.36+1078.44C2273.87+1078.06+2275.02+1077.68+2275.79+1077.32L2276.67+1082.63C2275.9+1083.03+2274.55+1083.46+2272.63+1083.92C2270.7+1084.37+2268.51+1084.6+2266.07+1084.6C2262.98+1084.6+2260.32+1084.13+2258.08+1083.2C2255.83+1082.27+2253.98+1080.99+2252.53+1079.36C2251.08+1077.73+2250.01+1075.79+2249.3+1073.55C2248.6+1071.3+2248.25+1068.84+2248.25+1066.17ZM2272.53+1062.7C2272.57+1059.85+2271.86+1057.5+2270.38+1055.66C2268.91+1053.83+2266.88+1052.91+2264.3+1052.91C2262.85+1052.91+2261.57+1053.19+2260.46+1053.76C2259.35+1054.33+2258.4+1055.06+2257.63+1055.97C2256.86+1056.88+2256.26+1057.92+2255.83+1059.1C2255.4+1060.28+2255.12+1061.48+2254.98+1062.7L2272.53+1062.7Z" opacity="1" fill="#ffffff"/>
<path d="M2288.23+1049.44C2289.68+1049.08+2291.61+1048.69+2294.01+1048.29C2296.42+1047.88+2299.18+1047.67+2302.31+1047.67C2305.12+1047.67+2307.46+1048.07+2309.31+1048.86C2311.17+1049.66+2312.66+1050.77+2313.77+1052.2C2314.88+1053.62+2315.66+1055.33+2316.11+1057.33C2316.57+1059.32+2316.79+1061.52+2316.79+1063.93L2316.79+1083.78L2310.47+1083.78L2310.47+1065.29C2310.47+1063.11+2310.32+1061.25+2310.03+1059.71C2309.73+1058.17+2309.25+1056.92+2308.57+1055.97C2307.89+1055.02+2306.98+1054.33+2305.85+1053.9C2304.71+1053.46+2303.31+1053.25+2301.63+1053.25C2300.95+1053.25+2300.25+1053.27+2299.52+1053.32C2298.8+1053.36+2298.11+1053.42+2297.45+1053.49C2296.79+1053.56+2296.2+1053.63+2295.68+1053.73C2295.16+1053.82+2294.78+1053.88+2294.56+1053.93L2294.56+1083.78L2288.23+1083.78L2288.23+1049.44Z" opacity="1" fill="#ffffff"/>
<path d="M2350.11+1055.9C2349.34+1055.27+2348.23+1054.65+2346.78+1054.07C2345.33+1053.48+2343.74+1053.18+2342.02+1053.18C2340.21+1053.18+2338.66+1053.51+2337.36+1054.17C2336.07+1054.82+2335.02+1055.73+2334.2+1056.89C2333.39+1058.04+2332.8+1059.41+2332.43+1061C2332.07+1062.59+2331.89+1064.29+2331.89+1066.1C2331.89+1070.23+2332.91+1073.41+2334.95+1075.66C2336.99+1077.9+2339.71+1079.02+2343.11+1079.02C2344.83+1079.02+2346.27+1078.94+2347.43+1078.78C2348.58+1078.62+2349.48+1078.45+2350.11+1078.27L2350.11+1055.9ZM2350.11+1032.1L2356.44+1031.01L2356.44+1082.76C2354.99+1083.17+2353.13+1083.58+2350.86+1083.99C2348.6+1084.39+2345.99+1084.6+2343.04+1084.6C2340.32+1084.6+2337.87+1084.17+2335.7+1083.31C2333.52+1082.44+2331.66+1081.22+2330.12+1079.63C2328.58+1078.05+2327.39+1076.11+2326.55+1073.82C2325.71+1071.53+2325.29+1068.96+2325.29+1066.1C2325.29+1063.38+2325.65+1060.89+2326.35+1058.62C2327.05+1056.35+2328.08+1054.41+2329.44+1052.77C2330.8+1051.14+2332.47+1049.87+2334.44+1048.97C2336.41+1048.06+2338.67+1047.61+2341.21+1047.61C2343.25+1047.61+2345.05+1047.88+2346.61+1048.42C2348.18+1048.97+2349.34+1049.49+2350.11+1049.99L2350.11+1032.1Z" opacity="1" fill="#ffffff"/>
<path d="M2422.13+1060.19C2422.13+1064.27+2421.49+1067.81+2420.22+1070.83C2418.95+1073.84+2417.16+1076.34+2414.85+1078.31C2412.54+1080.28+2409.77+1081.75+2406.55+1082.73C2403.34+1083.7+2399.8+1084.19+2395.95+1084.19C2394.04+1084.19+2391.95+1084.11+2389.66+1083.95C2387.37+1083.79+2385.29+1083.49+2383.43+1083.03L2383.43+1037.34C2385.29+1036.88+2387.37+1036.58+2389.66+1036.42C2391.95+1036.26+2394.04+1036.18+2395.95+1036.18C2399.8+1036.18+2403.34+1036.67+2406.55+1037.64C2409.77+1038.62+2412.54+1040.09+2414.85+1042.06C2417.16+1044.04+2418.95+1046.53+2420.22+1049.54C2421.49+1052.56+2422.13+1056.11+2422.13+1060.19ZM2396.49+1078.41C2402.75+1078.41+2407.42+1076.81+2410.5+1073.62C2413.58+1070.42+2415.12+1065.94+2415.12+1060.19C2415.12+1054.43+2413.58+1049.95+2410.5+1046.76C2407.42+1043.56+2402.75+1041.96+2396.49+1041.96C2394.63+1041.96+2393.19+1041.98+2392.17+1042.03C2391.15+1042.07+2390.44+1042.12+2390.03+1042.17L2390.03+1078.21C2390.44+1078.25+2391.15+1078.3+2392.17+1078.34C2393.19+1078.39+2394.63+1078.41+2396.49+1078.41Z" opacity="1" fill="#ffffff"/>
<path d="M2429.54+1066.17C2429.54+1063.04+2429.99+1060.31+2430.9+1057.98C2431.8+1055.64+2433.01+1053.7+2434.5+1052.16C2436+1050.62+2437.72+1049.46+2439.67+1048.69C2441.62+1047.92+2443.61+1047.54+2445.65+1047.54C2450.41+1047.54+2454.06+1049.02+2456.6+1051.99C2459.14+1054.96+2460.41+1059.48+2460.41+1065.56C2460.41+1065.83+2460.41+1066.18+2460.41+1066.61C2460.41+1067.04+2460.39+1067.44+2460.34+1067.8L2436.13+1067.8C2436.41+1071.47+2437.47+1074.26+2439.33+1076.17C2441.19+1078.07+2444.09+1079.02+2448.03+1079.02C2450.26+1079.02+2452.13+1078.83+2453.64+1078.44C2455.16+1078.06+2456.31+1077.68+2457.08+1077.32L2457.96+1082.63C2457.19+1083.03+2455.84+1083.46+2453.92+1083.92C2451.99+1084.37+2449.8+1084.6+2447.35+1084.6C2444.27+1084.6+2441.61+1084.13+2439.36+1083.2C2437.12+1082.27+2435.27+1080.99+2433.82+1079.36C2432.37+1077.73+2431.29+1075.79+2430.59+1073.55C2429.89+1071.3+2429.54+1068.84+2429.54+1066.17ZM2453.81+1062.7C2453.86+1059.85+2453.15+1057.5+2451.67+1055.66C2450.2+1053.83+2448.17+1052.91+2445.59+1052.91C2444.14+1052.91+2442.85+1053.19+2441.74+1053.76C2440.63+1054.33+2439.69+1055.06+2438.92+1055.97C2438.15+1056.88+2437.55+1057.92+2437.12+1059.1C2436.69+1060.28+2436.41+1061.48+2436.27+1062.7L2453.81+1062.7Z" opacity="1" fill="#ffffff"/>
<path d="M2497.13+1048.42C2495.36+1055.04+2493.29+1061.39+2490.91+1067.46C2488.53+1073.54+2486.23+1078.98+2484.01+1083.78L2478.29+1083.78C2476.07+1078.98+2473.77+1073.54+2471.39+1067.46C2469.01+1061.39+2466.94+1055.04+2465.17+1048.42L2471.97+1048.42C2472.51+1050.64+2473.16+1053.01+2473.91+1055.53C2474.66+1058.04+2475.45+1060.54+2476.29+1063.01C2477.13+1065.48+2477.98+1067.87+2478.84+1070.18C2479.7+1072.49+2480.52+1074.56+2481.29+1076.37C2482.06+1074.56+2482.87+1072.49+2483.73+1070.18C2484.6+1067.87+2485.45+1065.48+2486.28+1063.01C2487.12+1060.54+2487.92+1058.04+2488.66+1055.53C2489.41+1053.01+2490.06+1050.64+2490.6+1048.42L2497.13+1048.42Z" opacity="1" fill="#ffffff"/>
<path d="M2500.73+1066.17C2500.73+1063.04+2501.19+1060.31+2502.09+1057.98C2503+1055.64+2504.2+1053.7+2505.7+1052.16C2507.19+1050.62+2508.92+1049.46+2510.87+1048.69C2512.82+1047.92+2514.81+1047.54+2516.85+1047.54C2521.61+1047.54+2525.26+1049.02+2527.8+1051.99C2530.34+1054.96+2531.61+1059.48+2531.61+1065.56C2531.61+1065.83+2531.61+1066.18+2531.61+1066.61C2531.61+1067.04+2531.58+1067.44+2531.54+1067.8L2507.33+1067.8C2507.6+1071.47+2508.67+1074.26+2510.53+1076.17C2512.38+1078.07+2515.29+1079.02+2519.23+1079.02C2521.45+1079.02+2523.32+1078.83+2524.84+1078.44C2526.36+1078.06+2527.5+1077.68+2528.27+1077.32L2529.16+1082.63C2528.39+1083.03+2527.04+1083.46+2525.11+1083.92C2523.19+1084.37+2521+1084.6+2518.55+1084.6C2515.47+1084.6+2512.8+1084.13+2510.56+1083.2C2508.32+1082.27+2506.47+1080.99+2505.02+1079.36C2503.57+1077.73+2502.49+1075.79+2501.79+1073.55C2501.09+1071.3+2500.73+1068.84+2500.73+1066.17ZM2525.01+1062.7C2525.06+1059.85+2524.34+1057.5+2522.87+1055.66C2521.39+1053.83+2519.37+1052.91+2516.78+1052.91C2515.33+1052.91+2514.05+1053.19+2512.94+1053.76C2511.83+1054.33+2510.89+1055.06+2510.12+1055.97C2509.35+1056.88+2508.75+1057.92+2508.32+1059.1C2507.89+1060.28+2507.6+1061.48+2507.47+1062.7L2525.01+1062.7Z" opacity="1" fill="#ffffff"/>
<path d="M2551.33+1084.46C2547.43+1084.37+2544.66+1083.53+2543.03+1081.95C2541.4+1080.36+2540.58+1077.89+2540.58+1074.53L2540.58+1032.1L2546.91+1031.01L2546.91+1073.51C2546.91+1074.56+2547+1075.42+2547.18+1076.1C2547.36+1076.78+2547.65+1077.32+2548.06+1077.73C2548.47+1078.14+2549.01+1078.44+2549.69+1078.65C2550.37+1078.85+2551.21+1079.02+2552.21+1079.16L2551.33+1084.46Z" opacity="1" fill="#ffffff"/>
<path d="M2590.49+1066.1C2590.49+1068.91+2590.09+1071.45+2589.27+1073.72C2588.45+1075.98+2587.31+1077.93+2585.84+1079.57C2584.36+1081.2+2582.61+1082.46+2580.57+1083.34C2578.53+1084.22+2576.3+1084.67+2573.9+1084.67C2571.5+1084.67+2569.28+1084.22+2567.24+1083.34C2565.2+1082.46+2563.44+1081.2+2561.97+1079.57C2560.49+1077.93+2559.35+1075.98+2558.53+1073.72C2557.72+1071.45+2557.31+1068.91+2557.31+1066.1C2557.31+1063.34+2557.72+1060.81+2558.53+1058.52C2559.35+1056.23+2560.49+1054.27+2561.97+1052.64C2563.44+1051.01+2565.2+1049.75+2567.24+1048.86C2569.28+1047.98+2571.5+1047.54+2573.9+1047.54C2576.3+1047.54+2578.53+1047.98+2580.57+1048.86C2582.61+1049.75+2584.36+1051.01+2585.84+1052.64C2587.31+1054.27+2588.45+1056.23+2589.27+1058.52C2590.09+1060.81+2590.49+1063.34+2590.49+1066.1ZM2583.9+1066.1C2583.9+1062.11+2583+1058.95+2581.21+1056.62C2579.42+1054.28+2576.98+1053.11+2573.9+1053.11C2570.82+1053.11+2568.38+1054.28+2566.59+1056.62C2564.8+1058.95+2563.91+1062.11+2563.91+1066.1C2563.91+1070.09+2564.8+1073.25+2566.59+1075.59C2568.38+1077.92+2570.82+1079.09+2573.9+1079.09C2576.98+1079.09+2579.42+1077.92+2581.21+1075.59C2583+1073.25+2583.9+1070.09+2583.9+1066.1Z" opacity="1" fill="#ffffff"/>
<path d="M2623.95+1066.17C2623.95+1062.04+2622.93+1058.87+2620.89+1056.65C2618.85+1054.43+2616.13+1053.32+2612.73+1053.32C2610.83+1053.32+2609.34+1053.39+2608.28+1053.52C2607.21+1053.66+2606.36+1053.82+2605.73+1054L2605.73+1076.3C2606.5+1076.94+2607.61+1077.55+2609.06+1078.14C2610.51+1078.73+2612.1+1079.02+2613.82+1079.02C2615.63+1079.02+2617.18+1078.69+2618.48+1078.04C2619.77+1077.38+2620.82+1076.47+2621.64+1075.32C2622.45+1074.16+2623.04+1072.8+2623.41+1071.24C2623.77+1069.67+2623.95+1067.98+2623.95+1066.17ZM2630.55+1066.17C2630.55+1068.84+2630.19+1071.31+2629.49+1073.58C2628.79+1075.85+2627.76+1077.8+2626.4+1079.43C2625.04+1081.06+2623.37+1082.33+2621.4+1083.24C2619.43+1084.14+2617.17+1084.6+2614.63+1084.6C2612.59+1084.6+2610.79+1084.33+2609.23+1083.78C2607.66+1083.24+2606.5+1082.72+2605.73+1082.22L2605.73+1096.36L2599.4+1096.36L2599.4+1049.51C2600.9+1049.15+2602.77+1048.75+2605.01+1048.32C2607.26+1047.89+2609.85+1047.67+2612.8+1047.67C2615.52+1047.67+2617.97+1048.1+2620.14+1048.97C2622.32+1049.83+2624.18+1051.05+2625.72+1052.64C2627.26+1054.22+2628.45+1056.16+2629.29+1058.45C2630.13+1060.74+2630.55+1063.31+2630.55+1066.17Z" opacity="1" fill="#ffffff"/>
<path d="M2637.48+1066.17C2637.48+1063.04+2637.94+1060.31+2638.84+1057.98C2639.75+1055.64+2640.95+1053.7+2642.45+1052.16C2643.94+1050.62+2645.66+1049.46+2647.61+1048.69C2649.56+1047.92+2651.56+1047.54+2653.6+1047.54C2658.36+1047.54+2662.01+1049.02+2664.55+1051.99C2667.08+1054.96+2668.35+1059.48+2668.35+1065.56C2668.35+1065.83+2668.35+1066.18+2668.35+1066.61C2668.35+1067.04+2668.33+1067.44+2668.29+1067.8L2644.08+1067.8C2644.35+1071.47+2645.42+1074.26+2647.27+1076.17C2649.13+1078.07+2652.03+1079.02+2655.98+1079.02C2658.2+1079.02+2660.07+1078.83+2661.59+1078.44C2663.11+1078.06+2664.25+1077.68+2665.02+1077.32L2665.91+1082.63C2665.14+1083.03+2663.79+1083.46+2661.86+1083.92C2659.93+1084.37+2657.75+1084.6+2655.3+1084.6C2652.22+1084.6+2649.55+1084.13+2647.31+1083.2C2645.06+1082.27+2643.22+1080.99+2641.77+1079.36C2640.32+1077.73+2639.24+1075.79+2638.54+1073.55C2637.83+1071.3+2637.48+1068.84+2637.48+1066.17ZM2661.76+1062.7C2661.8+1059.85+2661.09+1057.5+2659.62+1055.66C2658.14+1053.83+2656.11+1052.91+2653.53+1052.91C2652.08+1052.91+2650.8+1053.19+2649.69+1053.76C2648.58+1054.33+2647.64+1055.06+2646.87+1055.97C2646.1+1056.88+2645.49+1057.92+2645.06+1059.1C2644.63+1060.28+2644.35+1061.48+2644.21+1062.7L2661.76+1062.7Z" opacity="1" fill="#ffffff"/>
<path d="M2690.52+1047.67C2691.07+1047.67+2691.69+1047.71+2692.39+1047.78C2693.09+1047.84+2693.79+1047.93+2694.47+1048.05C2695.15+1048.16+2695.77+1048.27+2696.34+1048.39C2696.9+1048.5+2697.32+1048.6+2697.59+1048.69L2696.51+1054.2C2696.01+1054.02+2695.18+1053.8+2694.02+1053.56C2692.87+1053.31+2691.38+1053.18+2689.57+1053.18C2688.39+1053.18+2687.22+1053.31+2686.07+1053.56C2684.91+1053.8+2684.15+1053.97+2683.79+1054.07L2683.79+1083.78L2677.47+1083.78L2677.47+1049.92C2678.96+1049.37+2680.82+1048.86+2683.04+1048.39C2685.26+1047.91+2687.76+1047.67+2690.52+1047.67Z" opacity="1" fill="#ffffff"/>
</g>
</g>
</svg>
