<?xml version="1.0" encoding="UTF-8" standalone="no"?> <!-- Created with Vectornator for iOS (http://vectornator.io/) --><!DOCTYPE svg PUBLIC "-//W3C//DTD SVG 1.1//EN" "http://www.w3.org/Graphics/SVG/1.1/DTD/svg11.dtd">
<svg style="fill-rule:evenodd;clip-rule:evenodd;stroke-linecap:round;stroke-linejoin:round;" xmlns:vectornator="http://vectornator.io" xmlns:xlink="http://www.w3.org/1999/xlink" xmlns="http://www.w3.org/2000/svg" xml:space="preserve" version="1.1" viewBox="0 0 4096 2048">
<metadata>
<vectornator:setting key="DisplayWhiteBackground" value="0"/>
<vectornator:setting key="RulersVisible" value="1"/>
<vectornator:setting key="GridSpacing" value="36"/>
<vectornator:setting key="Units" value="Pixels"/>
<vectornator:setting key="DynamicGuides" value="0"/>
<vectornator:setting key="SnapToPoints" value="0"/>
<vectornator:setting key="CMYKEnabledKey" value="0"/>
<vectornator:setting key="SnapToGrid" value="0"/>
<vectornator:setting key="ShowGrid" value="1"/>
<vectornator:setting key="SnapToEdges" value="0"/>
</metadata>
<defs>
<linearGradient y1="-19.6048" id="LinearGradient" x1="1407.86" y2="1609.9" x2="1418.71" gradientUnits="userSpaceOnUse" gradientTransform="matrix(0.950972 0 0 0.902539 97.3055 96.2712)">
<stop stop-color="#f47403" offset="0"/>
<stop stop-color="#707ba2" offset="1"/>
</linearGradient>
</defs>
<g id="Layer 1" vectornator:layerName="Layer 1">
<path d="M0+0L4096+0L4096+2048L0+2048L0+0Z" opacity="1" fill="url(#LinearGradient)"/>
<g opacity="1">
<path d="M864.171+825.309C864.171+844.109+857.271+859.209+843.471+870.609C829.471+881.809+812.471+887.409+792.471+887.409C774.671+887.409+758.971+882.209+745.371+871.809C731.771+861.409+722.371+847.209+717.171+829.209L743.571+818.409C745.371+824.809+747.871+830.609+751.071+835.809C754.271+841.009+758.021+845.459+762.321+849.159C766.621+852.859+771.371+855.759+776.571+857.859C781.771+859.959+787.271+861.009+793.071+861.009C805.671+861.009+815.971+857.759+823.971+851.259C831.971+844.759+835.971+836.109+835.971+825.309C835.971+816.309+832.671+808.609+826.071+802.209C819.871+796.009+808.271+790.009+791.271+784.209C774.071+778.009+763.371+773.809+759.171+771.609C736.371+760.009+724.971+742.909+724.971+720.309C724.971+704.509+731.271+691.009+743.871+679.809C756.671+668.609+772.371+663.009+790.971+663.009C807.371+663.009+821.571+667.209+833.571+675.609C845.571+683.809+853.571+694.109+857.571+706.509L831.771+717.309C829.371+709.309+824.621+702.659+817.521+697.359C810.421+692.059+801.771+689.409+791.571+689.409C780.771+689.409+771.671+692.409+764.271+698.409C756.871+704.009+753.171+711.309+753.171+720.309C753.171+727.709+756.071+734.109+761.871+739.509C768.271+744.909+782.171+751.309+803.571+758.709C825.371+766.109+840.921+775.159+850.221+785.859C859.521+796.559+864.171+809.709+864.171+825.309Z" opacity="1" fill="#ffffff"/>
<path d="M1020.77+667.809L1056.47+667.809L1056.47+669.009L976.671+761.109L1061.87+881.409L1061.87+882.609L1027.97+882.609L958.071+782.409L925.071+820.509L925.071+882.609L897.471+882.609L897.471+667.809L925.071+667.809L925.071+778.509L926.271+778.509L1020.77+667.809Z" opacity="1" fill="#ffffff"/>
<path d="M1165.97+782.709L1165.97+882.609L1138.37+882.609L1138.37+782.709L1066.07+667.809L1098.47+667.809L1151.57+755.109L1152.77+755.109L1204.67+667.809L1237.07+667.809L1165.97+782.709Z" opacity="1" fill="#ffffff"/>
<path d="M1382.87+882.609L1262.27+882.609L1262.27+667.809L1289.87+667.809L1289.87+856.209L1382.87+856.209L1382.87+882.609Z" opacity="1" fill="#ffffff"/>
<path d="M1489.67+701.709L1454.57+798.609L1525.97+798.609L1490.87+701.709L1489.67+701.709ZM1424.27+882.609L1393.67+882.609L1474.67+667.809L1505.87+667.809L1586.87+882.609L1556.27+882.609L1535.57+824.409L1445.27+824.409L1424.27+882.609Z" opacity="1" fill="#ffffff"/>
<path d="M1639.67+694.209L1639.67+769.809L1684.07+769.809C1695.27+769.809+1704.77+766.159+1712.57+758.859C1720.37+751.559+1724.27+742.509+1724.27+731.709C1724.27+721.709+1720.62+712.959+1713.32+705.459C1706.02+697.959+1696.87+694.209+1685.87+694.209L1639.67+694.209ZM1639.67+882.609L1612.07+882.609L1612.07+667.809L1685.27+667.809C1703.87+667.809+1719.72+673.959+1732.82+686.259C1745.92+698.559+1752.47+713.709+1752.47+731.709C1752.47+746.509+1747.62+759.659+1737.92+771.159C1728.22+782.659+1715.97+790.009+1701.17+793.209L1700.57+794.109L1760.87+881.409L1760.87+882.609L1728.17+882.609L1670.27+795.609L1639.67+795.609L1639.67+882.609Z" opacity="1" fill="#ffffff"/>
<path d="M1879.07+882.609L1851.47+882.609L1851.47+667.809L1879.07+667.809L1953.77+798.609L1954.97+798.609L2029.67+667.809L2057.27+667.809L2057.27+882.609L2029.67+882.609L2029.67+755.109L2030.87+719.109L2029.67+719.109L1962.47+837.009L1946.27+837.009L1879.07+719.109L1877.87+719.109L1879.07+755.109L1879.07+882.609Z" opacity="1" fill="#ffffff"/>
<path d="M2198.57+887.409C2166.77+887.409+2140.17+876.709+2118.77+855.309C2097.57+833.909+2086.97+807.209+2086.97+775.209C2086.97+743.209+2097.57+716.609+2118.77+695.409C2139.97+673.809+2166.57+663.009+2198.57+663.009C2230.97+663.009+2257.27+674.709+2277.47+698.109L2257.67+717.309C2242.27+698.709+2222.57+689.409+2198.57+689.409C2174.77+689.409+2154.87+697.409+2138.87+713.409C2123.07+729.209+2115.17+749.809+2115.17+775.209C2115.17+800.609+2123.07+821.209+2138.87+837.009C2154.87+853.009+2174.77+861.009+2198.57+861.009C2223.57+861.009+2245.27+850.509+2263.67+829.509L2283.77+849.009C2273.57+861.209+2261.07+870.659+2246.27+877.359C2231.47+884.059+2215.57+887.409+2198.57+887.409Z" opacity="1" fill="#ffffff"/>
<path d="M2414.27+887.409C2382.47+887.409+2355.87+876.709+2334.47+855.309C2313.27+833.909+2302.67+807.209+2302.67+775.209C2302.67+743.209+2313.27+716.609+2334.47+695.409C2355.67+673.809+2382.27+663.009+2414.27+663.009C2446.67+663.009+2472.97+674.709+2493.17+698.109L2473.37+717.309C2457.97+698.709+2438.27+689.409+2414.27+689.409C2390.47+689.409+2370.57+697.409+2354.57+713.409C2338.77+729.209+2330.87+749.809+2330.87+775.209C2330.87+800.609+2338.77+821.209+2354.57+837.009C2370.57+853.009+2390.47+861.009+2414.27+861.009C2439.27+861.009+2460.97+850.509+2479.37+829.509L2499.47+849.009C2489.27+861.209+2476.77+870.659+2461.97+877.359C2447.17+884.059+2431.27+887.409+2414.27+887.409Z" opacity="1" fill="#ffffff"/>
<path d="M2609.87+701.709L2574.77+798.609L2646.17+798.609L2611.07+701.709L2609.87+701.709ZM2544.47+882.609L2513.87+882.609L2594.87+667.809L2626.07+667.809L2707.07+882.609L2676.47+882.609L2655.77+824.409L2565.47+824.409L2544.47+882.609Z" opacity="1" fill="#ffffff"/>
<path d="M2803.97+887.409C2780.17+887.409+2760.97+879.609+2746.37+864.009C2731.77+848.609+2724.47+828.209+2724.47+802.809L2724.47+667.809L2752.07+667.809L2752.07+804.009C2752.07+821.609+2756.67+835.509+2765.87+845.709C2775.07+855.909+2787.77+861.009+2803.97+861.009C2820.17+861.009+2832.87+855.909+2842.07+845.709C2851.27+835.509+2855.87+821.609+2855.87+804.009L2855.87+667.809L2883.47+667.809L2883.47+802.809C2883.47+828.809+2876.27+849.409+2861.87+864.609C2847.47+879.809+2828.17+887.409+2803.97+887.409Z" opacity="1" fill="#ffffff"/>
<path d="M3042.47+882.609L2921.87+882.609L2921.87+667.809L2949.47+667.809L2949.47+856.209L3042.47+856.209L3042.47+882.609Z" opacity="1" fill="#ffffff"/>
<path d="M3196.67+667.809L3196.67+694.209L3098.87+694.209L3098.87+762.309L3187.07+762.309L3187.07+788.109L3098.87+788.109L3098.87+856.209L3196.67+856.209L3196.67+882.609L3071.27+882.609L3071.27+667.809L3196.67+667.809Z" opacity="1" fill="#ffffff"/>
<path d="M3315.77+782.709L3315.77+882.609L3288.17+882.609L3288.17+782.709L3215.87+667.809L3248.27+667.809L3301.37+755.109L3302.57+755.109L3354.47+667.809L3386.87+667.809L3315.77+782.709Z" opacity="1" fill="#ffffff"/>
</g>
<g opacity="1">
<path d="M1414.29+1082.78L1408.31+1082.78L1408.31+1036.24L1415.59+1036.24L1438.21+1072.45L1438.47+1072.45L1438.21+1063.48L1438.21+1036.24L1444.19+1036.24L1444.19+1082.78L1437.95+1082.78L1414.29+1044.82L1414.03+1044.82L1414.29+1053.79L1414.29+1082.78Z" opacity="1" fill="#ffffff"/>
<path d="M1450.69+1066.86C1450.69+1061.96+1452.23+1057.91+1455.3+1054.7C1458.42+1051.49+1462.35+1049.89+1467.07+1049.89C1471.79+1049.89+1475.69+1051.49+1478.77+1054.7C1481.89+1057.91+1483.45+1061.96+1483.45+1066.86C1483.45+1071.8+1481.89+1075.85+1478.77+1079.01C1475.69+1082.22+1471.79+1083.82+1467.07+1083.82C1462.35+1083.82+1458.42+1082.22+1455.3+1079.01C1452.23+1075.8+1450.69+1071.75+1450.69+1066.86ZM1456.67+1066.86C1456.67+1070.28+1457.67+1073.05+1459.66+1075.18C1461.65+1077.3+1464.12+1078.36+1467.07+1078.36C1470.02+1078.36+1472.49+1077.3+1474.48+1075.18C1476.47+1073.05+1477.47+1070.28+1477.47+1066.86C1477.47+1063.48+1476.47+1060.72+1474.48+1058.6C1472.44+1056.43+1469.97+1055.35+1467.07+1055.35C1464.17+1055.35+1461.7+1056.43+1459.66+1058.6C1457.67+1060.72+1456.67+1063.48+1456.67+1066.86Z" opacity="1" fill="#ffffff"/>
<path d="M1503.21+1078.36C1506.16+1078.36+1508.56+1077.3+1510.42+1075.18C1512.37+1073.05+1513.35+1070.28+1513.35+1066.86C1513.35+1063.52+1512.37+1060.77+1510.42+1058.6C1508.52+1056.43+1506.11+1055.35+1503.21+1055.35C1500.35+1055.35+1497.94+1056.43+1495.99+1058.6C1494.04+1060.77+1493.07+1063.52+1493.07+1066.86C1493.07+1070.24+1494.04+1072.99+1495.99+1075.11C1497.94+1077.28+1500.35+1078.36+1503.21+1078.36ZM1502.23+1083.82C1498.07+1083.82+1494.5+1082.17+1491.51+1078.88C1488.56+1075.54+1487.09+1071.54+1487.09+1066.86C1487.09+1062.18+1488.56+1058.17+1491.51+1054.83C1494.5+1051.54+1498.07+1049.89+1502.23+1049.89C1504.57+1049.89+1506.71+1050.39+1508.64+1051.39C1510.56+1052.38+1512.05+1053.7+1513.09+1055.35L1513.35+1055.35L1513.09+1050.93L1513.09+1036.24L1519.07+1036.24L1519.07+1082.78L1513.35+1082.78L1513.35+1078.36L1513.09+1078.36C1512.05+1080.01+1510.56+1081.33+1508.64+1082.33C1506.71+1083.32+1504.57+1083.82+1502.23+1083.82Z" opacity="1" fill="#ffffff"/>
<path d="M1540.32+1083.82C1535.64+1083.82+1531.79+1082.22+1528.75+1079.01C1525.72+1075.8+1524.2+1071.75+1524.2+1066.86C1524.2+1062+1525.68+1057.96+1528.62+1054.73C1531.57+1051.51+1535.34+1049.89+1539.93+1049.89C1544.66+1049.89+1548.42+1051.42+1551.21+1054.47C1554.01+1057.53+1555.4+1061.81+1555.4+1067.31L1555.34+1067.96L1530.31+1067.96C1530.4+1071.08+1531.44+1073.59+1533.43+1075.5C1535.43+1077.41+1537.81+1078.36+1540.58+1078.36C1544.4+1078.36+1547.39+1076.45+1549.55+1072.64L1554.88+1075.24C1553.45+1077.93+1551.47+1080.03+1548.94+1081.55C1546.4+1083.06+1543.53+1083.82+1540.32+1083.82ZM1530.77+1063.02L1549.03+1063.02C1548.86+1060.81+1547.96+1058.98+1546.34+1057.53C1544.71+1056.08+1542.53+1055.35+1539.8+1055.35C1537.55+1055.35+1535.61+1056.04+1533.99+1057.43C1532.36+1058.82+1531.29+1060.68+1530.77+1063.02Z" opacity="1" fill="#ffffff"/>
<path d="M1573.28+1083.82C1569.77+1083.82+1566.74+1082.87+1564.18+1080.96C1561.62+1079.05+1559.82+1076.41+1558.78+1073.03L1564.44+1070.69C1565.91+1075.63+1568.86+1078.1+1573.28+1078.1C1575.71+1078.1+1577.67+1077.25+1579.16+1075.53C1580.66+1073.82+1581.4+1071.6+1581.4+1068.87L1581.4+1036.24L1587.38+1036.24L1587.38+1068.35C1587.38+1073.16+1586.12+1076.94+1583.58+1079.69C1581.05+1082.45+1577.61+1083.82+1573.28+1083.82Z" opacity="1" fill="#ffffff"/>
<path d="M1624.69+1070.37C1624.69+1074.44+1623.2+1077.71+1620.21+1080.18C1617.18+1082.61+1613.49+1083.82+1609.16+1083.82C1605.3+1083.82+1601.9+1082.69+1598.95+1080.44C1596.01+1078.19+1593.97+1075.11+1592.84+1071.21L1598.56+1068.87C1598.95+1070.26+1599.5+1071.51+1600.19+1072.64C1600.88+1073.77+1601.69+1074.73+1602.63+1075.53C1603.56+1076.34+1604.59+1076.96+1605.71+1077.42C1606.84+1077.87+1608.03+1078.1+1609.29+1078.1C1612.02+1078.1+1614.25+1077.4+1615.98+1075.99C1617.72+1074.58+1618.58+1072.71+1618.58+1070.37C1618.58+1068.42+1617.87+1066.75+1616.44+1065.36C1615.1+1064.02+1612.58+1062.72+1608.9+1061.46C1605.17+1060.12+1602.85+1059.21+1601.94+1058.73C1597+1056.22+1594.53+1052.51+1594.53+1047.62C1594.53+1044.19+1595.9+1041.27+1598.63+1038.84C1601.4+1036.41+1604.8+1035.2+1608.83+1035.2C1612.39+1035.2+1615.46+1036.11+1618.06+1037.93C1620.66+1039.71+1622.4+1041.94+1623.26+1044.63L1617.67+1046.97C1617.15+1045.23+1616.12+1043.79+1614.59+1042.64C1613.05+1041.5+1611.17+1040.92+1608.96+1040.92C1606.62+1040.92+1604.65+1041.57+1603.05+1042.87C1601.45+1044.08+1600.64+1045.67+1600.64+1047.62C1600.64+1049.22+1601.27+1050.61+1602.53+1051.78C1603.92+1052.95+1606.93+1054.33+1611.56+1055.94C1616.29+1057.54+1619.66+1059.5+1621.67+1061.82C1623.69+1064.14+1624.69+1066.99+1624.69+1070.37Z" opacity="1" fill="#ffffff"/>
<path d="M1632.88+1090.06L1630.09+1088.24L1633.6+1082.78C1632.69+1082.61+1631.92+1082.15+1631.29+1081.42C1630.66+1080.68+1630.35+1079.79+1630.35+1078.75C1630.35+1077.49+1630.78+1076.44+1631.65+1075.6C1632.52+1074.75+1633.56+1074.33+1634.77+1074.33C1636.03+1074.33+1637.08+1074.75+1637.92+1075.6C1638.77+1076.44+1639.19+1077.49+1639.19+1078.75C1639.19+1079.92+1638.76+1081.2+1637.89+1082.59L1632.88+1090.06Z" opacity="1" fill="#ffffff"/>
<path d="M1688.07+1070.37C1688.07+1074.44+1686.57+1077.71+1683.58+1080.18C1680.55+1082.61+1676.87+1083.82+1672.53+1083.82C1668.68+1083.82+1665.28+1082.69+1662.33+1080.44C1659.38+1078.19+1657.35+1075.11+1656.22+1071.21L1661.94+1068.87C1662.33+1070.26+1662.87+1071.51+1663.56+1072.64C1664.26+1073.77+1665.07+1074.73+1666+1075.53C1666.93+1076.34+1667.96+1076.96+1669.09+1077.42C1670.22+1077.87+1671.41+1078.1+1672.66+1078.1C1675.39+1078.1+1677.63+1077.4+1679.36+1075.99C1681.09+1074.58+1681.96+1072.71+1681.96+1070.37C1681.96+1068.42+1681.24+1066.75+1679.81+1065.36C1678.47+1064.02+1675.96+1062.72+1672.27+1061.46C1668.55+1060.12+1666.23+1059.21+1665.32+1058.73C1660.38+1056.22+1657.91+1052.51+1657.91+1047.62C1657.91+1044.19+1659.27+1041.27+1662+1038.84C1664.78+1036.41+1668.18+1035.2+1672.21+1035.2C1675.76+1035.2+1678.84+1036.11+1681.44+1037.93C1684.04+1039.71+1685.77+1041.94+1686.64+1044.63L1681.05+1046.97C1680.53+1045.23+1679.5+1043.79+1677.96+1042.64C1676.42+1041.5+1674.55+1040.92+1672.34+1040.92C1670+1040.92+1668.03+1041.57+1666.42+1042.87C1664.82+1044.08+1664.02+1045.67+1664.02+1047.62C1664.02+1049.22+1664.65+1050.61+1665.9+1051.78C1667.29+1052.95+1670.3+1054.33+1674.94+1055.94C1679.66+1057.54+1683.03+1059.5+1685.05+1061.82C1687.06+1064.14+1688.07+1066.99+1688.07+1070.37Z" opacity="1" fill="#ffffff"/>
<path d="M1694.24+1036.24L1700.22+1036.24L1700.22+1050.93L1699.96+1055.35L1700.22+1055.35C1701.13+1053.79+1702.53+1052.49+1704.42+1051.45C1706.3+1050.41+1708.26+1049.89+1710.3+1049.89C1714.2+1049.89+1717.2+1051.01+1719.3+1053.24C1721.4+1055.47+1722.45+1058.64+1722.45+1062.76L1722.45+1082.78L1716.47+1082.78L1716.47+1063.93C1716.47+1058.21+1713.94+1055.35+1708.87+1055.35C1706.44+1055.35+1704.39+1056.36+1702.73+1058.37C1701.06+1060.39+1700.22+1062.74+1700.22+1065.43L1700.22+1082.78L1694.24+1082.78L1694.24+1036.24Z" opacity="1" fill="#ffffff"/>
<path d="M1743.77+1083.82C1739.09+1083.82+1735.24+1082.22+1732.2+1079.01C1729.17+1075.8+1727.65+1071.75+1727.65+1066.86C1727.65+1062+1729.13+1057.96+1732.07+1054.73C1735.02+1051.51+1738.79+1049.89+1743.38+1049.89C1748.11+1049.89+1751.87+1051.42+1754.66+1054.47C1757.46+1057.53+1758.85+1061.81+1758.85+1067.31L1758.79+1067.96L1733.76+1067.96C1733.85+1071.08+1734.89+1073.59+1736.88+1075.5C1738.88+1077.41+1741.26+1078.36+1744.03+1078.36C1747.85+1078.36+1750.84+1076.45+1753+1072.64L1758.33+1075.24C1756.9+1077.93+1754.92+1080.03+1752.39+1081.55C1749.85+1083.06+1746.98+1083.82+1743.77+1083.82ZM1734.22+1063.02L1752.48+1063.02C1752.31+1060.81+1751.41+1058.98+1749.79+1057.53C1748.16+1056.08+1745.98+1055.35+1743.25+1055.35C1741+1055.35+1739.06+1056.04+1737.44+1057.43C1735.81+1058.82+1734.74+1060.68+1734.22+1063.02Z" opacity="1" fill="#ffffff"/>
<path d="M1770.29+1036.24L1770.29+1082.78L1764.31+1082.78L1764.31+1036.24L1770.29+1036.24Z" opacity="1" fill="#ffffff"/>
<path d="M1783.55+1036.24L1783.55+1082.78L1777.57+1082.78L1777.57+1036.24L1783.55+1036.24Z" opacity="1" fill="#ffffff"/>
<path d="M1792.85+1090.06L1790.05+1088.24L1793.56+1082.78C1792.65+1082.61+1791.88+1082.15+1791.26+1081.42C1790.63+1080.68+1790.31+1079.79+1790.31+1078.75C1790.31+1077.49+1790.75+1076.44+1791.61+1075.6C1792.48+1074.75+1793.52+1074.33+1794.73+1074.33C1795.99+1074.33+1797.04+1074.75+1797.89+1075.6C1798.73+1076.44+1799.15+1077.49+1799.15+1078.75C1799.15+1079.92+1798.72+1081.2+1797.85+1082.59L1792.85+1090.06Z" opacity="1" fill="#ffffff"/>
<path d="M1824.57+1073.03C1824.57+1074.59+1825.23+1075.89+1826.55+1076.93C1827.87+1077.97+1829.42+1078.49+1831.2+1078.49C1833.71+1078.49+1835.95+1077.56+1837.93+1075.7C1839.9+1073.83+1840.88+1071.64+1840.88+1069.13C1839.02+1067.66+1836.42+1066.92+1833.08+1066.92C1830.66+1066.92+1828.63+1067.51+1827.01+1068.68C1825.38+1069.85+1824.57+1071.3+1824.57+1073.03ZM1832.3+1049.89C1836.72+1049.89+1840.21+1051.07+1842.77+1053.43C1845.33+1055.8+1846.6+1059.03+1846.6+1063.15L1846.6+1082.78L1840.88+1082.78L1840.88+1078.36L1840.62+1078.36C1838.15+1082+1834.86+1083.82+1830.74+1083.82C1827.23+1083.82+1824.3+1082.78+1821.94+1080.7C1819.57+1078.62+1818.39+1076.02+1818.39+1072.9C1818.39+1069.61+1819.64+1066.99+1822.13+1065.04C1824.62+1063.09+1827.95+1062.11+1832.11+1062.11C1835.66+1062.11+1838.59+1062.76+1840.88+1064.06L1840.88+1062.7C1840.88+1060.62+1840.06+1058.85+1838.41+1057.4C1836.77+1055.95+1834.84+1055.22+1832.63+1055.22C1829.29+1055.22+1826.65+1056.63+1824.7+1059.45L1819.43+1056.13C1822.34+1051.97+1826.63+1049.89+1832.3+1049.89Z" opacity="1" fill="#ffffff"/>
<path d="M1853.36+1050.93L1859.08+1050.93L1859.08+1055.35L1859.34+1055.35C1860.25+1053.79+1861.65+1052.49+1863.54+1051.45C1865.42+1050.41+1867.38+1049.89+1869.42+1049.89C1873.32+1049.89+1876.32+1051.01+1878.42+1053.24C1880.52+1055.47+1881.57+1058.64+1881.57+1062.76L1881.57+1082.78L1875.59+1082.78L1875.59+1063.15C1875.46+1057.95+1872.84+1055.35+1867.73+1055.35C1865.35+1055.35+1863.35+1056.32+1861.75+1058.24C1860.15+1060.17+1859.34+1062.48+1859.34+1065.17L1859.34+1082.78L1853.36+1082.78L1853.36+1050.93Z" opacity="1" fill="#ffffff"/>
<path d="M1902.89+1078.36C1905.84+1078.36+1908.25+1077.3+1910.11+1075.18C1912.06+1073.05+1913.03+1070.28+1913.03+1066.86C1913.03+1063.52+1912.06+1060.77+1910.11+1058.6C1908.2+1056.43+1905.8+1055.35+1902.89+1055.35C1900.03+1055.35+1897.63+1056.43+1895.68+1058.6C1893.73+1060.77+1892.75+1063.52+1892.75+1066.86C1892.75+1070.24+1893.73+1072.99+1895.68+1075.11C1897.63+1077.28+1900.03+1078.36+1902.89+1078.36ZM1901.92+1083.82C1897.76+1083.82+1894.18+1082.17+1891.19+1078.88C1888.25+1075.54+1886.77+1071.54+1886.77+1066.86C1886.77+1062.18+1888.25+1058.17+1891.19+1054.83C1894.18+1051.54+1897.76+1049.89+1901.92+1049.89C1904.26+1049.89+1906.39+1050.39+1908.32+1051.39C1910.25+1052.38+1911.73+1053.7+1912.77+1055.35L1913.03+1055.35L1912.77+1050.93L1912.77+1036.24L1918.75+1036.24L1918.75+1082.78L1913.03+1082.78L1913.03+1078.36L1912.77+1078.36C1911.73+1080.01+1910.25+1081.33+1908.32+1082.33C1906.39+1083.32+1904.26+1083.82+1901.92+1083.82Z" opacity="1" fill="#ffffff"/>
<path d="M1986.74+1036.24L1992.98+1036.24L1980.57+1082.78L1974.46+1082.78L1964.45+1052.1L1964.19+1052.1L1954.18+1082.78L1948.07+1082.78L1935.13+1036.24L1941.37+1036.24L1951.19+1072.84L1951.45+1072.84L1961.52+1042.48L1967.11+1042.48L1977.19+1072.84L1977.45+1072.84L1986.74+1036.24Z" opacity="1" fill="#ffffff"/>
<path d="M2008.39+1083.82C2003.71+1083.82+1999.85+1082.22+1996.82+1079.01C1993.79+1075.8+1992.27+1071.75+1992.27+1066.86C1992.27+1062+1993.74+1057.96+1996.69+1054.73C1999.64+1051.51+2003.41+1049.89+2008+1049.89C2012.72+1049.89+2016.48+1051.42+2019.28+1054.47C2022.07+1057.53+2023.47+1061.81+2023.47+1067.31L2023.4+1067.96L1998.38+1067.96C1998.47+1071.08+1999.51+1073.59+2001.5+1075.5C2003.49+1077.41+2005.88+1078.36+2008.65+1078.36C2012.46+1078.36+2015.45+1076.45+2017.62+1072.64L2022.95+1075.24C2021.52+1077.93+2019.54+1080.03+2017+1081.55C2014.47+1083.06+2011.6+1083.82+2008.39+1083.82ZM1998.83+1063.02L2017.1+1063.02C2016.93+1060.81+2016.03+1058.98+2014.4+1057.53C2012.78+1056.08+2010.6+1055.35+2007.87+1055.35C2005.62+1055.35+2003.68+1056.04+2002.05+1057.43C2000.43+1058.82+1999.35+1060.68+1998.83+1063.02Z" opacity="1" fill="#ffffff"/>
<path d="M2045.76+1083.82C2043.42+1083.82+2041.29+1083.32+2039.36+1082.33C2037.43+1081.33+2035.95+1080.01+2034.91+1078.36L2034.65+1078.36L2034.65+1082.78L2028.93+1082.78L2028.93+1036.24L2034.91+1036.24L2034.91+1050.93L2034.65+1055.35L2034.91+1055.35C2035.95+1053.7+2037.43+1052.38+2039.36+1051.39C2041.29+1050.39+2043.42+1049.89+2045.76+1049.89C2049.97+1049.89+2053.52+1051.54+2056.42+1054.83C2059.41+1058.17+2060.91+1062.18+2060.91+1066.86C2060.91+1071.58+2059.41+1075.59+2056.42+1078.88C2053.52+1082.17+2049.97+1083.82+2045.76+1083.82ZM2044.79+1078.36C2047.65+1078.36+2050.05+1077.28+2052+1075.11C2053.95+1072.99+2054.93+1070.24+2054.93+1066.86C2054.93+1063.52+2053.95+1060.77+2052+1058.6C2050.05+1056.43+2047.65+1055.35+2044.79+1055.35C2041.89+1055.35+2039.46+1056.43+2037.51+1058.6C2035.6+1060.77+2034.65+1063.52+2034.65+1066.86C2034.65+1070.24+2035.6+1073.01+2037.51+1075.18C2039.46+1077.3+2041.89+1078.36+2044.79+1078.36Z" opacity="1" fill="#ffffff"/>
<path d="M2087.69+1062.83L2087.69+1082.78L2081.71+1082.78L2081.71+1036.24L2108.88+1036.24L2108.88+1041.96L2087.69+1041.96L2087.69+1057.24L2106.8+1057.24L2106.8+1062.83L2087.69+1062.83Z" opacity="1" fill="#ffffff"/>
<path d="M2119.28+1082.78L2113.3+1082.78L2113.3+1050.93L2119.02+1050.93L2119.02+1056.13L2119.28+1056.13C2119.89+1054.44+2121.13+1053+2123.02+1051.81C2124.9+1050.62+2126.75+1050.02+2128.57+1050.02C2130.31+1050.02+2131.78+1050.28+2132.99+1050.8L2131.17+1056.59C2130.44+1056.28+2129.27+1056.13+2127.66+1056.13C2125.41+1056.13+2123.45+1057.04+2121.78+1058.86C2120.11+1060.68+2119.28+1062.8+2119.28+1065.23L2119.28+1082.78Z" opacity="1" fill="#ffffff"/>
<path d="M2133.12+1066.86C2133.12+1061.96+2134.66+1057.91+2137.74+1054.7C2140.86+1051.49+2144.78+1049.89+2149.5+1049.89C2154.23+1049.89+2158.13+1051.49+2161.2+1054.7C2164.32+1057.91+2165.88+1061.96+2165.88+1066.86C2165.88+1071.8+2164.32+1075.85+2161.2+1079.01C2158.13+1082.22+2154.23+1083.82+2149.5+1083.82C2144.78+1083.82+2140.86+1082.22+2137.74+1079.01C2134.66+1075.8+2133.12+1071.75+2133.12+1066.86ZM2139.1+1066.86C2139.1+1070.28+2140.1+1073.05+2142.09+1075.18C2144.09+1077.3+2146.56+1078.36+2149.5+1078.36C2152.45+1078.36+2154.92+1077.3+2156.91+1075.18C2158.91+1073.05+2159.9+1070.28+2159.9+1066.86C2159.9+1063.48+2158.91+1060.72+2156.91+1058.6C2154.88+1056.43+2152.41+1055.35+2149.5+1055.35C2146.6+1055.35+2144.13+1056.43+2142.09+1058.6C2140.1+1060.72+2139.1+1063.48+2139.1+1066.86Z" opacity="1" fill="#ffffff"/>
<path d="M2170.69+1050.93L2176.41+1050.93L2176.41+1055.35L2176.67+1055.35C2177.58+1053.79+2178.98+1052.49+2180.87+1051.45C2182.75+1050.41+2184.71+1049.89+2186.75+1049.89C2190.65+1049.89+2193.65+1051.01+2195.75+1053.24C2197.85+1055.47+2198.9+1058.64+2198.9+1062.76L2198.9+1082.78L2192.92+1082.78L2192.92+1063.15C2192.79+1057.95+2190.17+1055.35+2185.06+1055.35C2182.68+1055.35+2180.68+1056.32+2179.08+1058.24C2177.48+1060.17+2176.67+1062.48+2176.67+1065.17L2176.67+1082.78L2170.69+1082.78L2170.69+1050.93Z" opacity="1" fill="#ffffff"/>
<path d="M2216.91+1083.3C2214.31+1083.3+2212.15+1082.5+2210.44+1080.9C2208.73+1079.29+2207.85+1077.06+2207.81+1074.2L2207.81+1056.39L2202.22+1056.39L2202.22+1050.93L2207.81+1050.93L2207.81+1041.18L2213.79+1041.18L2213.79+1050.93L2221.59+1050.93L2221.59+1056.39L2213.79+1056.39L2213.79+1072.25C2213.79+1074.37+2214.2+1075.82+2215.02+1076.57C2215.85+1077.33+2216.78+1077.71+2217.82+1077.71C2218.3+1077.71+2218.76+1077.66+2219.22+1077.55C2219.67+1077.44+2220.09+1077.3+2220.48+1077.13L2222.37+1082.46C2220.81+1083.02+2218.99+1083.3+2216.91+1083.3Z" opacity="1" fill="#ffffff"/>
<path d="M2241.28+1083.82C2236.6+1083.82+2232.75+1082.22+2229.71+1079.01C2226.68+1075.8+2225.16+1071.75+2225.16+1066.86C2225.16+1062+2226.64+1057.96+2229.58+1054.73C2232.53+1051.51+2236.3+1049.89+2240.89+1049.89C2245.62+1049.89+2249.38+1051.42+2252.17+1054.47C2254.97+1057.53+2256.36+1061.81+2256.36+1067.31L2256.3+1067.96L2231.27+1067.96C2231.36+1071.08+2232.4+1073.59+2234.39+1075.5C2236.39+1077.41+2238.77+1078.36+2241.54+1078.36C2245.36+1078.36+2248.35+1076.45+2250.51+1072.64L2255.84+1075.24C2254.41+1077.93+2252.43+1080.03+2249.9+1081.55C2247.36+1083.06+2244.49+1083.82+2241.28+1083.82ZM2231.73+1063.02L2249.99+1063.02C2249.82+1060.81+2248.92+1058.98+2247.3+1057.53C2245.67+1056.08+2243.49+1055.35+2240.76+1055.35C2238.51+1055.35+2236.57+1056.04+2234.95+1057.43C2233.32+1058.82+2232.25+1060.68+2231.73+1063.02Z" opacity="1" fill="#ffffff"/>
<path d="M2261.82+1050.93L2267.54+1050.93L2267.54+1055.35L2267.8+1055.35C2268.71+1053.79+2270.11+1052.49+2272+1051.45C2273.88+1050.41+2275.84+1049.89+2277.88+1049.89C2281.78+1049.89+2284.78+1051.01+2286.88+1053.24C2288.98+1055.47+2290.03+1058.64+2290.03+1062.76L2290.03+1082.78L2284.05+1082.78L2284.05+1063.15C2283.92+1057.95+2281.3+1055.35+2276.19+1055.35C2273.81+1055.35+2271.81+1056.32+2270.21+1058.24C2268.61+1060.17+2267.8+1062.48+2267.8+1065.17L2267.8+1082.78L2261.82+1082.78L2261.82+1050.93Z" opacity="1" fill="#ffffff"/>
<path d="M2311.35+1078.36C2314.3+1078.36+2316.71+1077.3+2318.57+1075.18C2320.52+1073.05+2321.49+1070.28+2321.49+1066.86C2321.49+1063.52+2320.52+1060.77+2318.57+1058.6C2316.66+1056.43+2314.26+1055.35+2311.35+1055.35C2308.49+1055.35+2306.09+1056.43+2304.14+1058.6C2302.19+1060.77+2301.21+1063.52+2301.21+1066.86C2301.21+1070.24+2302.19+1072.99+2304.14+1075.11C2306.09+1077.28+2308.49+1078.36+2311.35+1078.36ZM2310.38+1083.82C2306.22+1083.82+2302.64+1082.17+2299.65+1078.88C2296.71+1075.54+2295.23+1071.54+2295.23+1066.86C2295.23+1062.18+2296.71+1058.17+2299.65+1054.83C2302.64+1051.54+2306.22+1049.89+2310.38+1049.89C2312.72+1049.89+2314.85+1050.39+2316.78+1051.39C2318.71+1052.38+2320.19+1053.7+2321.23+1055.35L2321.49+1055.35L2321.23+1050.93L2321.23+1036.24L2327.21+1036.24L2327.21+1082.78L2321.49+1082.78L2321.49+1078.36L2321.23+1078.36C2320.19+1080.01+2318.71+1081.33+2316.78+1082.33C2314.85+1083.32+2312.72+1083.82+2310.38+1083.82Z" opacity="1" fill="#ffffff"/>
<path d="M2349.83+1082.78L2349.83+1036.24L2364.07+1036.24C2371.18+1036.24+2376.88+1038.39+2381.2+1042.68C2385.51+1046.97+2387.66+1052.58+2387.66+1059.51C2387.66+1066.49+2385.51+1072.11+2381.2+1076.38C2376.88+1080.65+2371.18+1082.78+2364.07+1082.78L2349.83+1082.78ZM2355.81+1041.96L2355.81+1077.06L2364.07+1077.06C2369.49+1077.06+2373.75+1075.51+2376.87+1072.41C2379.99+1069.32+2381.55+1065.01+2381.55+1059.51C2381.55+1054.05+2379.99+1049.76+2376.87+1046.64C2373.75+1043.52+2369.49+1041.96+2364.07+1041.96L2355.81+1041.96Z" opacity="1" fill="#ffffff"/>
<path d="M2407.03+1083.82C2402.35+1083.82+2398.5+1082.22+2395.46+1079.01C2392.43+1075.8+2390.91+1071.75+2390.91+1066.86C2390.91+1062+2392.39+1057.96+2395.33+1054.73C2398.28+1051.51+2402.05+1049.89+2406.64+1049.89C2411.37+1049.89+2415.13+1051.42+2417.92+1054.47C2420.72+1057.53+2422.11+1061.81+2422.11+1067.31L2422.05+1067.96L2397.02+1067.96C2397.11+1071.08+2398.15+1073.59+2400.14+1075.5C2402.14+1077.41+2404.52+1078.36+2407.29+1078.36C2411.11+1078.36+2414.1+1076.45+2416.26+1072.64L2421.59+1075.24C2420.16+1077.93+2418.18+1080.03+2415.65+1081.55C2413.11+1083.06+2410.24+1083.82+2407.03+1083.82ZM2397.48+1063.02L2415.74+1063.02C2415.57+1060.81+2414.67+1058.98+2413.05+1057.53C2411.42+1056.08+2409.24+1055.35+2406.51+1055.35C2404.26+1055.35+2402.32+1056.04+2400.7+1057.43C2399.07+1058.82+2398+1060.68+2397.48+1063.02Z" opacity="1" fill="#ffffff"/>
<path d="M2442.39+1082.78L2436.41+1082.78L2423.54+1050.93L2430.04+1050.93L2439.4+1075.63L2439.53+1075.63L2449.02+1050.93L2455.39+1050.93L2442.39+1082.78Z" opacity="1" fill="#ffffff"/>
<path d="M2472.62+1083.82C2467.94+1083.82+2464.08+1082.22+2461.05+1079.01C2458.02+1075.8+2456.5+1071.75+2456.5+1066.86C2456.5+1062+2457.97+1057.96+2460.92+1054.73C2463.87+1051.51+2467.64+1049.89+2472.23+1049.89C2476.95+1049.89+2480.71+1051.42+2483.51+1054.47C2486.3+1057.53+2487.7+1061.81+2487.7+1067.31L2487.63+1067.96L2462.61+1067.96C2462.7+1071.08+2463.74+1073.59+2465.73+1075.5C2467.72+1077.41+2470.11+1078.36+2472.88+1078.36C2476.69+1078.36+2479.68+1076.45+2481.85+1072.64L2487.18+1075.24C2485.75+1077.93+2483.77+1080.03+2481.23+1081.55C2478.7+1083.06+2475.83+1083.82+2472.62+1083.82ZM2463.06+1063.02L2481.33+1063.02C2481.16+1060.81+2480.26+1058.98+2478.63+1057.53C2477.01+1056.08+2474.83+1055.35+2472.1+1055.35C2469.85+1055.35+2467.91+1056.04+2466.28+1057.43C2464.66+1058.82+2463.58+1060.68+2463.06+1063.02Z" opacity="1" fill="#ffffff"/>
<path d="M2499.14+1036.24L2499.14+1082.78L2493.16+1082.78L2493.16+1036.24L2499.14+1036.24Z" opacity="1" fill="#ffffff"/>
<path d="M2504.27+1066.86C2504.27+1061.96+2505.81+1057.91+2508.89+1054.7C2512.01+1051.49+2515.93+1049.89+2520.65+1049.89C2525.38+1049.89+2529.28+1051.49+2532.35+1054.7C2535.47+1057.91+2537.03+1061.96+2537.03+1066.86C2537.03+1071.8+2535.47+1075.85+2532.35+1079.01C2529.28+1082.22+2525.38+1083.82+2520.65+1083.82C2515.93+1083.82+2512.01+1082.22+2508.89+1079.01C2505.81+1075.8+2504.27+1071.75+2504.27+1066.86ZM2510.25+1066.86C2510.25+1070.28+2511.25+1073.05+2513.24+1075.18C2515.24+1077.3+2517.71+1078.36+2520.65+1078.36C2523.6+1078.36+2526.07+1077.3+2528.06+1075.18C2530.06+1073.05+2531.05+1070.28+2531.05+1066.86C2531.05+1063.48+2530.06+1060.72+2528.06+1058.6C2526.03+1056.43+2523.56+1055.35+2520.65+1055.35C2517.75+1055.35+2515.28+1056.43+2513.24+1058.6C2511.25+1060.72+2510.25+1063.48+2510.25+1066.86Z" opacity="1" fill="#ffffff"/>
<path d="M2557.77+1078.36C2560.63+1078.36+2563.03+1077.28+2564.98+1075.11C2566.93+1072.99+2567.91+1070.24+2567.91+1066.86C2567.91+1063.52+2566.93+1060.77+2564.98+1058.6C2563.03+1056.43+2560.63+1055.35+2557.77+1055.35C2554.87+1055.35+2552.44+1056.43+2550.49+1058.6C2548.58+1060.77+2547.63+1063.52+2547.63+1066.86C2547.63+1070.24+2548.58+1073.01+2550.49+1075.18C2552.44+1077.3+2554.87+1078.36+2557.77+1078.36ZM2558.74+1083.82C2556.4+1083.82+2554.27+1083.32+2552.34+1082.33C2550.41+1081.33+2548.93+1080.01+2547.89+1078.36L2547.63+1078.36L2547.89+1082.78L2547.89+1096.82L2541.91+1096.82L2541.91+1050.93L2547.63+1050.93L2547.63+1055.35L2547.89+1055.35C2548.93+1053.7+2550.41+1052.38+2552.34+1051.39C2554.27+1050.39+2556.4+1049.89+2558.74+1049.89C2562.95+1049.89+2566.5+1051.54+2569.4+1054.83C2572.39+1058.17+2573.89+1062.18+2573.89+1066.86C2573.89+1071.58+2572.39+1075.59+2569.4+1078.88C2566.5+1082.17+2562.95+1083.82+2558.74+1083.82Z" opacity="1" fill="#ffffff"/>
<path d="M2593.65+1083.82C2588.97+1083.82+2585.11+1082.22+2582.08+1079.01C2579.05+1075.8+2577.53+1071.75+2577.53+1066.86C2577.53+1062+2579+1057.96+2581.95+1054.73C2584.9+1051.51+2588.67+1049.89+2593.26+1049.89C2597.98+1049.89+2601.74+1051.42+2604.54+1054.47C2607.33+1057.53+2608.73+1061.81+2608.73+1067.31L2608.66+1067.96L2583.64+1067.96C2583.73+1071.08+2584.77+1073.59+2586.76+1075.5C2588.75+1077.41+2591.14+1078.36+2593.91+1078.36C2597.72+1078.36+2600.71+1076.45+2602.88+1072.64L2608.21+1075.24C2606.78+1077.93+2604.8+1080.03+2602.26+1081.55C2599.73+1083.06+2596.86+1083.82+2593.65+1083.82ZM2584.09+1063.02L2602.36+1063.02C2602.19+1060.81+2601.29+1058.98+2599.66+1057.53C2598.04+1056.08+2595.86+1055.35+2593.13+1055.35C2590.88+1055.35+2588.94+1056.04+2587.31+1057.43C2585.69+1058.82+2584.61+1060.68+2584.09+1063.02Z" opacity="1" fill="#ffffff"/>
<path d="M2620.17+1082.78L2614.19+1082.78L2614.19+1050.93L2619.91+1050.93L2619.91+1056.13L2620.17+1056.13C2620.78+1054.44+2622.02+1053+2623.91+1051.81C2625.79+1050.62+2627.64+1050.02+2629.46+1050.02C2631.2+1050.02+2632.67+1050.28+2633.88+1050.8L2632.06+1056.59C2631.33+1056.28+2630.16+1056.13+2628.55+1056.13C2626.3+1056.13+2624.34+1057.04+2622.67+1058.86C2621+1060.68+2620.17+1062.8+2620.17+1065.23L2620.17+1082.78Z" opacity="1" fill="#ffffff"/>
</g>
</g>
</svg>
