<?xml version="1.0" encoding="UTF-8" standalone="no"?> <!-- Created with Vectornator for iOS (http://vectornator.io/) --><!DOCTYPE svg PUBLIC "-//W3C//DTD SVG 1.1//EN" "http://www.w3.org/Graphics/SVG/1.1/DTD/svg11.dtd">
<svg style="fill-rule:evenodd;clip-rule:evenodd;stroke-linecap:round;stroke-linejoin:round;" xmlns:vectornator="http://vectornator.io" xmlns:xlink="http://www.w3.org/1999/xlink" xmlns="http://www.w3.org/2000/svg" xml:space="preserve" version="1.1" viewBox="0 0 4096 2048">
<metadata>
<vectornator:setting key="DisplayWhiteBackground" value="0"/>
<vectornator:setting key="RulersVisible" value="1"/>
<vectornator:setting key="GridSpacing" value="36"/>
<vectornator:setting key="Units" value="Pixels"/>
<vectornator:setting key="DynamicGuides" value="0"/>
<vectornator:setting key="SnapToPoints" value="0"/>
<vectornator:setting key="CMYKEnabledKey" value="0"/>
<vectornator:setting key="SnapToGrid" value="0"/>
<vectornator:setting key="ShowGrid" value="1"/>
<vectornator:setting key="SnapToEdges" value="0"/>
</metadata>
<defs>
<linearGradient y1="-19.6048" id="LinearGradient" x1="1407.86" y2="1609.9" x2="1418.71" gradientUnits="userSpaceOnUse" gradientTransform="matrix(0.950972 0 0 0.902539 97.3055 96.2712)">
<stop stop-color="#025260" offset="0"/>
<stop stop-opacity="0.95" stop-color="#ff692f" offset="1"/>
</linearGradient>
</defs>
<g id="Layer 1" vectornator:layerName="Layer 1">
<path d="M0+0L4096+0L4096+2048L0+2048L0+0Z" opacity="1" fill="url(#LinearGradient)"/>
<g opacity="1">
<path d="M1076.87+964.859C1064.57+964.859+1053.88+962.909+1044.81+959.009C1035.73+955.109+1028.83+949.971+1024.11+943.596C1019.38+937.221+1016.87+930.359+1016.57+923.009C1016.57+921.809+1017.02+920.759+1017.92+919.859C1018.82+918.959+1019.95+918.509+1021.3+918.509L1032.32+918.509C1035.02+918.509+1036.9+920.009+1037.95+923.009C1039.3+929.309+1043.16+934.746+1049.53+939.321C1055.91+943.896+1065.02+946.184+1076.87+946.184C1089.62+946.184+1099.15+943.934+1105.45+939.434C1111.75+934.934+1114.9+928.709+1114.9+920.759C1114.9+915.659+1113.36+911.459+1110.28+908.159C1107.21+904.859+1102.63+901.971+1096.56+899.496C1090.48+897.021+1081.37+893.984+1069.22+890.384C1057.67+887.084+1048.48+883.559+1041.66+879.809C1034.83+876.059+1029.7+871.446+1026.25+865.971C1022.8+860.496+1021.07+853.559+1021.07+845.159C1021.07+837.059+1023.25+829.821+1027.6+823.446C1031.95+817.071+1038.25+812.046+1046.5+808.371C1054.75+804.696+1064.5+802.859+1075.75+802.859C1087.45+802.859+1097.46+804.921+1105.78+809.046C1114.11+813.171+1120.45+818.346+1124.8+824.571C1129.15+830.796+1131.47+837.059+1131.77+843.359C1131.77+844.709+1131.32+845.834+1130.42+846.734C1129.52+847.634+1128.4+848.084+1127.05+848.084L1115.8+848.084C1114.6+848.084+1113.47+847.709+1112.42+846.959C1111.37+846.209+1110.62+845.084+1110.17+843.584C1109.27+837.134+1105.67+831.809+1099.37+827.609C1093.07+823.409+1085.2+821.309+1075.75+821.309C1065.55+821.309+1057.45+823.296+1051.45+827.271C1045.45+831.246+1042.45+837.134+1042.45+844.934C1042.45+850.184+1043.83+854.459+1046.61+857.759C1049.38+861.059+1053.66+863.984+1059.43+866.534C1065.21+869.084+1073.65+872.009+1084.75+875.309C1097.5+878.909+1107.51+882.509+1114.78+886.109C1122.06+889.709+1127.5+894.171+1131.1+899.496C1134.7+904.821+1136.5+911.684+1136.5+920.084C1136.5+934.184+1131.13+945.171+1120.41+953.046C1109.68+960.921+1095.17+964.859+1076.87+964.859Z" opacity="1" fill="#ffffff"/>
<path d="M1171.15+962.609C1169.65+962.609+1168.45+962.121+1167.55+961.146C1166.65+960.171+1166.2+958.934+1166.2+957.434L1166.2+810.509C1166.2+808.859+1166.65+807.546+1167.55+806.571C1168.45+805.596+1169.65+805.109+1171.15+805.109L1181.72+805.109C1183.37+805.109+1184.68+805.596+1185.66+806.571C1186.63+807.546+1187.12+808.859+1187.12+810.509L1187.12+866.534L1248.1+808.709C1250.5+806.309+1253.42+805.109+1256.87+805.109L1268.12+805.109C1269.32+805.109+1270.37+805.559+1271.27+806.459C1272.17+807.359+1272.62+808.409+1272.62+809.609C1272.62+810.809+1272.25+811.784+1271.5+812.534L1201.3+880.484L1276.22+954.959C1276.97+955.859+1277.35+956.909+1277.35+958.109C1277.35+959.309+1276.9+960.359+1276+961.259C1275.1+962.159+1274.05+962.609+1272.85+962.609L1261.15+962.609C1259.05+962.609+1257.4+962.271+1256.2+961.596C1255+960.921+1253.72+960.059+1252.37+959.009L1187.12+895.334L1187.12+957.434C1187.12+958.934+1186.6+960.171+1185.55+961.146C1184.5+962.121+1183.22+962.609+1181.72+962.609L1171.15+962.609Z" opacity="1" fill="#ffffff"/>
<path d="M1348+962.609C1346.5+962.609+1345.26+962.121+1344.28+961.146C1343.31+960.171+1342.82+958.934+1342.82+957.434L1342.82+904.109L1288.6+812.534C1288.15+811.634+1287.92+810.659+1287.92+809.609C1287.92+808.409+1288.37+807.359+1289.27+806.459C1290.17+805.559+1291.22+805.109+1292.42+805.109L1303.22+805.109C1305.92+805.109+1307.87+806.384+1309.07+808.934L1353.62+882.509L1397.95+808.934C1399.45+806.384+1401.4+805.109+1403.8+805.109L1414.6+805.109C1415.8+805.109+1416.88+805.559+1417.86+806.459C1418.83+807.359+1419.32+808.409+1419.32+809.609C1419.32+810.359+1419.02+811.334+1418.42+812.534L1364.2+904.109L1364.2+957.434C1364.2+958.934+1363.71+960.171+1362.73+961.146C1361.76+962.121+1360.45+962.609+1358.8+962.609L1348+962.609Z" opacity="1" fill="#ffffff"/>
<path d="M1450.82+962.609C1449.32+962.609+1448.12+962.121+1447.22+961.146C1446.32+960.171+1445.87+958.934+1445.87+957.434L1445.87+810.284C1445.87+808.784+1446.32+807.546+1447.22+806.571C1448.12+805.596+1449.32+805.109+1450.82+805.109L1462.07+805.109C1463.57+805.109+1464.77+805.596+1465.67+806.571C1466.57+807.546+1467.02+808.784+1467.02+810.284L1467.02+943.709L1542.17+943.709C1543.82+943.709+1545.13+944.196+1546.11+945.171C1547.08+946.146+1547.57+947.384+1547.57+948.884L1547.57+957.434C1547.57+958.934+1547.05+960.171+1546+961.146C1544.95+962.121+1543.67+962.609+1542.17+962.609L1450.82+962.609Z" opacity="1" fill="#ffffff"/>
<path d="M1561.3+962.609C1560.1+962.609+1559.05+962.159+1558.15+961.259C1557.25+960.359+1556.8+959.309+1556.8+958.109L1557.25+955.634L1613.05+810.059C1614.25+806.759+1616.65+805.109+1620.25+805.109L1634.65+805.109C1638.25+805.109+1640.65+806.759+1641.85+810.059L1697.65+955.634L1698.1+958.109C1698.1+959.309+1697.61+960.359+1696.63+961.259C1695.66+962.159+1694.57+962.609+1693.37+962.609L1682.8+962.609C1681.3+962.609+1680.06+962.196+1679.08+961.371C1678.11+960.546+1677.47+959.684+1677.17+958.784L1664.57+926.384L1590.1+926.384L1577.72+958.784C1576.52+961.334+1574.65+962.609+1572.1+962.609L1561.3+962.609ZM1596.62+907.709L1658.27+907.709L1627.45+826.934L1596.62+907.709Z" opacity="1" fill="#ffffff"/>
<path d="M1727.35+962.609C1725.85+962.609+1724.65+962.121+1723.75+961.146C1722.85+960.171+1722.4+958.934+1722.4+957.434L1722.4+810.509C1722.4+808.859+1722.85+807.546+1723.75+806.571C1724.65+805.596+1725.85+805.109+1727.35+805.109L1782.25+805.109C1799.35+805.109+1812.73+809.121+1822.41+817.146C1832.08+825.171+1836.92+836.834+1836.92+852.134C1836.92+863.534+1834.07+872.909+1828.37+880.259C1822.67+887.609+1814.72+892.709+1804.52+895.559L1839.17+955.634C1839.62+956.534+1839.85+957.359+1839.85+958.109C1839.85+959.309+1839.4+960.359+1838.5+961.259C1837.6+962.159+1836.55+962.609+1835.35+962.609L1825.45+962.609C1823.2+962.609+1821.43+962.084+1820.16+961.034C1818.88+959.984+1817.72+958.484+1816.67+956.534L1783.6+898.934L1743.55+898.934L1743.55+957.434C1743.55+958.934+1743.02+960.171+1741.97+961.146C1740.92+962.121+1739.65+962.609+1738.15+962.609L1727.35+962.609ZM1781.35+880.484C1804+880.484+1815.32+870.959+1815.32+851.909C1815.32+832.859+1804+823.334+1781.35+823.334L1743.55+823.334L1743.55+880.484L1781.35+880.484Z" opacity="1" fill="#ffffff"/>
<path d="M1930.07+962.609C1928.57+962.609+1927.33+962.121+1926.36+961.146C1925.38+960.171+1924.9+958.934+1924.9+957.434L1924.9+810.509C1924.9+808.859+1925.35+807.546+1926.25+806.571C1927.15+805.596+1928.42+805.109+1930.07+805.109L1940.65+805.109C1943.35+805.109+1945.22+806.234+1946.27+808.484L1994.2+900.509L2042.57+808.484C2043.77+806.234+2045.57+805.109+2047.97+805.109L2058.55+805.109C2060.2+805.109+2061.47+805.596+2062.37+806.571C2063.27+807.546+2063.72+808.859+2063.72+810.509L2063.72+957.434C2063.72+958.934+2063.23+960.171+2062.26+961.146C2061.28+962.121+2060.05+962.609+2058.55+962.609L2048.2+962.609C2046.7+962.609+2045.5+962.121+2044.6+961.146C2043.7+960.171+2043.25+958.934+2043.25+957.434L2043.25+845.609L2004.77+920.084C2003.27+923.234+2000.87+924.809+1997.57+924.809L1990.82+924.809C1987.67+924.809+1985.27+923.234+1983.62+920.084L1945.37+845.609L1945.37+957.434C1945.37+958.934+1944.88+960.171+1943.91+961.146C1942.93+962.121+1941.7+962.609+1940.2+962.609L1930.07+962.609Z" opacity="1" fill="#ffffff"/>
<path d="M2159.57+964.859C2139.62+964.859+2124.43+959.421+2114.01+948.546C2103.58+937.671+2098+922.784+2097.25+903.884C2097.1+899.834+2097.02+893.234+2097.02+884.084C2097.02+874.784+2097.1+868.034+2097.25+863.834C2098+844.934+2103.58+830.046+2114.01+819.171C2124.43+808.296+2139.62+802.859+2159.57+802.859C2172.92+802.859+2184.25+805.221+2193.55+809.946C2202.85+814.671+2209.86+820.859+2214.58+828.509C2219.31+836.159+2221.9+844.334+2222.35+853.034C2222.35+854.384+2221.86+855.471+2220.88+856.296C2219.91+857.121+2218.75+857.534+2217.4+857.534L2206.15+857.534C2204.65+857.534+2203.45+857.159+2202.55+856.409C2201.65+855.659+2200.97+854.384+2200.52+852.584C2197.97+841.034+2193.36+832.934+2186.68+828.284C2180.01+823.634+2170.97+821.309+2159.57+821.309C2133.47+821.309+2119.9+835.859+2118.85+864.959C2118.7+869.009+2118.62+875.234+2118.62+883.634C2118.62+892.034+2118.7+898.409+2118.85+902.759C2119.9+931.709+2133.47+946.184+2159.57+946.184C2170.82+946.184+2179.82+943.859+2186.57+939.209C2193.32+934.559+2197.97+926.534+2200.52+915.134C2200.97+913.334+2201.65+912.059+2202.55+911.309C2203.45+910.559+2204.65+910.184+2206.15+910.184L2217.4+910.184C2218.75+910.184+2219.91+910.596+2220.88+911.421C2221.86+912.246+2222.35+913.334+2222.35+914.684C2221.9+923.384+2219.31+931.559+2214.58+939.209C2209.86+946.859+2202.85+953.046+2193.55+957.771C2184.25+962.496+2172.92+964.859+2159.57+964.859Z" opacity="1" fill="#ffffff"/>
<path d="M2309.2+964.859C2289.25+964.859+2274.06+959.421+2263.63+948.546C2253.21+937.671+2247.62+922.784+2246.87+903.884C2246.72+899.834+2246.65+893.234+2246.65+884.084C2246.65+874.784+2246.72+868.034+2246.87+863.834C2247.62+844.934+2253.21+830.046+2263.63+819.171C2274.06+808.296+2289.25+802.859+2309.2+802.859C2322.55+802.859+2333.87+805.221+2343.17+809.946C2352.47+814.671+2359.48+820.859+2364.21+828.509C2368.93+836.159+2371.52+844.334+2371.97+853.034C2371.97+854.384+2371.48+855.471+2370.51+856.296C2369.53+857.121+2368.37+857.534+2367.02+857.534L2355.77+857.534C2354.27+857.534+2353.07+857.159+2352.17+856.409C2351.27+855.659+2350.6+854.384+2350.15+852.584C2347.6+841.034+2342.98+832.934+2336.31+828.284C2329.63+823.634+2320.6+821.309+2309.2+821.309C2283.1+821.309+2269.52+835.859+2268.47+864.959C2268.32+869.009+2268.25+875.234+2268.25+883.634C2268.25+892.034+2268.32+898.409+2268.47+902.759C2269.52+931.709+2283.1+946.184+2309.2+946.184C2320.45+946.184+2329.45+943.859+2336.2+939.209C2342.95+934.559+2347.6+926.534+2350.15+915.134C2350.6+913.334+2351.27+912.059+2352.17+911.309C2353.07+910.559+2354.27+910.184+2355.77+910.184L2367.02+910.184C2368.37+910.184+2369.53+910.596+2370.51+911.421C2371.48+912.246+2371.97+913.334+2371.97+914.684C2371.52+923.384+2368.93+931.559+2364.21+939.209C2359.48+946.859+2352.47+953.046+2343.17+957.771C2333.87+962.496+2322.55+964.859+2309.2+964.859Z" opacity="1" fill="#ffffff"/>
<path d="M2390.2+962.609C2389+962.609+2387.95+962.159+2387.05+961.259C2386.15+960.359+2385.7+959.309+2385.7+958.109L2386.15+955.634L2441.95+810.059C2443.15+806.759+2445.55+805.109+2449.15+805.109L2463.55+805.109C2467.15+805.109+2469.55+806.759+2470.75+810.059L2526.55+955.634L2527+958.109C2527+959.309+2526.51+960.359+2525.53+961.259C2524.56+962.159+2523.47+962.609+2522.27+962.609L2511.7+962.609C2510.2+962.609+2508.96+962.196+2507.98+961.371C2507.01+960.546+2506.37+959.684+2506.07+958.784L2493.47+926.384L2419+926.384L2406.62+958.784C2405.42+961.334+2403.55+962.609+2401+962.609L2390.2+962.609ZM2425.52+907.709L2487.17+907.709L2456.35+826.934L2425.52+907.709Z" opacity="1" fill="#ffffff"/>
<path d="M2607.55+964.859C2588.2+964.859+2573.27+959.646+2562.77+949.221C2552.27+938.796+2547.02+923.009+2547.02+901.859L2547.02+810.509C2547.02+808.859+2547.47+807.546+2548.37+806.571C2549.27+805.596+2550.47+805.109+2551.97+805.109L2562.77+805.109C2564.42+805.109+2565.73+805.596+2566.71+806.571C2567.68+807.546+2568.17+808.859+2568.17+810.509L2568.17+902.309C2568.17+917.009+2571.58+927.959+2578.41+935.159C2585.23+942.359+2594.95+945.959+2607.55+945.959C2620+945.959+2629.63+942.321+2636.46+935.046C2643.28+927.771+2646.7+916.859+2646.7+902.309L2646.7+810.509C2646.7+808.859+2647.15+807.546+2648.05+806.571C2648.95+805.596+2650.22+805.109+2651.87+805.109L2662.67+805.109C2664.17+805.109+2665.41+805.596+2666.38+806.571C2667.36+807.546+2667.85+808.859+2667.85+810.509L2667.85+901.859C2667.85+923.009+2662.63+938.796+2652.21+949.221C2641.78+959.646+2626.9+964.859+2607.55+964.859Z" opacity="1" fill="#ffffff"/>
<path d="M2710.82+962.609C2709.32+962.609+2708.12+962.121+2707.22+961.146C2706.32+960.171+2705.87+958.934+2705.87+957.434L2705.87+810.284C2705.87+808.784+2706.32+807.546+2707.22+806.571C2708.12+805.596+2709.32+805.109+2710.82+805.109L2722.07+805.109C2723.57+805.109+2724.77+805.596+2725.67+806.571C2726.57+807.546+2727.02+808.784+2727.02+810.284L2727.02+943.709L2802.17+943.709C2803.82+943.709+2805.13+944.196+2806.11+945.171C2807.08+946.146+2807.57+947.384+2807.57+948.884L2807.57+957.434C2807.57+958.934+2807.05+960.171+2806+961.146C2804.95+962.121+2803.67+962.609+2802.17+962.609L2710.82+962.609Z" opacity="1" fill="#ffffff"/>
<path d="M2837.05+962.609C2835.55+962.609+2834.35+962.121+2833.45+961.146C2832.55+960.171+2832.1+958.934+2832.1+957.434L2832.1+810.509C2832.1+808.859+2832.55+807.546+2833.45+806.571C2834.35+805.596+2835.55+805.109+2837.05+805.109L2929.52+805.109C2931.17+805.109+2932.48+805.596+2933.46+806.571C2934.43+807.546+2934.92+808.859+2934.92+810.509L2934.92+818.609C2934.92+820.109+2934.43+821.309+2933.46+822.209C2932.48+823.109+2931.17+823.559+2929.52+823.559L2852.8+823.559L2852.8+873.734L2924.57+873.734C2926.22+873.734+2927.53+874.221+2928.51+875.196C2929.48+876.171+2929.97+877.484+2929.97+879.134L2929.97+886.784C2929.97+888.284+2929.48+889.521+2928.51+890.496C2927.53+891.471+2926.22+891.959+2924.57+891.959L2852.8+891.959L2852.8+943.934L2931.32+943.934C2932.97+943.934+2934.28+944.421+2935.26+945.396C2936.23+946.371+2936.72+947.684+2936.72+949.334L2936.72+957.434C2936.72+958.934+2936.2+960.171+2935.15+961.146C2934.1+962.121+2932.82+962.609+2931.32+962.609L2837.05+962.609Z" opacity="1" fill="#ffffff"/>
<path d="M3015.47+962.609C3013.97+962.609+3012.73+962.121+3011.76+961.146C3010.78+960.171+3010.3+958.934+3010.3+957.434L3010.3+904.109L2956.07+812.534C2955.62+811.634+2955.4+810.659+2955.4+809.609C2955.4+808.409+2955.85+807.359+2956.75+806.459C2957.65+805.559+2958.7+805.109+2959.9+805.109L2970.7+805.109C2973.4+805.109+2975.35+806.384+2976.55+808.934L3021.1+882.509L3065.42+808.934C3066.92+806.384+3068.87+805.109+3071.27+805.109L3082.07+805.109C3083.27+805.109+3084.36+805.559+3085.33+806.459C3086.31+807.359+3086.8+808.409+3086.8+809.609C3086.8+810.359+3086.5+811.334+3085.9+812.534L3031.67+904.109L3031.67+957.434C3031.67+958.934+3031.18+960.171+3030.21+961.146C3029.23+962.121+3027.92+962.609+3026.27+962.609L3015.47+962.609Z" opacity="1" fill="#ffffff"/>
</g>
<g opacity="1">
<path d="M1298.24+1087.78C1297.76+1087.78+1297.37+1087.63+1297.09+1087.31C1296.8+1087+1296.65+1086.61+1296.65+1086.13L1296.65+1039.11C1296.65+1038.58+1296.8+1038.16+1297.09+1037.85C1297.37+1037.54+1297.76+1037.38+1298.24+1037.38L1301.41+1037.38C1301.89+1037.38+1302.25+1037.48+1302.49+1037.67C1302.73+1037.86+1302.97+1038.1+1303.21+1038.39L1327.33+1075.54L1327.33+1039.11C1327.33+1038.58+1327.48+1038.16+1327.79+1037.85C1328.11+1037.54+1328.5+1037.38+1328.98+1037.38L1332.22+1037.38C1332.75+1037.38+1333.17+1037.54+1333.48+1037.85C1333.79+1038.16+1333.95+1038.58+1333.95+1039.11L1333.95+1086.05C1333.95+1086.53+1333.79+1086.94+1333.48+1087.28C1333.17+1087.61+1332.77+1087.78+1332.29+1087.78L1329.05+1087.78C1328.24+1087.78+1327.66+1087.45+1327.33+1086.77L1303.21+1049.98L1303.21+1086.13C1303.21+1086.61+1303.05+1087+1302.74+1087.31C1302.43+1087.63+1302.03+1087.78+1301.55+1087.78L1298.24+1087.78Z" opacity="1" fill="#ffffff"/>
<path d="M1360.81+1088.5C1355.53+1088.5+1351.46+1087.01+1348.6+1084.04C1345.75+1081.06+1344.22+1077.1+1344.03+1072.16L1343.96+1069.06L1344.03+1065.97C1344.22+1061.02+1345.77+1057.06+1348.67+1054.09C1351.58+1051.11+1355.62+1049.62+1360.81+1049.62C1365.99+1049.62+1370.03+1051.11+1372.94+1054.09C1375.84+1057.06+1377.39+1061.02+1377.58+1065.97C1377.68+1067.02+1377.73+1068.05+1377.73+1069.06C1377.73+1070.07+1377.68+1071.1+1377.58+1072.16C1377.39+1077.1+1375.87+1081.06+1373.01+1084.04C1370.15+1087.01+1366.09+1088.5+1360.81+1088.5ZM1360.81+1083.1C1363.88+1083.1+1366.31+1082.13+1368.11+1080.19C1369.91+1078.24+1370.89+1075.45+1371.03+1071.8C1371.08+1071.32+1371.1+1070.41+1371.1+1069.06C1371.1+1067.72+1371.08+1066.81+1371.03+1066.33C1370.89+1062.68+1369.91+1059.88+1368.11+1057.94C1366.31+1055.99+1363.88+1055.02+1360.81+1055.02C1357.73+1055.02+1355.3+1055.99+1353.5+1057.94C1351.7+1059.88+1350.73+1062.68+1350.58+1066.33L1350.51+1069.06L1350.58+1071.8C1350.73+1075.45+1351.7+1078.24+1353.5+1080.19C1355.3+1082.13+1357.73+1083.1+1360.81+1083.1Z" opacity="1" fill="#ffffff"/>
<path d="M1400.48+1088.5C1395.44+1088.5+1391.66+1086.87+1389.14+1083.61C1386.62+1080.34+1385.26+1076.21+1385.07+1071.22L1385+1069.06L1385.07+1066.9C1385.26+1061.96+1386.63+1057.84+1389.17+1054.55C1391.72+1051.27+1395.49+1049.62+1400.48+1049.62C1405.47+1049.62+1409.36+1051.4+1412.14+1054.95L1412.14+1038.32C1412.14+1037.84+1412.3+1037.44+1412.61+1037.13C1412.92+1036.82+1413.32+1036.66+1413.8+1036.66L1417.04+1036.66C1417.52+1036.66+1417.91+1036.82+1418.23+1037.13C1418.54+1037.44+1418.69+1037.84+1418.69+1038.32L1418.69+1086.13C1418.69+1086.61+1418.54+1087+1418.23+1087.31C1417.91+1087.63+1417.52+1087.78+1417.04+1087.78L1413.94+1087.78C1413.46+1087.78+1413.08+1087.63+1412.79+1087.31C1412.5+1087+1412.36+1086.61+1412.36+1086.13L1412.36+1083.03C1409.62+1086.68+1405.66+1088.5+1400.48+1088.5ZM1401.85+1082.89C1405.21+1082.89+1407.73+1081.77+1409.41+1079.54C1411.09+1077.31+1412+1074.65+1412.14+1071.58C1412.19+1071.05+1412.21+1070.14+1412.21+1068.85C1412.21+1067.5+1412.19+1066.57+1412.14+1066.04C1412.05+1063.11+1411.12+1060.58+1409.37+1058.44C1407.62+1056.31+1405.11+1055.24+1401.85+1055.24C1398.39+1055.24+1395.87+1056.32+1394.29+1058.48C1392.7+1060.64+1391.84+1063.47+1391.69+1066.97L1391.62+1069.06C1391.62+1078.28+1395.03+1082.89+1401.85+1082.89Z" opacity="1" fill="#ffffff"/>
<path d="M1444.4+1088.5C1439.5+1088.5+1435.59+1086.98+1432.66+1083.93C1429.73+1080.88+1428.13+1076.72+1427.84+1071.44L1427.77+1068.99L1427.84+1066.61C1428.13+1061.43+1429.73+1057.3+1432.66+1054.23C1435.59+1051.16+1439.5+1049.62+1444.4+1049.62C1449.68+1049.62+1453.77+1051.3+1456.67+1054.66C1459.58+1058.02+1461.03+1062.58+1461.03+1068.34L1461.03+1069.64C1461.03+1070.12+1460.87+1070.51+1460.56+1070.83C1460.25+1071.14+1459.85+1071.29+1459.37+1071.29L1434.39+1071.29L1434.39+1071.94C1434.53+1075.06+1435.49+1077.73+1437.27+1079.93C1439.05+1082.14+1441.4+1083.25+1444.33+1083.25C1446.58+1083.25+1448.42+1082.8+1449.83+1081.91C1451.25+1081.03+1452.32+1080.1+1453.04+1079.14C1453.47+1078.57+1453.81+1078.22+1454.05+1078.1C1454.29+1077.98+1454.69+1077.92+1455.27+1077.92L1458.44+1077.92C1458.87+1077.92+1459.24+1078.04+1459.55+1078.28C1459.87+1078.52+1460.02+1078.83+1460.02+1079.21C1460.02+1080.27+1459.37+1081.54+1458.08+1083.03C1456.78+1084.52+1454.95+1085.8+1452.57+1086.88C1450.19+1087.96+1447.47+1088.5+1444.4+1088.5ZM1454.48+1066.4L1454.48+1066.18C1454.48+1062.82+1453.57+1060.09+1451.74+1057.97C1449.92+1055.86+1447.47+1054.81+1444.4+1054.81C1441.28+1054.81+1438.83+1055.86+1437.05+1057.97C1435.28+1060.09+1434.39+1062.82+1434.39+1066.18L1434.39+1066.4L1454.48+1066.4Z" opacity="1" fill="#ffffff"/>
<path d="M1485.65+1088.5C1480.42+1088.5+1476.09+1087.22+1472.66+1084.65C1469.23+1082.08+1467.41+1078.3+1467.22+1073.31C1467.22+1072.88+1467.37+1072.51+1467.65+1072.19C1467.94+1071.88+1468.3+1071.73+1468.73+1071.73L1472.41+1071.73C1473.46+1071.73+1474.06+1072.28+1474.21+1073.38C1474.49+1076.5+1475.69+1078.81+1477.81+1080.29C1479.92+1081.78+1482.56+1082.53+1485.73+1082.53C1489.37+1082.53+1492.19+1081.33+1494.19+1078.93C1496.18+1076.53+1497.17+1073.29+1497.17+1069.21L1497.17+1043.43L1471.47+1043.43C1470.99+1043.43+1470.59+1043.27+1470.28+1042.96C1469.97+1042.65+1469.81+1042.25+1469.81+1041.77L1469.81+1039.04C1469.81+1038.56+1469.97+1038.16+1470.28+1037.85C1470.59+1037.54+1470.99+1037.38+1471.47+1037.38L1502.36+1037.38C1502.89+1037.38+1503.31+1037.54+1503.62+1037.85C1503.93+1038.16+1504.09+1038.58+1504.09+1039.11L1504.09+1069.35C1504.09+1073.19+1503.35+1076.55+1501.89+1079.43C1500.43+1082.31+1498.3+1084.54+1495.52+1086.13C1492.73+1087.71+1489.45+1088.5+1485.65+1088.5Z" opacity="1" fill="#ffffff"/>
<path d="M1532.31+1088.5C1528.37+1088.5+1524.95+1087.88+1522.05+1086.63C1519.15+1085.38+1516.94+1083.74+1515.43+1081.7C1513.91+1079.66+1513.11+1077.46+1513.01+1075.11C1513.01+1074.73+1513.16+1074.39+1513.45+1074.1C1513.73+1073.81+1514.09+1073.67+1514.53+1073.67L1518.05+1073.67C1518.92+1073.67+1519.52+1074.15+1519.85+1075.11C1520.29+1077.13+1521.52+1078.87+1523.56+1080.33C1525.6+1081.79+1528.52+1082.53+1532.31+1082.53C1536.39+1082.53+1539.44+1081.81+1541.45+1080.37C1543.47+1078.93+1544.48+1076.93+1544.48+1074.39C1544.48+1072.76+1543.99+1071.41+1543+1070.36C1542.02+1069.3+1540.55+1068.38+1538.61+1067.59C1536.67+1066.79+1533.75+1065.82+1529.86+1064.67C1526.17+1063.61+1523.23+1062.49+1521.04+1061.29C1518.86+1060.09+1517.21+1058.61+1516.11+1056.86C1515.01+1055.11+1514.45+1052.89+1514.45+1050.2C1514.45+1047.61+1515.15+1045.29+1516.54+1043.25C1517.93+1041.21+1519.95+1039.6+1522.59+1038.43C1525.23+1037.25+1528.35+1036.66+1531.95+1036.66C1535.69+1036.66+1538.9+1037.32+1541.56+1038.64C1544.23+1039.96+1546.25+1041.62+1547.65+1043.61C1549.04+1045.6+1549.78+1047.61+1549.88+1049.62C1549.88+1050.05+1549.73+1050.41+1549.45+1050.7C1549.16+1050.99+1548.8+1051.13+1548.37+1051.13L1544.77+1051.13C1544.38+1051.13+1544.02+1051.01+1543.69+1050.77C1543.35+1050.53+1543.11+1050.17+1542.97+1049.69C1542.68+1047.63+1541.53+1045.93+1539.51+1044.58C1537.49+1043.24+1534.97+1042.57+1531.95+1042.57C1528.69+1042.57+1526.09+1043.2+1524.17+1044.47C1522.25+1045.75+1521.29+1047.63+1521.29+1050.13C1521.29+1051.81+1521.74+1053.17+1522.63+1054.23C1523.51+1055.29+1524.88+1056.22+1526.73+1057.04C1528.58+1057.85+1531.28+1058.79+1534.83+1059.85C1538.91+1061+1542.11+1062.15+1544.44+1063.3C1546.77+1064.45+1548.51+1065.88+1549.66+1067.59C1550.81+1069.29+1551.39+1071.49+1551.39+1074.17C1551.39+1078.69+1549.67+1082.2+1546.24+1084.72C1542.81+1087.24+1538.17+1088.5+1532.31+1088.5Z" opacity="1" fill="#ffffff"/>
<path d="M1559.45+1093.18C1559.02+1093.18+1558.7+1093.04+1558.48+1092.75C1558.27+1092.46+1558.21+1092.1+1558.3+1091.67L1559.89+1081.52C1560.08+1080.13+1560.75+1079.43+1561.9+1079.43L1566.51+1079.43C1566.85+1079.43+1567.13+1079.56+1567.37+1079.83C1567.61+1080.09+1567.73+1080.37+1567.73+1080.65C1567.73+1081.04+1567.64+1081.45+1567.45+1081.88L1563.7+1091.53C1563.27+1092.63+1562.6+1093.18+1561.69+1093.18L1559.45+1093.18Z" opacity="1" fill="#ffffff"/>
<path d="M1612.52+1088.5C1608.58+1088.5+1605.16+1087.88+1602.26+1086.63C1599.35+1085.38+1597.15+1083.74+1595.63+1081.7C1594.12+1079.66+1593.32+1077.46+1593.22+1075.11C1593.22+1074.73+1593.37+1074.39+1593.65+1074.1C1593.94+1073.81+1594.3+1073.67+1594.73+1073.67L1598.26+1073.67C1599.13+1073.67+1599.73+1074.15+1600.06+1075.11C1600.49+1077.13+1601.73+1078.87+1603.77+1080.33C1605.81+1081.79+1608.73+1082.53+1612.52+1082.53C1616.6+1082.53+1619.65+1081.81+1621.66+1080.37C1623.68+1078.93+1624.69+1076.93+1624.69+1074.39C1624.69+1072.76+1624.19+1071.41+1623.21+1070.36C1622.23+1069.3+1620.76+1068.38+1618.82+1067.59C1616.87+1066.79+1613.96+1065.82+1610.07+1064.67C1606.37+1063.61+1603.43+1062.49+1601.25+1061.29C1599.07+1060.09+1597.42+1058.61+1596.32+1056.86C1595.21+1055.11+1594.66+1052.89+1594.66+1050.2C1594.66+1047.61+1595.36+1045.29+1596.75+1043.25C1598.14+1041.21+1600.16+1039.6+1602.8+1038.43C1605.44+1037.25+1608.56+1036.66+1612.16+1036.66C1615.9+1036.66+1619.11+1037.32+1621.77+1038.64C1624.43+1039.96+1626.46+1041.62+1627.85+1043.61C1629.25+1045.6+1629.99+1047.61+1630.09+1049.62C1630.09+1050.05+1629.94+1050.41+1629.65+1050.7C1629.37+1050.99+1629.01+1051.13+1628.57+1051.13L1624.97+1051.13C1624.59+1051.13+1624.23+1051.01+1623.89+1050.77C1623.56+1050.53+1623.32+1050.17+1623.17+1049.69C1622.89+1047.63+1621.73+1045.93+1619.72+1044.58C1617.7+1043.24+1615.18+1042.57+1612.16+1042.57C1608.89+1042.57+1606.3+1043.2+1604.38+1044.47C1602.46+1045.75+1601.5+1047.63+1601.5+1050.13C1601.5+1051.81+1601.95+1053.17+1602.83+1054.23C1603.72+1055.29+1605.09+1056.22+1606.94+1057.04C1608.79+1057.85+1611.49+1058.79+1615.04+1059.85C1619.12+1061+1622.32+1062.15+1624.65+1063.3C1626.98+1064.45+1628.72+1065.88+1629.87+1067.59C1631.02+1069.29+1631.6+1071.49+1631.6+1074.17C1631.6+1078.69+1629.88+1082.2+1626.45+1084.72C1623.02+1087.24+1618.37+1088.5+1612.52+1088.5Z" opacity="1" fill="#ffffff"/>
<path d="M1641.89+1087.78C1641.41+1087.78+1641.02+1087.63+1640.71+1087.31C1640.39+1087+1640.24+1086.61+1640.24+1086.13L1640.24+1038.32C1640.24+1037.79+1640.39+1037.38+1640.71+1037.09C1641.02+1036.81+1641.41+1036.66+1641.89+1036.66L1645.21+1036.66C1645.73+1036.66+1646.14+1036.81+1646.43+1037.09C1646.72+1037.38+1646.86+1037.79+1646.86+1038.32L1646.86+1055.09C1648.25+1053.32+1649.9+1051.96+1651.79+1051.03C1653.69+1050.09+1656.03+1049.62+1658.81+1049.62C1663.42+1049.62+1667.01+1051.1+1669.58+1054.05C1672.15+1057+1673.43+1060.9+1673.43+1065.75L1673.43+1086.13C1673.43+1086.61+1673.27+1087+1672.96+1087.31C1672.65+1087.63+1672.25+1087.78+1671.77+1087.78L1668.39+1087.78C1667.91+1087.78+1667.51+1087.63+1667.2+1087.31C1666.89+1087+1666.73+1086.61+1666.73+1086.13L1666.73+1066.18C1666.73+1062.73+1665.89+1060.04+1664.21+1058.12C1662.53+1056.2+1660.11+1055.24+1656.94+1055.24C1653.87+1055.24+1651.42+1056.21+1649.6+1058.15C1647.77+1060.1+1646.86+1062.77+1646.86+1066.18L1646.86+1086.13C1646.86+1086.61+1646.71+1087+1646.39+1087.31C1646.08+1087.63+1645.69+1087.78+1645.21+1087.78L1641.89+1087.78Z" opacity="1" fill="#ffffff"/>
<path d="M1698.7+1088.5C1693.81+1088.5+1689.89+1086.98+1686.97+1083.93C1684.04+1080.88+1682.43+1076.72+1682.14+1071.44L1682.07+1068.99L1682.14+1066.61C1682.43+1061.43+1684.04+1057.3+1686.97+1054.23C1689.89+1051.16+1693.81+1049.62+1698.7+1049.62C1703.98+1049.62+1708.07+1051.3+1710.98+1054.66C1713.88+1058.02+1715.33+1062.58+1715.33+1068.34L1715.33+1069.64C1715.33+1070.12+1715.18+1070.51+1714.87+1070.83C1714.55+1071.14+1714.16+1071.29+1713.68+1071.29L1688.69+1071.29L1688.69+1071.94C1688.84+1075.06+1689.8+1077.73+1691.57+1079.93C1693.35+1082.14+1695.7+1083.25+1698.63+1083.25C1700.89+1083.25+1702.72+1082.8+1704.14+1081.91C1705.55+1081.03+1706.62+1080.1+1707.34+1079.14C1707.77+1078.57+1708.11+1078.22+1708.35+1078.1C1708.59+1077.98+1709+1077.92+1709.57+1077.92L1712.74+1077.92C1713.17+1077.92+1713.55+1078.04+1713.86+1078.28C1714.17+1078.52+1714.33+1078.83+1714.33+1079.21C1714.33+1080.27+1713.68+1081.54+1712.38+1083.03C1711.09+1084.52+1709.25+1085.8+1706.87+1086.88C1704.5+1087.96+1701.77+1088.5+1698.7+1088.5ZM1708.78+1066.4L1708.78+1066.18C1708.78+1062.82+1707.87+1060.09+1706.05+1057.97C1704.22+1055.86+1701.77+1054.81+1698.7+1054.81C1695.58+1054.81+1693.13+1055.86+1691.36+1057.97C1689.58+1060.09+1688.69+1062.82+1688.69+1066.18L1688.69+1066.4L1708.78+1066.4Z" opacity="1" fill="#ffffff"/>
<path d="M1725.85+1087.78C1725.37+1087.78+1724.97+1087.63+1724.66+1087.31C1724.35+1087+1724.19+1086.61+1724.19+1086.13L1724.19+1038.32C1724.19+1037.79+1724.35+1037.38+1724.66+1037.09C1724.97+1036.81+1725.37+1036.66+1725.85+1036.66L1729.01+1036.66C1729.49+1036.66+1729.89+1036.82+1730.2+1037.13C1730.51+1037.44+1730.67+1037.84+1730.67+1038.32L1730.67+1086.13C1730.67+1086.61+1730.51+1087+1730.2+1087.31C1729.89+1087.63+1729.49+1087.78+1729.01+1087.78L1725.85+1087.78Z" opacity="1" fill="#ffffff"/>
<path d="M1743.2+1087.78C1742.72+1087.78+1742.32+1087.63+1742.01+1087.31C1741.7+1087+1741.54+1086.61+1741.54+1086.13L1741.54+1038.32C1741.54+1037.79+1741.7+1037.38+1742.01+1037.09C1742.32+1036.81+1742.72+1036.66+1743.2+1036.66L1746.37+1036.66C1746.85+1036.66+1747.24+1036.82+1747.55+1037.13C1747.87+1037.44+1748.02+1037.84+1748.02+1038.32L1748.02+1086.13C1748.02+1086.61+1747.87+1087+1747.55+1087.31C1747.24+1087.63+1746.85+1087.78+1746.37+1087.78L1743.2+1087.78Z" opacity="1" fill="#ffffff"/>
<path d="M1758.32+1093.18C1757.89+1093.18+1757.56+1093.04+1757.35+1092.75C1757.13+1092.46+1757.07+1092.1+1757.17+1091.67L1758.75+1081.52C1758.94+1080.13+1759.61+1079.43+1760.77+1079.43L1765.37+1079.43C1765.71+1079.43+1766+1079.56+1766.24+1079.83C1766.48+1080.09+1766.6+1080.37+1766.6+1080.65C1766.6+1081.04+1766.5+1081.45+1766.31+1081.88L1762.57+1091.53C1762.13+1092.63+1761.46+1093.18+1760.55+1093.18L1758.32+1093.18Z" opacity="1" fill="#ffffff"/>
<path d="M1804.76+1088.5C1802.41+1088.5+1800.23+1088.02+1798.24+1087.06C1796.25+1086.1+1794.67+1084.79+1793.49+1083.14C1792.31+1081.48+1791.73+1079.65+1791.73+1077.63C1791.73+1074.46+1793.02+1071.87+1795.61+1069.85C1798.21+1067.84+1801.73+1066.49+1806.2+1065.82L1817+1064.31L1817+1062.22C1817+1057.28+1814.14+1054.81+1808.43+1054.81C1806.22+1054.81+1804.45+1055.25+1803.1+1056.14C1801.76+1057.03+1800.77+1058.07+1800.15+1059.27C1799.96+1059.75+1799.75+1060.07+1799.54+1060.24C1799.32+1060.41+1799.02+1060.49+1798.64+1060.49L1795.83+1060.49C1795.4+1060.49+1795.03+1060.34+1794.71+1060.03C1794.4+1059.71+1794.25+1059.34+1794.25+1058.91C1794.25+1057.81+1794.76+1056.52+1795.79+1055.06C1796.83+1053.59+1798.42+1052.32+1800.58+1051.24C1802.74+1050.16+1805.38+1049.62+1808.5+1049.62C1813.88+1049.62+1817.73+1050.87+1820.06+1053.37C1822.39+1055.86+1823.55+1058.98+1823.55+1062.73L1823.55+1086.13C1823.55+1086.61+1823.39+1087+1823.08+1087.31C1822.77+1087.63+1822.37+1087.78+1821.89+1087.78L1818.73+1087.78C1818.25+1087.78+1817.86+1087.63+1817.57+1087.31C1817.29+1087+1817.14+1086.61+1817.14+1086.13L1817.14+1082.96C1816.09+1084.54+1814.55+1085.86+1812.53+1086.92C1810.52+1087.97+1807.93+1088.5+1804.76+1088.5ZM1806.2+1083.25C1809.37+1083.25+1811.96+1082.21+1813.97+1080.15C1815.99+1078.09+1817+1075.09+1817+1071.15L1817+1069.13L1808.57+1070.36C1805.12+1070.84+1802.5+1071.65+1800.73+1072.81C1798.95+1073.96+1798.06+1075.4+1798.06+1077.13C1798.06+1079.09+1798.87+1080.61+1800.47+1081.66C1802.08+1082.72+1803.99+1083.25+1806.2+1083.25Z" opacity="1" fill="#ffffff"/>
<path d="M1835.65+1087.78C1835.17+1087.78+1834.77+1087.63+1834.46+1087.31C1834.15+1087+1833.99+1086.61+1833.99+1086.13L1833.99+1052C1833.99+1051.52+1834.15+1051.12+1834.46+1050.81C1834.77+1050.5+1835.17+1050.34+1835.65+1050.34L1838.74+1050.34C1839.27+1050.34+1839.68+1050.49+1839.97+1050.77C1840.25+1051.06+1840.4+1051.47+1840.4+1052L1840.4+1055.17C1841.84+1053.39+1843.51+1052.02+1845.4+1051.06C1847.3+1050.1+1849.66+1049.62+1852.49+1049.62C1857.1+1049.62+1860.68+1051.1+1863.22+1054.05C1865.77+1057+1867.04+1060.9+1867.04+1065.75L1867.04+1086.13C1867.04+1086.61+1866.88+1087+1866.57+1087.31C1866.26+1087.63+1865.86+1087.78+1865.38+1087.78L1862.07+1087.78C1861.59+1087.78+1861.19+1087.63+1860.88+1087.31C1860.57+1087+1860.41+1086.61+1860.41+1086.13L1860.41+1066.18C1860.41+1062.73+1859.57+1060.04+1857.89+1058.12C1856.21+1056.2+1853.81+1055.24+1850.69+1055.24C1847.62+1055.24+1845.17+1056.21+1843.35+1058.15C1841.53+1060.1+1840.61+1062.77+1840.61+1066.18L1840.61+1086.13C1840.61+1086.61+1840.46+1087+1840.15+1087.31C1839.83+1087.63+1839.44+1087.78+1838.96+1087.78L1835.65+1087.78Z" opacity="1" fill="#ffffff"/>
<path d="M1891.16+1088.5C1886.12+1088.5+1882.34+1086.87+1879.82+1083.61C1877.3+1080.34+1875.94+1076.21+1875.75+1071.22L1875.68+1069.06L1875.75+1066.9C1875.94+1061.96+1877.31+1057.84+1879.85+1054.55C1882.4+1051.27+1886.17+1049.62+1891.16+1049.62C1896.15+1049.62+1900.04+1051.4+1902.82+1054.95L1902.82+1038.32C1902.82+1037.84+1902.98+1037.44+1903.29+1037.13C1903.6+1036.82+1904+1036.66+1904.48+1036.66L1907.72+1036.66C1908.2+1036.66+1908.59+1036.82+1908.91+1037.13C1909.22+1037.44+1909.37+1037.84+1909.37+1038.32L1909.37+1086.13C1909.37+1086.61+1909.22+1087+1908.91+1087.31C1908.59+1087.63+1908.2+1087.78+1907.72+1087.78L1904.62+1087.78C1904.14+1087.78+1903.76+1087.63+1903.47+1087.31C1903.18+1087+1903.04+1086.61+1903.04+1086.13L1903.04+1083.03C1900.3+1086.68+1896.34+1088.5+1891.16+1088.5ZM1892.53+1082.89C1895.89+1082.89+1898.41+1081.77+1900.09+1079.54C1901.77+1077.31+1902.68+1074.65+1902.82+1071.58C1902.87+1071.05+1902.89+1070.14+1902.89+1068.85C1902.89+1067.5+1902.87+1066.57+1902.82+1066.04C1902.73+1063.11+1901.8+1060.58+1900.05+1058.44C1898.3+1056.31+1895.79+1055.24+1892.53+1055.24C1889.07+1055.24+1886.55+1056.32+1884.97+1058.48C1883.38+1060.64+1882.52+1063.47+1882.37+1066.97L1882.3+1069.06C1882.3+1078.28+1885.71+1082.89+1892.53+1082.89Z" opacity="1" fill="#ffffff"/>
<path d="M1946.17+1087.78C1944.97+1087.78+1944.22+1087.16+1943.93+1085.91L1934.65+1039.61L1934.5+1038.82C1934.5+1038.44+1934.65+1038.1+1934.93+1037.81C1935.22+1037.53+1935.56+1037.38+1935.94+1037.38L1939.47+1037.38C1940.48+1037.38+1941.05+1037.79+1941.2+1038.61L1948.61+1076.19L1956.61+1050.27C1956.89+1049.12+1957.64+1048.54+1958.84+1048.54L1961.36+1048.54C1962.51+1048.54+1963.28+1049.12+1963.66+1050.27L1971.58+1076.19L1979+1038.61C1979.14+1037.79+1979.74+1037.38+1980.8+1037.38L1984.25+1037.38C1984.64+1037.38+1984.97+1037.53+1985.26+1037.81C1985.55+1038.1+1985.69+1038.44+1985.69+1038.82C1985.69+1039.11+1985.67+1039.37+1985.62+1039.61L1976.26+1085.91C1976.02+1087.16+1975.28+1087.78+1974.03+1087.78L1971.44+1087.78C1970.24+1087.78+1969.45+1087.18+1969.06+1085.98L1960.13+1058.26L1951.13+1085.98C1950.8+1087.18+1950.03+1087.78+1948.83+1087.78L1946.17+1087.78Z" opacity="1" fill="#ffffff"/>
<path d="M2007.58+1088.5C2002.69+1088.5+1998.77+1086.98+1995.85+1083.93C1992.92+1080.88+1991.31+1076.72+1991.02+1071.44L1990.95+1068.99L1991.02+1066.61C1991.31+1061.43+1992.92+1057.3+1995.85+1054.23C1998.77+1051.16+2002.69+1049.62+2007.58+1049.62C2012.86+1049.62+2016.95+1051.3+2019.86+1054.66C2022.76+1058.02+2024.21+1062.58+2024.21+1068.34L2024.21+1069.64C2024.21+1070.12+2024.06+1070.51+2023.75+1070.83C2023.43+1071.14+2023.04+1071.29+2022.56+1071.29L1997.57+1071.29L1997.57+1071.94C1997.72+1075.06+1998.68+1077.73+2000.45+1079.93C2002.23+1082.14+2004.58+1083.25+2007.51+1083.25C2009.77+1083.25+2011.6+1082.8+2013.02+1081.91C2014.43+1081.03+2015.5+1080.1+2016.22+1079.14C2016.65+1078.57+2016.99+1078.22+2017.23+1078.1C2017.47+1077.98+2017.88+1077.92+2018.45+1077.92L2021.62+1077.92C2022.05+1077.92+2022.43+1078.04+2022.74+1078.28C2023.05+1078.52+2023.21+1078.83+2023.21+1079.21C2023.21+1080.27+2022.56+1081.54+2021.26+1083.03C2019.97+1084.52+2018.13+1085.8+2015.75+1086.88C2013.38+1087.96+2010.65+1088.5+2007.58+1088.5ZM2017.66+1066.4L2017.66+1066.18C2017.66+1062.82+2016.75+1060.09+2014.93+1057.97C2013.1+1055.86+2010.65+1054.81+2007.58+1054.81C2004.46+1054.81+2002.01+1055.86+2000.24+1057.97C1998.46+1060.09+1997.57+1062.82+1997.57+1066.18L1997.57+1066.4L2017.66+1066.4Z" opacity="1" fill="#ffffff"/>
<path d="M2051.29+1088.5C2046.1+1088.5+2042.14+1086.68+2039.41+1083.03L2039.41+1086.13C2039.41+1086.61+2039.25+1087+2038.94+1087.31C2038.63+1087.63+2038.23+1087.78+2037.75+1087.78L2034.73+1087.78C2034.25+1087.78+2033.85+1087.63+2033.54+1087.31C2033.23+1087+2033.07+1086.61+2033.07+1086.13L2033.07+1038.32C2033.07+1037.79+2033.23+1037.38+2033.54+1037.09C2033.85+1036.81+2034.25+1036.66+2034.73+1036.66L2037.97+1036.66C2038.45+1036.66+2038.84+1036.82+2039.15+1037.13C2039.47+1037.44+2039.62+1037.84+2039.62+1038.32L2039.62+1054.95C2042.31+1051.4+2046.2+1049.62+2051.29+1049.62C2056.33+1049.62+2060.11+1051.27+2062.63+1054.55C2065.15+1057.84+2066.48+1061.96+2066.62+1066.9C2066.67+1067.43+2066.69+1068.15+2066.69+1069.06C2066.69+1069.97+2066.67+1070.69+2066.62+1071.22C2066.48+1076.17+2065.15+1080.28+2062.63+1083.57C2060.11+1086.86+2056.33+1088.5+2051.29+1088.5ZM2049.92+1082.89C2053.37+1082.89+2055.89+1081.81+2057.48+1079.65C2059.06+1077.49+2059.93+1074.65+2060.07+1071.15C2060.12+1070.67+2060.14+1069.97+2060.14+1069.06C2060.14+1059.85+2056.73+1055.24+2049.92+1055.24C2046.65+1055.24+2044.15+1056.31+2042.39+1058.44C2040.64+1060.58+2039.72+1063.11+2039.62+1066.04C2039.57+1066.57+2039.55+1067.5+2039.55+1068.85C2039.55+1070.14+2039.57+1071.05+2039.62+1071.58C2039.72+1074.65+2040.62+1077.31+2042.32+1079.54C2044.03+1081.77+2046.56+1082.89+2049.92+1082.89Z" opacity="1" fill="#ffffff"/>
<path d="M2096+1087.78C2095.52+1087.78+2095.13+1087.63+2094.85+1087.31C2094.56+1087+2094.41+1086.61+2094.41+1086.13L2094.41+1039.11C2094.41+1038.58+2094.56+1038.16+2094.85+1037.85C2095.13+1037.54+2095.52+1037.38+2096+1037.38L2125.23+1037.38C2125.76+1037.38+2126.18+1037.54+2126.49+1037.85C2126.8+1038.16+2126.96+1038.58+2126.96+1039.11L2126.96+1041.77C2126.96+1042.25+2126.8+1042.65+2126.49+1042.96C2126.18+1043.27+2125.76+1043.43+2125.23+1043.43L2101.11+1043.43L2101.11+1060.49L2123.79+1060.49C2124.32+1060.49+2124.74+1060.65+2125.05+1060.96C2125.36+1061.27+2125.52+1061.67+2125.52+1062.15L2125.52+1064.89C2125.52+1065.37+2125.35+1065.76+2125.01+1066.07C2124.68+1066.39+2124.27+1066.54+2123.79+1066.54L2101.11+1066.54L2101.11+1086.13C2101.11+1086.61+2100.94+1087+2100.61+1087.31C2100.27+1087.63+2099.86+1087.78+2099.38+1087.78L2096+1087.78Z" opacity="1" fill="#ffffff"/>
<path d="M2136.1+1087.78C2135.62+1087.78+2135.23+1087.63+2134.91+1087.31C2134.6+1087+2134.45+1086.61+2134.45+1086.13L2134.45+1052.07C2134.45+1051.59+2134.6+1051.18+2134.91+1050.85C2135.23+1050.51+2135.62+1050.34+2136.1+1050.34L2139.13+1050.34C2139.65+1050.34+2140.07+1050.5+2140.39+1050.81C2140.7+1051.12+2140.85+1051.54+2140.85+1052.07L2140.85+1055.24C2142.82+1051.97+2146.16+1050.34+2150.86+1050.34L2153.67+1050.34C2154.2+1050.34+2154.61+1050.49+2154.89+1050.77C2155.18+1051.06+2155.33+1051.47+2155.33+1052L2155.33+1054.66C2155.33+1055.14+2155.18+1055.54+2154.89+1055.85C2154.61+1056.16+2154.2+1056.32+2153.67+1056.32L2149.57+1056.32C2146.93+1056.32+2144.85+1057.09+2143.34+1058.62C2141.83+1060.16+2141.07+1062.25+2141.07+1064.89L2141.07+1086.13C2141.07+1086.61+2140.9+1087+2140.57+1087.31C2140.23+1087.63+2139.82+1087.78+2139.34+1087.78L2136.1+1087.78Z" opacity="1" fill="#ffffff"/>
<path d="M2175.99+1088.5C2170.71+1088.5+2166.64+1087.01+2163.79+1084.04C2160.93+1081.06+2159.41+1077.1+2159.21+1072.16L2159.14+1069.06L2159.21+1065.97C2159.41+1061.02+2160.95+1057.06+2163.86+1054.09C2166.76+1051.11+2170.81+1049.62+2175.99+1049.62C2181.17+1049.62+2185.22+1051.11+2188.12+1054.09C2191.03+1057.06+2192.57+1061.02+2192.77+1065.97C2192.86+1067.02+2192.91+1068.05+2192.91+1069.06C2192.91+1070.07+2192.86+1071.1+2192.77+1072.16C2192.57+1077.1+2191.05+1081.06+2188.19+1084.04C2185.34+1087.01+2181.27+1088.5+2175.99+1088.5ZM2175.99+1083.1C2179.06+1083.1+2181.5+1082.13+2183.3+1080.19C2185.1+1078.24+2186.07+1075.45+2186.21+1071.8C2186.26+1071.32+2186.29+1070.41+2186.29+1069.06C2186.29+1067.72+2186.26+1066.81+2186.21+1066.33C2186.07+1062.68+2185.1+1059.88+2183.3+1057.94C2181.5+1055.99+2179.06+1055.02+2175.99+1055.02C2172.92+1055.02+2170.48+1055.99+2168.68+1057.94C2166.88+1059.88+2165.91+1062.68+2165.77+1066.33L2165.69+1069.06L2165.77+1071.8C2165.91+1075.45+2166.88+1078.24+2168.68+1080.19C2170.48+1082.13+2172.92+1083.1+2175.99+1083.1Z" opacity="1" fill="#ffffff"/>
<path d="M2203.64+1087.78C2203.16+1087.78+2202.76+1087.63+2202.45+1087.31C2202.14+1087+2201.98+1086.61+2201.98+1086.13L2201.98+1052C2201.98+1051.52+2202.14+1051.12+2202.45+1050.81C2202.76+1050.5+2203.16+1050.34+2203.64+1050.34L2206.73+1050.34C2207.26+1050.34+2207.67+1050.49+2207.96+1050.77C2208.25+1051.06+2208.39+1051.47+2208.39+1052L2208.39+1055.17C2209.83+1053.39+2211.5+1052.02+2213.39+1051.06C2215.29+1050.1+2217.65+1049.62+2220.49+1049.62C2225.09+1049.62+2228.67+1051.1+2231.21+1054.05C2233.76+1057+2235.03+1060.9+2235.03+1065.75L2235.03+1086.13C2235.03+1086.61+2234.87+1087+2234.56+1087.31C2234.25+1087.63+2233.85+1087.78+2233.37+1087.78L2230.06+1087.78C2229.58+1087.78+2229.19+1087.63+2228.87+1087.31C2228.56+1087+2228.41+1086.61+2228.41+1086.13L2228.41+1066.18C2228.41+1062.73+2227.57+1060.04+2225.89+1058.12C2224.21+1056.2+2221.81+1055.24+2218.69+1055.24C2215.61+1055.24+2213.17+1056.21+2211.34+1058.15C2209.52+1060.1+2208.61+1062.77+2208.61+1066.18L2208.61+1086.13C2208.61+1086.61+2208.45+1087+2208.14+1087.31C2207.83+1087.63+2207.43+1087.78+2206.95+1087.78L2203.64+1087.78Z" opacity="1" fill="#ffffff"/>
<path d="M2259.37+1087.78C2251.93+1087.78+2248.21+1083.58+2248.21+1075.18L2248.21+1055.89L2242.52+1055.89C2242.04+1055.89+2241.65+1055.74+2241.37+1055.45C2241.08+1055.17+2240.93+1054.78+2240.93+1054.3L2240.93+1052C2240.93+1051.52+2241.08+1051.12+2241.37+1050.81C2241.65+1050.5+2242.04+1050.34+2242.52+1050.34L2248.21+1050.34L2248.21+1038.32C2248.21+1037.84+2248.35+1037.44+2248.64+1037.13C2248.93+1036.82+2249.31+1036.66+2249.79+1036.66L2252.96+1036.66C2253.44+1036.66+2253.83+1036.82+2254.15+1037.13C2254.46+1037.44+2254.61+1037.84+2254.61+1038.32L2254.61+1050.34L2263.54+1050.34C2264.02+1050.34+2264.42+1050.5+2264.73+1050.81C2265.04+1051.12+2265.2+1051.52+2265.2+1052L2265.2+1054.3C2265.2+1054.78+2265.04+1055.17+2264.73+1055.45C2264.42+1055.74+2264.02+1055.89+2263.54+1055.89L2254.61+1055.89L2254.61+1074.68C2254.61+1077.13+2255.01+1078.97+2255.8+1080.22C2256.59+1081.47+2257.95+1082.09+2259.87+1082.09L2264.26+1082.09C2264.74+1082.09+2265.13+1082.25+2265.41+1082.56C2265.7+1082.87+2265.85+1083.27+2265.85+1083.75L2265.85+1086.13C2265.85+1086.61+2265.7+1087+2265.41+1087.31C2265.13+1087.63+2264.74+1087.78+2264.26+1087.78L2259.37+1087.78Z" opacity="1" fill="#ffffff"/>
<path d="M2287.73+1088.5C2282.84+1088.5+2278.93+1086.98+2276+1083.93C2273.07+1080.88+2271.46+1076.72+2271.17+1071.44L2271.1+1068.99L2271.17+1066.61C2271.46+1061.43+2273.07+1057.3+2276+1054.23C2278.93+1051.16+2282.84+1049.62+2287.73+1049.62C2293.01+1049.62+2297.11+1051.3+2300.01+1054.66C2302.91+1058.02+2304.37+1062.58+2304.37+1068.34L2304.37+1069.64C2304.37+1070.12+2304.21+1070.51+2303.9+1070.83C2303.59+1071.14+2303.19+1071.29+2302.71+1071.29L2277.73+1071.29L2277.73+1071.94C2277.87+1075.06+2278.83+1077.73+2280.61+1079.93C2282.38+1082.14+2284.73+1083.25+2287.66+1083.25C2289.92+1083.25+2291.75+1082.8+2293.17+1081.91C2294.59+1081.03+2295.65+1080.1+2296.37+1079.14C2296.81+1078.57+2297.14+1078.22+2297.38+1078.1C2297.62+1077.98+2298.03+1077.92+2298.61+1077.92L2301.77+1077.92C2302.21+1077.92+2302.58+1078.04+2302.89+1078.28C2303.2+1078.52+2303.36+1078.83+2303.36+1079.21C2303.36+1080.27+2302.71+1081.54+2301.41+1083.03C2300.12+1084.52+2298.28+1085.8+2295.91+1086.88C2293.53+1087.96+2290.81+1088.5+2287.73+1088.5ZM2297.81+1066.4L2297.81+1066.18C2297.81+1062.82+2296.9+1060.09+2295.08+1057.97C2293.25+1055.86+2290.81+1054.81+2287.73+1054.81C2284.61+1054.81+2282.17+1055.86+2280.39+1057.97C2278.61+1060.09+2277.73+1062.82+2277.73+1066.18L2277.73+1066.4L2297.81+1066.4Z" opacity="1" fill="#ffffff"/>
<path d="M2314.81+1087.78C2314.33+1087.78+2313.93+1087.63+2313.62+1087.31C2313.31+1087+2313.15+1086.61+2313.15+1086.13L2313.15+1052C2313.15+1051.52+2313.31+1051.12+2313.62+1050.81C2313.93+1050.5+2314.33+1050.34+2314.81+1050.34L2317.9+1050.34C2318.43+1050.34+2318.84+1050.49+2319.13+1050.77C2319.41+1051.06+2319.56+1051.47+2319.56+1052L2319.56+1055.17C2321+1053.39+2322.67+1052.02+2324.56+1051.06C2326.46+1050.1+2328.82+1049.62+2331.65+1049.62C2336.26+1049.62+2339.84+1051.1+2342.38+1054.05C2344.93+1057+2346.2+1060.9+2346.2+1065.75L2346.2+1086.13C2346.2+1086.61+2346.04+1087+2345.73+1087.31C2345.42+1087.63+2345.02+1087.78+2344.54+1087.78L2341.23+1087.78C2340.75+1087.78+2340.35+1087.63+2340.04+1087.31C2339.73+1087+2339.57+1086.61+2339.57+1086.13L2339.57+1066.18C2339.57+1062.73+2338.73+1060.04+2337.05+1058.12C2335.37+1056.2+2332.97+1055.24+2329.85+1055.24C2326.78+1055.24+2324.33+1056.21+2322.51+1058.15C2320.69+1060.1+2319.77+1062.77+2319.77+1066.18L2319.77+1086.13C2319.77+1086.61+2319.62+1087+2319.31+1087.31C2318.99+1087.63+2318.6+1087.78+2318.12+1087.78L2314.81+1087.78Z" opacity="1" fill="#ffffff"/>
<path d="M2370.32+1088.5C2365.28+1088.5+2361.5+1086.87+2358.98+1083.61C2356.46+1080.34+2355.1+1076.21+2354.91+1071.22L2354.84+1069.06L2354.91+1066.9C2355.1+1061.96+2356.47+1057.84+2359.01+1054.55C2361.56+1051.27+2365.33+1049.62+2370.32+1049.62C2375.31+1049.62+2379.2+1051.4+2381.98+1054.95L2381.98+1038.32C2381.98+1037.84+2382.14+1037.44+2382.45+1037.13C2382.76+1036.82+2383.16+1036.66+2383.64+1036.66L2386.88+1036.66C2387.36+1036.66+2387.75+1036.82+2388.07+1037.13C2388.38+1037.44+2388.53+1037.84+2388.53+1038.32L2388.53+1086.13C2388.53+1086.61+2388.38+1087+2388.07+1087.31C2387.75+1087.63+2387.36+1087.78+2386.88+1087.78L2383.78+1087.78C2383.3+1087.78+2382.92+1087.63+2382.63+1087.31C2382.34+1087+2382.2+1086.61+2382.2+1086.13L2382.2+1083.03C2379.46+1086.68+2375.5+1088.5+2370.32+1088.5ZM2371.69+1082.89C2375.05+1082.89+2377.57+1081.77+2379.25+1079.54C2380.93+1077.31+2381.84+1074.65+2381.98+1071.58C2382.03+1071.05+2382.05+1070.14+2382.05+1068.85C2382.05+1067.5+2382.03+1066.57+2381.98+1066.04C2381.89+1063.11+2380.96+1060.58+2379.21+1058.44C2377.46+1056.31+2374.95+1055.24+2371.69+1055.24C2368.23+1055.24+2365.71+1056.32+2364.13+1058.48C2362.54+1060.64+2361.68+1063.47+2361.53+1066.97L2361.46+1069.06C2361.46+1078.28+2364.87+1082.89+2371.69+1082.89Z" opacity="1" fill="#ffffff"/>
<path d="M2419.64+1087.78C2419.16+1087.78+2418.77+1087.63+2418.49+1087.31C2418.2+1087+2418.05+1086.61+2418.05+1086.13L2418.05+1039.11C2418.05+1038.58+2418.2+1038.16+2418.49+1037.85C2418.77+1037.54+2419.16+1037.38+2419.64+1037.38L2435.91+1037.38C2443.16+1037.38+2448.39+1039+2451.61+1042.24C2454.82+1045.48+2456.48+1050.37+2456.57+1056.89C2456.62+1058.29+2456.65+1060.16+2456.65+1062.51C2456.65+1064.86+2456.62+1066.76+2456.57+1068.2C2456.48+1072.76+2455.75+1076.47+2454.38+1079.32C2453.01+1082.18+2450.86+1084.3+2447.93+1085.69C2445.01+1087.09+2441.12+1087.78+2436.27+1087.78L2419.64+1087.78ZM2435.91+1081.81C2439.27+1081.81+2441.95+1081.34+2443.94+1080.4C2445.93+1079.47+2447.37+1078+2448.26+1076.01C2449.15+1074.02+2449.64+1071.32+2449.73+1067.91C2449.83+1065.03+2449.88+1063.23+2449.88+1062.51C2449.88+1061.74+2449.83+1059.97+2449.73+1057.18C2449.64+1052.38+2448.5+1048.87+2446.31+1046.63C2444.13+1044.4+2440.54+1043.29+2435.55+1043.29L2424.82+1043.29L2424.82+1081.81L2435.91+1081.81Z" opacity="1" fill="#ffffff"/>
<path d="M2481.49+1088.5C2476.59+1088.5+2472.68+1086.98+2469.75+1083.93C2466.82+1080.88+2465.21+1076.72+2464.93+1071.44L2464.85+1068.99L2464.93+1066.61C2465.21+1061.43+2466.82+1057.3+2469.75+1054.23C2472.68+1051.16+2476.59+1049.62+2481.49+1049.62C2486.77+1049.62+2490.86+1051.3+2493.76+1054.66C2496.67+1058.02+2498.12+1062.58+2498.12+1068.34L2498.12+1069.64C2498.12+1070.12+2497.96+1070.51+2497.65+1070.83C2497.34+1071.14+2496.94+1071.29+2496.46+1071.29L2471.48+1071.29L2471.48+1071.94C2471.62+1075.06+2472.58+1077.73+2474.36+1079.93C2476.13+1082.14+2478.49+1083.25+2481.41+1083.25C2483.67+1083.25+2485.51+1082.8+2486.92+1081.91C2488.34+1081.03+2489.41+1080.1+2490.13+1079.14C2490.56+1078.57+2490.89+1078.22+2491.13+1078.1C2491.37+1077.98+2491.78+1077.92+2492.36+1077.92L2495.53+1077.92C2495.96+1077.92+2496.33+1078.04+2496.64+1078.28C2496.95+1078.52+2497.11+1078.83+2497.11+1079.21C2497.11+1080.27+2496.46+1081.54+2495.17+1083.03C2493.87+1084.52+2492.03+1085.8+2489.66+1086.88C2487.28+1087.96+2484.56+1088.5+2481.49+1088.5ZM2491.57+1066.4L2491.57+1066.18C2491.57+1062.82+2490.65+1060.09+2488.83+1057.97C2487.01+1055.86+2484.56+1054.81+2481.49+1054.81C2478.37+1054.81+2475.92+1055.86+2474.14+1057.97C2472.37+1060.09+2471.48+1062.82+2471.48+1066.18L2471.48+1066.4L2491.57+1066.4Z" opacity="1" fill="#ffffff"/>
<path d="M2518.64+1087.78C2517.39+1087.78+2516.5+1087.18+2515.97+1085.98L2502.58+1052.57C2502.53+1052.43+2502.51+1052.19+2502.51+1051.85C2502.51+1051.42+2502.65+1051.06+2502.94+1050.77C2503.23+1050.49+2503.57+1050.34+2503.95+1050.34L2507.26+1050.34C2508.03+1050.34+2508.61+1050.73+2508.99+1051.49L2520.08+1080.22L2531.17+1051.49C2531.26+1051.21+2531.47+1050.94+2531.78+1050.7C2532.09+1050.46+2532.46+1050.34+2532.89+1050.34L2536.21+1050.34C2536.59+1050.34+2536.93+1050.49+2537.21+1050.77C2537.5+1051.06+2537.65+1051.42+2537.65+1051.85L2537.5+1052.57L2524.18+1085.98C2523.65+1087.18+2522.77+1087.78+2521.52+1087.78L2518.64+1087.78Z" opacity="1" fill="#ffffff"/>
<path d="M2558.81+1088.5C2553.92+1088.5+2550.01+1086.98+2547.08+1083.93C2544.15+1080.88+2542.54+1076.72+2542.25+1071.44L2542.18+1068.99L2542.25+1066.61C2542.54+1061.43+2544.15+1057.3+2547.08+1054.23C2550.01+1051.16+2553.92+1049.62+2558.81+1049.62C2564.09+1049.62+2568.19+1051.3+2571.09+1054.66C2573.99+1058.02+2575.45+1062.58+2575.45+1068.34L2575.45+1069.64C2575.45+1070.12+2575.29+1070.51+2574.98+1070.83C2574.67+1071.14+2574.27+1071.29+2573.79+1071.29L2548.81+1071.29L2548.81+1071.94C2548.95+1075.06+2549.91+1077.73+2551.69+1079.93C2553.46+1082.14+2555.81+1083.25+2558.74+1083.25C2561+1083.25+2562.83+1082.8+2564.25+1081.91C2565.67+1081.03+2566.73+1080.1+2567.45+1079.14C2567.89+1078.57+2568.22+1078.22+2568.46+1078.1C2568.7+1077.98+2569.11+1077.92+2569.69+1077.92L2572.85+1077.92C2573.29+1077.92+2573.66+1078.04+2573.97+1078.28C2574.28+1078.52+2574.44+1078.83+2574.44+1079.21C2574.44+1080.27+2573.79+1081.54+2572.49+1083.03C2571.2+1084.52+2569.36+1085.8+2566.99+1086.88C2564.61+1087.96+2561.89+1088.5+2558.81+1088.5ZM2568.89+1066.4L2568.89+1066.18C2568.89+1062.82+2567.98+1060.09+2566.16+1057.97C2564.33+1055.86+2561.89+1054.81+2558.81+1054.81C2555.69+1054.81+2553.25+1055.86+2551.47+1057.97C2549.69+1060.09+2548.81+1062.82+2548.81+1066.18L2548.81+1066.4L2568.89+1066.4Z" opacity="1" fill="#ffffff"/>
<path d="M2585.96+1087.78C2585.48+1087.78+2585.08+1087.63+2584.77+1087.31C2584.46+1087+2584.3+1086.61+2584.3+1086.13L2584.3+1038.32C2584.3+1037.79+2584.46+1037.38+2584.77+1037.09C2585.08+1036.81+2585.48+1036.66+2585.96+1036.66L2589.13+1036.66C2589.61+1036.66+2590+1036.82+2590.31+1037.13C2590.63+1037.44+2590.78+1037.84+2590.78+1038.32L2590.78+1086.13C2590.78+1086.61+2590.63+1087+2590.31+1087.31C2590+1087.63+2589.61+1087.78+2589.13+1087.78L2585.96+1087.78Z" opacity="1" fill="#ffffff"/>
<path d="M2616.77+1088.5C2611.49+1088.5+2607.43+1087.01+2604.57+1084.04C2601.71+1081.06+2600.19+1077.1+2600+1072.16L2599.93+1069.06L2600+1065.97C2600.19+1061.02+2601.74+1057.06+2604.64+1054.09C2607.55+1051.11+2611.59+1049.62+2616.77+1049.62C2621.96+1049.62+2626+1051.11+2628.91+1054.09C2631.81+1057.06+2633.36+1061.02+2633.55+1065.97C2633.65+1067.02+2633.69+1068.05+2633.69+1069.06C2633.69+1070.07+2633.65+1071.1+2633.55+1072.16C2633.36+1077.1+2631.83+1081.06+2628.98+1084.04C2626.12+1087.01+2622.05+1088.5+2616.77+1088.5ZM2616.77+1083.1C2619.85+1083.1+2622.28+1082.13+2624.08+1080.19C2625.88+1078.24+2626.85+1075.45+2627+1071.8C2627.05+1071.32+2627.07+1070.41+2627.07+1069.06C2627.07+1067.72+2627.05+1066.81+2627+1066.33C2626.85+1062.68+2625.88+1059.88+2624.08+1057.94C2622.28+1055.99+2619.85+1055.02+2616.77+1055.02C2613.7+1055.02+2611.27+1055.99+2609.47+1057.94C2607.67+1059.88+2606.69+1062.68+2606.55+1066.33L2606.48+1069.06L2606.55+1071.8C2606.69+1075.45+2607.67+1078.24+2609.47+1080.19C2611.27+1082.13+2613.7+1083.1+2616.77+1083.1Z" opacity="1" fill="#ffffff"/>
<path d="M2644.49+1101.46C2644.01+1101.46+2643.62+1101.32+2643.31+1101.03C2642.99+1100.74+2642.84+1100.33+2642.84+1099.81L2642.84+1052C2642.84+1051.47+2642.99+1051.06+2643.31+1050.77C2643.62+1050.49+2644.01+1050.34+2644.49+1050.34L2647.52+1050.34C2648.05+1050.34+2648.45+1050.49+2648.74+1050.77C2649.03+1051.06+2649.17+1051.47+2649.17+1052L2649.17+1055.17C2651.96+1051.47+2655.92+1049.62+2661.05+1049.62C2666.09+1049.62+2669.87+1051.22+2672.39+1054.41C2674.91+1057.6+2676.25+1061.67+2676.39+1066.61C2676.44+1067.14+2676.46+1067.96+2676.46+1069.06C2676.46+1070.17+2676.44+1070.98+2676.39+1071.51C2676.25+1076.41+2674.91+1080.46+2672.39+1083.68C2669.87+1086.89+2666.09+1088.5+2661.05+1088.5C2655.92+1088.5+2652.03+1086.68+2649.39+1083.03L2649.39+1099.81C2649.39+1100.29+2649.23+1100.68+2648.92+1100.99C2648.61+1101.31+2648.21+1101.46+2647.73+1101.46L2644.49+1101.46ZM2659.69+1082.89C2663.14+1082.89+2665.66+1081.81+2667.25+1079.65C2668.83+1077.49+2669.69+1074.65+2669.84+1071.15C2669.89+1070.67+2669.91+1069.97+2669.91+1069.06C2669.91+1059.85+2666.5+1055.24+2659.69+1055.24C2656.33+1055.24+2653.79+1056.35+2652.09+1058.59C2650.39+1060.82+2649.49+1063.45+2649.39+1066.47C2649.34+1067+2649.32+1067.93+2649.32+1069.28C2649.32+1070.62+2649.34+1071.56+2649.39+1072.09C2649.49+1075.01+2650.41+1077.55+2652.16+1079.68C2653.91+1081.82+2656.42+1082.89+2659.69+1082.89Z" opacity="1" fill="#ffffff"/>
<path d="M2700.37+1088.5C2695.47+1088.5+2691.56+1086.98+2688.63+1083.93C2685.7+1080.88+2684.09+1076.72+2683.81+1071.44L2683.73+1068.99L2683.81+1066.61C2684.09+1061.43+2685.7+1057.3+2688.63+1054.23C2691.56+1051.16+2695.47+1049.62+2700.37+1049.62C2705.65+1049.62+2709.74+1051.3+2712.64+1054.66C2715.55+1058.02+2717+1062.58+2717+1068.34L2717+1069.64C2717+1070.12+2716.84+1070.51+2716.53+1070.83C2716.22+1071.14+2715.82+1071.29+2715.34+1071.29L2690.36+1071.29L2690.36+1071.94C2690.5+1075.06+2691.46+1077.73+2693.24+1079.93C2695.01+1082.14+2697.37+1083.25+2700.29+1083.25C2702.55+1083.25+2704.39+1082.8+2705.8+1081.91C2707.22+1081.03+2708.29+1080.1+2709.01+1079.14C2709.44+1078.57+2709.77+1078.22+2710.01+1078.1C2710.25+1077.98+2710.66+1077.92+2711.24+1077.92L2714.41+1077.92C2714.84+1077.92+2715.21+1078.04+2715.52+1078.28C2715.83+1078.52+2715.99+1078.83+2715.99+1079.21C2715.99+1080.27+2715.34+1081.54+2714.05+1083.03C2712.75+1084.52+2710.91+1085.8+2708.54+1086.88C2706.16+1087.96+2703.44+1088.5+2700.37+1088.5ZM2710.45+1066.4L2710.45+1066.18C2710.45+1062.82+2709.53+1060.09+2707.71+1057.97C2705.89+1055.86+2703.44+1054.81+2700.37+1054.81C2697.25+1054.81+2694.8+1055.86+2693.02+1057.97C2691.25+1060.09+2690.36+1062.82+2690.36+1066.18L2690.36+1066.4L2710.45+1066.4Z" opacity="1" fill="#ffffff"/>
<path d="M2727.44+1087.78C2726.96+1087.78+2726.56+1087.63+2726.25+1087.31C2725.94+1087+2725.78+1086.61+2725.78+1086.13L2725.78+1052.07C2725.78+1051.59+2725.94+1051.18+2726.25+1050.85C2726.56+1050.51+2726.96+1050.34+2727.44+1050.34L2730.46+1050.34C2730.99+1050.34+2731.41+1050.5+2731.72+1050.81C2732.03+1051.12+2732.19+1051.54+2732.19+1052.07L2732.19+1055.24C2734.16+1051.97+2737.49+1050.34+2742.2+1050.34L2745.01+1050.34C2745.53+1050.34+2745.94+1050.49+2746.23+1050.77C2746.52+1051.06+2746.66+1051.47+2746.66+1052L2746.66+1054.66C2746.66+1055.14+2746.52+1055.54+2746.23+1055.85C2745.94+1056.16+2745.53+1056.32+2745.01+1056.32L2740.9+1056.32C2738.26+1056.32+2736.19+1057.09+2734.67+1058.62C2733.16+1060.16+2732.41+1062.25+2732.41+1064.89L2732.41+1086.13C2732.41+1086.61+2732.24+1087+2731.9+1087.31C2731.57+1087.63+2731.16+1087.78+2730.68+1087.78L2727.44+1087.78Z" opacity="1" fill="#ffffff"/>
</g>
</g>
</svg>
