<?xml version="1.0" encoding="UTF-8" standalone="no"?> <!-- Created with Vectornator for iOS (http://vectornator.io/) --><!DOCTYPE svg PUBLIC "-//W3C//DTD SVG 1.1//EN" "http://www.w3.org/Graphics/SVG/1.1/DTD/svg11.dtd">
<svg style="fill-rule:evenodd;clip-rule:evenodd;stroke-linecap:round;stroke-linejoin:round;" xmlns:vectornator="http://vectornator.io" xmlns:xlink="http://www.w3.org/1999/xlink" xmlns="http://www.w3.org/2000/svg" xml:space="preserve" version="1.1" viewBox="0 0 1024 1024">
<metadata>
<vectornator:setting key="DisplayWhiteBackground" value="0"/>
<vectornator:setting key="RulersVisible" value="1"/>
<vectornator:setting key="SnapToEdges" value="0"/>
<vectornator:setting key="Units" value="Pixels"/>
<vectornator:setting key="DynamicGuides" value="0"/>
<vectornator:setting key="SnapToPoints" value="0"/>
<vectornator:setting key="CMYKEnabledKey" value="0"/>
<vectornator:setting key="SnapToGrid" value="0"/>
<vectornator:setting key="ShowGrid" value="1"/>
<vectornator:setting key="GridSpacing" value="36"/>
</metadata>
<defs>
<linearGradient y1="195.203" id="LinearGradient" x1="348.567" y2="765.203" x2="356.567" gradientUnits="userSpaceOnUse" gradientTransform="matrix(1 0 0 1 1.71828 -2.87649)">
<stop stop-color="#025260" offset="0"/>
<stop stop-opacity="0.95" stop-color="#ff692f" offset="1"/>
</linearGradient>
</defs>
<g id="Layer 2" vectornator:layerName="Layer 2">
<g opacity="1"/>
<path d="M64.397+0L959.603+0C995.168+0+1024+28.8315+1024+64.397L1024+959.603C1024+995.168+995.168+1024+959.603+1024L64.397+1024C28.8315+1024+0+995.168+0+959.603L0+64.397C0+28.8315+28.8315+0+64.397+0Z" opacity="1" fill="url(#LinearGradient)"/>
<g opacity="1">
<path d="M244.8+549.438C244.8+559.998+242.449+569.818+237.748+578.9C233.046+587.981+225.895+595.373+216.296+601.076C206.696+606.778+194.843+609.629+180.738+609.629C167.024+609.629+154.829+606.936+144.152+601.551C133.475+596.165+124.953+588.773+118.586+579.375C112.219+569.977+108.546+559.259+107.566+547.22L136.071+547.22C136.658+553.556+138.667+559.734+142.095+565.753C145.523+571.772+150.421+576.735+156.788+580.642C163.155+584.549+170.845+586.503+179.856+586.503C191.611+586.503+200.623+583.124+206.892+576.366C213.161+569.607+216.296+560.948+216.296+550.388C216.296+541.307+214.092+533.915+209.684+528.213C205.276+522.51+199.839+518.023+193.374+514.749C186.909+511.475+178.093+507.938+166.926+504.136C153.801+499.49+143.27+495.108+135.336+490.989C127.402+486.871+120.643+480.694+115.06+472.457C109.476+464.22+106.684+453.344+106.684+439.827C106.684+428.211+109.28+417.968+114.472+409.098C119.663+400.228+127.108+393.364+136.805+388.506C146.503+383.649+157.915+381.22+171.041+381.22C191.415+381.22+207.578+386.553+219.528+397.218C231.478+407.884+238.433+421.453+240.392+437.926L211.594+437.926C210.026+429.056+205.814+421.242+198.958+414.483C192.101+407.725+182.795+404.346+171.041+404.346C160.266+404.346+151.646+407.356+145.181+413.375C138.716+419.394+135.483+427.894+135.483+438.877C135.483+447.536+137.589+454.558+141.801+459.943C146.013+465.329+151.254+469.553+157.523+472.615C163.792+475.678+172.412+479.11+183.383+482.911C196.705+487.557+207.431+491.993+215.561+496.216C223.691+500.44+230.597+506.829+236.278+515.383C241.96+523.936+244.8+535.288+244.8+549.438Z" opacity="1" fill="#fffbfb"/>
<path d="M369.105+607.411L307.393+529.163L307.393+607.411L280.652+607.411L280.652+372.983L307.393+372.983L307.393+509.205L368.223+433.491L400.842+433.491L328.551+519.976L402.605+607.411L369.105+607.411Z" opacity="1" fill="#fffbfb"/>
<path d="M437.281+433.491L489.589+570.346L538.076+433.491L567.756+433.491L471.957+689.778L441.689+689.778L475.189+604.56L407.307+433.491L437.281+433.491Z" opacity="1" fill="#fffbfb"/>
<path d="M618.889+372.983L618.889+607.411L592.147+607.411L592.147+372.983L618.889+372.983Z" opacity="1" fill="#fffbfb"/>
<path d="M727.912+431.274C743.585+431.274+756.858+435.497+767.731+443.945C778.603+452.393+786.195+463.692+790.505+477.842L790.505+433.491L817.247+433.491L817.247+607.411L790.505+607.411L790.505+563.06C786.195+577.21+778.603+588.509+767.731+596.957C756.858+605.405+743.585+609.629+727.912+609.629C713.611+609.629+700.877+606.039+689.71+598.858C678.543+591.677+669.776+581.381+663.409+567.97C657.042+554.56+653.858+538.773+653.858+520.61C653.858+502.447+657.042+486.607+663.409+473.09C669.776+459.574+678.543+449.225+689.71+442.045C700.877+434.864+713.611+431.274+727.912+431.274ZM735.552+456.934C719.096+456.934+705.921+462.583+696.028+473.882C686.134+485.181+681.188+500.757+681.188+520.61C681.188+540.462+686.134+556.038+696.028+567.337C705.921+578.636+719.096+584.285+735.552+584.285C746.132+584.285+755.584+581.645+763.91+576.366C772.236+571.086+778.75+563.641+783.452+554.032C788.154+544.422+790.505+533.281+790.505+520.61C790.505+507.938+788.154+496.744+783.452+487.029C778.75+477.314+772.236+469.87+763.91+464.695C755.584+459.521+746.132+456.934+735.552+456.934Z" opacity="1" fill="#fffbfb"/>
<path d="M886.598+468.655C891.888+456.617+899.626+447.272+909.814+440.619C920.001+433.966+932.147+430.64+946.253+430.64L946.253+462.003L938.024+462.003C922.939+462.003+910.597+466.174+900.998+474.516C891.398+482.858+886.598+496.639+886.598+515.858L886.598+607.411L859.857+607.411L859.857+433.491L886.598+433.491L886.598+468.655Z" opacity="1" fill="#fffbfb"/>
</g>
</g>
</svg>
