<?xml version="1.0" encoding="UTF-8" standalone="no"?> <!-- Created with Vectornator for iOS (http://vectornator.io/) --><!DOCTYPE svg PUBLIC "-//W3C//DTD SVG 1.1//EN" "http://www.w3.org/Graphics/SVG/1.1/DTD/svg11.dtd">
<svg style="fill-rule:evenodd;clip-rule:evenodd;stroke-linecap:round;stroke-linejoin:round;" xmlns:vectornator="http://vectornator.io" xmlns:xlink="http://www.w3.org/1999/xlink" xmlns="http://www.w3.org/2000/svg" xml:space="preserve" version="1.1" viewBox="0 0 1024 1024">
<metadata>
<vectornator:setting key="DisplayWhiteBackground" value="0"/>
<vectornator:setting key="RulersVisible" value="1"/>
<vectornator:setting key="GridSpacing" value="36"/>
<vectornator:setting key="Units" value="Pixels"/>
<vectornator:setting key="DynamicGuides" value="0"/>
<vectornator:setting key="SnapToPoints" value="0"/>
<vectornator:setting key="CMYKEnabledKey" value="0"/>
<vectornator:setting key="SnapToGrid" value="0"/>
<vectornator:setting key="ShowGrid" value="1"/>
<vectornator:setting key="SnapToEdges" value="0"/>
</metadata>
<defs>
<linearGradient y1="195.203" id="LinearGradient" x1="348.567" y2="765.203" x2="356.567" gradientUnits="userSpaceOnUse" gradientTransform="matrix(1 0 0 1 1.71828 -2.87649)">
<stop stop-color="#025260" offset="0"/>
<stop stop-opacity="0.95" stop-color="#ff692f" offset="1"/>
</linearGradient>
</defs>
<g id="Layer 2" vectornator:layerName="Layer 2">
<g opacity="1"/>
<path d="M64.397+0L959.603+0C995.168+0+1024+28.8315+1024+64.397L1024+959.603C1024+995.168+995.168+1024+959.603+1024L64.397+1024C28.8315+1024+0+995.168+0+959.603L0+64.397C0+28.8315+28.8315+0+64.397+0Z" opacity="1" fill="url(#LinearGradient)"/>
<g opacity="1">
<path d="M192.933+576.626C222.712+576.626+237.601+565.644+237.601+543.68C237.601+536.922+236.278+531.166+233.633+526.414C230.989+521.663+227.413+517.544+222.907+514.059C218.402+510.575+213.259+507.565+207.48+505.031C201.7+502.496+195.578+499.962+189.113+497.428C181.669+494.682+174.616+491.567+167.955+488.082C161.294+484.598+155.515+480.479+150.617+475.727C145.719+470.975+141.85+465.326+139.009+458.779C136.169+452.232+134.748+444.312+134.748+435.019C134.748+415.8+140.822+400.805+152.968+390.034C165.114+379.263+181.865+373.878+203.219+373.878C215.561+373.878+226.777+375.303+236.866+378.155C246.955+381.006+254.351+384.121+259.053+387.5L249.943+412.527C245.829+409.781+239.707+407.088+231.576+404.448C223.446+401.809+213.994+400.489+203.219+400.489C197.733+400.489+192.64+401.122+187.938+402.389C183.236+403.657+179.122+405.557+175.595+408.092C172.069+410.626+169.277+413.847+167.22+417.754C165.163+421.661+164.135+426.255+164.135+431.534C164.135+437.448+165.212+442.411+167.367+446.424C169.522+450.437+172.559+453.974+176.477+457.036C180.395+460.099+184.95+462.897+190.142+465.431C195.333+467.966+201.064+470.5+207.333+473.035C216.149+476.836+224.23+480.638+231.576+484.439C238.923+488.241+245.29+492.781+250.678+498.061C256.065+503.341+260.228+509.624+263.167+516.911C266.105+524.197+267.575+533.014+267.575+543.363C267.575+562.582+261.061+577.366+248.033+587.714C235.005+598.063+216.638+603.237+192.933+603.237C184.901+603.237+177.506+602.656+170.747+601.495C163.988+600.333+157.964+598.961+152.674+597.377C147.385+595.793+142.83+594.103+139.009+592.308C135.189+590.513+132.202+588.981+130.047+587.714L138.569+562.371C143.075+565.116+149.931+568.179+159.139+571.558C168.347+574.937+179.612+576.626+192.933+576.626Z" opacity="1" fill="#fffbfb"/>
<path d="M355.44+507.882C361.317+512.74+367.537+518.759+374.1+525.939C380.663+533.12+387.128+540.881+393.495+549.224C399.862+557.566+405.886+566.014+411.568+574.567C417.249+583.121+422.049+591.093+425.967+598.485L393.936+598.485C389.822+591.093+385.071+583.543+379.684+575.834C374.296+568.126+368.664+560.734+362.787+553.659C356.909+546.584+350.934+540.089+344.861+534.176C338.788+528.262+333.008+523.299+327.523+519.287L327.523+598.485L300.194+598.485L300.194+357.721L327.523+352.653L327.523+502.813C332.225+497.745+337.416+492.148+343.098+486.023C348.779+479.898+354.362+473.668+359.848+467.332C365.333+460.996+370.525+454.924+375.423+449.117C380.32+443.309+384.532+438.187+388.059+433.752L420.09+433.752C415.584+439.032+410.686+444.84+405.397+451.176C400.107+457.512+394.622+463.9+388.94+470.342C383.259+476.783+377.529+483.225+371.749+489.666C365.97+496.108+360.534+502.18+355.44+507.882Z" opacity="1" fill="#fffbfb"/>
<path d="M435.665+629.214C437.82+630.27+440.611+631.274+444.04+632.224C447.468+633.174+450.848+633.65+454.178+633.65C464.953+633.65+473.377+631.062+479.45+625.888C485.524+620.714+491.009+612.319+495.907+600.703C483.564+575.359+472.055+548.485+461.378+520.079C450.701+491.673+441.836+462.897+434.783+433.752L464.169+433.752C466.324+443.256+468.92+453.499+471.957+464.481C474.993+475.463+478.373+486.762+482.095+498.378C485.817+509.994+489.834+521.61+494.144+533.226C498.454+544.841+502.959+556.035+507.661+566.806C515.106+544.63+521.571+522.666+527.056+500.913C532.542+479.159+537.733+456.772+542.631+433.752L570.842+433.752C563.789+464.798+555.953+494.629+547.333+523.247C538.713+551.864+529.407+578.633+519.416+603.554C515.498+613.058+511.432+621.242+507.22+628.106C503.008+634.97+498.356+640.619+493.262+645.054C488.168+649.489+482.438+652.763+476.071+654.875C469.704+656.987+462.504+658.043+454.472+658.043C452.317+658.043+450.064+657.884+447.713+657.568C445.362+657.251+443.06+656.828+440.807+656.3C438.554+655.772+436.497+655.192+434.636+654.558C432.775+653.924+431.453+653.396+430.669+652.974L435.665+629.214Z" opacity="1" fill="#fffbfb"/>
<path d="M645.483+601.653C628.635+601.231+616.685+597.324+609.632+589.932C602.579+582.54+599.053+571.03+599.053+555.401L599.053+357.721L626.382+352.653L626.382+550.649C626.382+555.507+626.774+559.52+627.558+562.688C628.341+565.855+629.615+568.39+631.378+570.291C633.141+572.191+635.492+573.617+638.431+574.567C641.369+575.518+644.993+576.31+649.303+576.943L645.483+601.653Z" opacity="1" fill="#fffbfb"/>
<path d="M731.585+577.26C738.05+577.26+743.781+577.102+748.776+576.785C753.772+576.468+757.935+575.887+761.266+575.042L761.266+525.939C759.306+524.883+756.123+523.986+751.715+523.247C747.307+522.507+741.968+522.138+735.699+522.138C731.585+522.138+727.226+522.455+722.622+523.088C718.019+523.722+713.807+525.042+709.986+527.048C706.166+529.054+702.983+531.8+700.436+535.285C697.889+538.769+696.616+543.363+696.616+549.065C696.616+559.625+699.75+566.964+706.019+571.083C712.288+575.201+720.81+577.26+731.585+577.26ZM729.234+429.634C740.205+429.634+749.462+431.165+757.004+434.227C764.547+437.29+770.62+441.619+775.224+447.216C779.828+452.813+783.109+459.465+785.068+467.174C787.028+474.883+788.007+483.383+788.007+492.676L788.007+595.634C785.656+596.057+782.375+596.637+778.163+597.377C773.951+598.116+769.2+598.802+763.91+599.436C758.621+600.069+752.89+600.65+746.719+601.178C740.548+601.706+734.426+601.97+728.353+601.97C719.733+601.97+711.798+601.02+704.55+599.119C697.301+597.218+691.032+594.209+685.743+590.09C680.453+585.972+676.339+580.534+673.4+573.775C670.462+567.017+668.992+558.886+668.992+549.382C668.992+540.301+670.707+532.486+674.135+525.939C677.563+519.392+682.216+514.112+688.093+510.1C693.971+506.087+700.828+503.13+708.664+501.229C716.5+499.329+724.728+498.378+733.348+498.378C736.091+498.378+738.932+498.537+741.871+498.853C744.809+499.17+747.601+499.593+750.246+500.121C752.89+500.649+755.192+501.124+757.151+501.546C759.111+501.968+760.482+502.285+761.266+502.496L761.266+494.26C761.266+489.402+760.776+484.598+759.796+479.846C758.817+475.094+757.053+470.87+754.507+467.174C751.96+463.478+748.482+460.521+744.074+458.304C739.667+456.086+733.936+454.977+726.883+454.977C717.872+454.977+709.986+455.664+703.227+457.036C696.469+458.409+691.424+459.835+688.093+461.313L684.861+436.92C688.387+435.23+694.265+433.594+702.493+432.01C710.721+430.426+719.635+429.634+729.234+429.634Z" opacity="1" fill="#fffbfb"/>
<path d="M889.684+430.267C892.035+430.267+894.729+430.426+897.765+430.742C900.802+431.059+903.789+431.482+906.728+432.01C909.667+432.538+912.36+433.066+914.809+433.594C917.258+434.122+919.07+434.597+920.246+435.019L915.544+460.68C913.389+459.835+909.814+458.832+904.818+457.67C899.822+456.508+893.406+455.928+885.57+455.928C880.476+455.928+875.432+456.508+870.436+457.67C865.44+458.832+862.159+459.624+860.591+460.046L860.591+598.485L833.262+598.485L833.262+440.721C839.727+438.187+847.759+435.811+857.359+433.594C866.958+431.376+877.733+430.267+889.684+430.267Z" opacity="1" fill="#fffbfb"/>
</g>
</g>
</svg>
