<?xml version="1.0" encoding="UTF-8" standalone="no"?> <!-- Created with Vectornator for iOS (http://vectornator.io/) --><!DOCTYPE svg PUBLIC "-//W3C//DTD SVG 1.1//EN" "http://www.w3.org/Graphics/SVG/1.1/DTD/svg11.dtd">
<svg style="fill-rule:evenodd;clip-rule:evenodd;stroke-linecap:round;stroke-linejoin:round;" xmlns:vectornator="http://vectornator.io" xmlns:xlink="http://www.w3.org/1999/xlink" xmlns="http://www.w3.org/2000/svg" xml:space="preserve" version="1.1" viewBox="0 0 1024 1024">
<metadata>
<vectornator:setting key="DisplayWhiteBackground" value="0"/>
<vectornator:setting key="RulersVisible" value="1"/>
<vectornator:setting key="SnapToEdges" value="0"/>
<vectornator:setting key="Units" value="Pixels"/>
<vectornator:setting key="DynamicGuides" value="0"/>
<vectornator:setting key="SnapToPoints" value="0"/>
<vectornator:setting key="CMYKEnabledKey" value="0"/>
<vectornator:setting key="SnapToGrid" value="0"/>
<vectornator:setting key="ShowGrid" value="1"/>
<vectornator:setting key="GridSpacing" value="36"/>
</metadata>
<defs>
<linearGradient y1="195.203" id="LinearGradient" x1="348.567" y2="765.203" x2="356.567" gradientUnits="userSpaceOnUse" gradientTransform="matrix(1 0 0 1 1.71828 -2.87649)">
<stop stop-color="#f47403" offset="0"/>
<stop stop-color="#707ba2" offset="1"/>
</linearGradient>
</defs>
<g id="Layer 2" vectornator:layerName="Layer 2">
<g opacity="1"/>
<path d="M64.397+0L959.603+0C995.168+0+1024+28.8315+1024+64.397L1024+959.603C1024+995.168+995.168+1024+959.603+1024L64.397+1024C28.8315+1024+0+995.168+0+959.603L0+64.397C0+28.8315+28.8315+0+64.397+0Z" opacity="1" fill="url(#LinearGradient)"/>
<g opacity="1">
<path d="M281.378+546.901C281.378+566.754+274.619+582.699+261.101+594.737C247.387+606.564+230.735+612.478+211.144+612.478C193.708+612.478+178.33+606.987+165.008+596.004C151.686+585.022+142.478+570.027+137.385+551.02L163.245+539.615C165.008+546.373+167.457+552.498+170.591+557.989C173.726+563.48+177.399+568.179+181.611+572.086C185.823+575.994+190.476+579.056+195.569+581.274C200.663+583.491+206.051+584.6+211.732+584.6C224.074+584.6+234.164+581.168+242+574.304C249.836+567.44+253.754+558.306+253.754+546.901C253.754+537.397+250.522+529.266+244.057+522.508C237.984+515.961+226.621+509.625+209.969+503.5C193.121+496.953+182.64+492.518+178.525+490.195C156.192+477.946+145.025+459.888+145.025+436.023C145.025+419.339+151.196+405.083+163.538+393.256C176.077+381.429+191.455+375.515+209.675+375.515C225.739+375.515+239.649+379.95+251.404+388.821C263.158+397.48+270.994+408.356+274.913+421.451L249.64+432.855C247.289+424.407+242.637+417.385+235.682+411.788C228.727+406.192+220.254+403.393+210.263+403.393C199.684+403.393+190.77+406.561+183.521+412.897C176.272+418.811+172.648+426.519+172.648+436.023C172.648+443.837+175.489+450.596+181.17+456.298C187.439+462+201.055+468.759+222.017+476.573C243.371+484.387+258.603+493.944+267.713+505.243C276.823+516.542+281.378+530.428+281.378+546.901Z" opacity="1" fill="#fffbfb"/>
<path d="M435.95+607.409L403.331+607.409L358.37+534.23L336.33+557.672L336.33+607.409L309.295+607.409L309.295+380.584L336.33+380.584L336.33+520.291L398.629+452.18L433.305+452.18L433.305+453.447L377.177+513.638L435.95+606.142L435.95+607.409Z" opacity="1" fill="#fffbfb"/>
<path d="M579.943+452.18L489.727+675.837L461.81+675.837L495.31+597.588L435.95+452.18L465.336+452.18L508.24+563.691L508.828+563.691L550.557+452.18L579.943+452.18Z" opacity="1" fill="#fffbfb"/>
<path d="M621.672+380.584L621.672+607.409L594.636+607.409L594.636+380.584L621.672+380.584Z" opacity="1" fill="#fffbfb"/>
<path d="M672.804+559.89C672.804+567.493+675.792+573.829+681.767+578.898C687.742+583.966+694.746+586.501+702.778+586.501C714.141+586.501+724.279+581.96+733.193+572.878C742.107+563.797+746.564+553.132+746.564+540.882C738.14+533.702+726.385+530.111+711.3+530.111C700.329+530.111+691.17+532.962+683.824+538.665C676.477+544.367+672.804+551.442+672.804+559.89ZM707.774+447.111C727.756+447.111+743.527+452.866+755.086+464.376C766.644+475.886+772.424+491.673+772.424+511.737L772.424+607.409L746.564+607.409L746.564+585.867L745.388+585.867C734.221+603.608+719.332+612.478+700.721+612.478C684.852+612.478+671.58+607.409+660.902+597.272C650.225+587.134+644.887+574.462+644.887+559.256C644.887+543.205+650.519+530.428+661.784+520.924C673.049+511.42+688.085+506.668+706.892+506.668C722.957+506.668+736.181+509.836+746.564+516.172L746.564+509.52C746.564+499.382+742.841+490.776+735.397+483.701C727.952+476.626+719.234+473.088+709.243+473.088C694.158+473.088+682.208+479.952+673.392+493.68L649.589+477.523C662.715+457.248+682.11+447.111+707.774+447.111Z" opacity="1" fill="#fffbfb"/>
<path d="M830.021+607.409L802.985+607.409L802.985+452.18L828.845+452.18L828.845+477.523L830.021+477.523C832.764+469.287+838.396+462.264+846.918+456.456C855.44+450.648+863.815+447.745+872.043+447.745C879.88+447.745+886.541+449.012+892.026+451.546L883.798+479.741C880.468+478.262+875.178+477.523+867.929+477.523C857.742+477.523+848.877+481.958+841.335+490.829C833.792+499.699+830.021+510.048+830.021+521.875L830.021+607.409Z" opacity="1" fill="#fffbfb"/>
</g>
</g>
</svg>
