<?xml version="1.0" encoding="UTF-8" standalone="no"?> <!-- Created with Vectornator for iOS (http://vectornator.io/) --><!DOCTYPE svg PUBLIC "-//W3C//DTD SVG 1.1//EN" "http://www.w3.org/Graphics/SVG/1.1/DTD/svg11.dtd">
<svg style="fill-rule:evenodd;clip-rule:evenodd;stroke-linecap:round;stroke-linejoin:round;" xmlns:vectornator="http://vectornator.io" xmlns:xlink="http://www.w3.org/1999/xlink" xmlns="http://www.w3.org/2000/svg" xml:space="preserve" version="1.1" viewBox="0 0 1024 1024">
<metadata>
<vectornator:setting key="DisplayWhiteBackground" value="0"/>
<vectornator:setting key="RulersVisible" value="1"/>
<vectornator:setting key="GridSpacing" value="36"/>
<vectornator:setting key="Units" value="Pixels"/>
<vectornator:setting key="DynamicGuides" value="0"/>
<vectornator:setting key="SnapToPoints" value="0"/>
<vectornator:setting key="CMYKEnabledKey" value="0"/>
<vectornator:setting key="SnapToGrid" value="0"/>
<vectornator:setting key="ShowGrid" value="1"/>
<vectornator:setting key="SnapToEdges" value="0"/>
</metadata>
<defs>
<linearGradient y1="195.203" id="LinearGradient" x1="348.567" y2="765.203" x2="356.567" gradientUnits="userSpaceOnUse" gradientTransform="matrix(1 0 0 1 1.71828 -2.87649)">
<stop stop-color="#025260" offset="0"/>
<stop stop-opacity="0.95" stop-color="#ff692f" offset="1"/>
</linearGradient>
</defs>
<g id="Layer 2" vectornator:layerName="Layer 2">
<g opacity="1"/>
<path d="M64.397+0L959.603+0C995.168+0+1024+28.8315+1024+64.397L1024+959.603C1024+995.168+995.168+1024+959.603+1024L64.397+1024C28.8315+1024+0+995.168+0+959.603L0+64.397C0+28.8315+28.8315+0+64.397+0Z" opacity="1" fill="url(#LinearGradient)"/>
<g opacity="1">
<path d="M501.971+705.602C564.883+705.602+596.338+682.4+596.338+635.996C596.338+621.718+593.545+609.56+587.957+599.52C582.37+589.481+574.816+580.78+565.297+573.418C555.777+566.056+544.912+559.698+532.702+554.344C520.493+548.989+507.559+543.635+493.9+538.281C478.172+532.48+463.272+525.899+449.2+518.537C435.127+511.175+422.918+502.474+412.57+492.435C402.223+482.396+394.049+470.46+388.047+456.628C382.046+442.796+379.045+426.064+379.045+406.432C379.045+365.828+391.876+334.149+417.537+311.393C443.198+288.638+478.586+277.26+523.7+277.26C549.776+277.26+573.471+280.272+594.786+286.295C616.102+292.319+631.726+298.9+641.66+306.039L622.414+358.913C613.722+353.112+600.788+347.423+583.611+341.846C566.435+336.268+546.464+333.48+523.7+333.48C512.111+333.48+501.35+334.818+491.417+337.495C481.483+340.173+472.792+344.188+465.342+349.543C457.891+354.897+451.993+361.701+447.648+369.956C443.302+378.21+441.129+387.915+441.129+399.07C441.129+411.563+443.405+422.048+447.958+430.526C452.511+439.004+458.926+446.477+467.204+452.947C475.482+459.417+485.105+465.329+496.073+470.683C507.041+476.037+519.148+481.392+532.392+486.746C551.017+494.777+568.09+502.809+583.611+510.84C599.132+518.872+612.584+528.465+623.966+539.619C635.348+550.774+644.143+564.048+650.351+579.442C656.56+594.835+659.664+613.464+659.664+635.327C659.664+675.93+645.902+707.164+618.378+729.027C590.854+750.89+552.052+761.822+501.971+761.822C485.001+761.822+469.377+760.595+455.098+758.141C440.818+755.687+428.091+752.787+416.916+749.44C405.741+746.094+396.118+742.524+388.047+738.732C379.976+734.939+373.664+731.704+369.112+729.027L387.116+675.484C396.635+681.285+411.122+687.754+430.575+694.893C450.028+702.033+473.826+705.602+501.971+705.602Z" opacity="1" fill="#fffbfb"/>
</g>
</g>
</svg>
