<?xml version="1.0" encoding="UTF-8" standalone="no"?> <!-- Created with Vectornator for iOS (http://vectornator.io/) --><!DOCTYPE svg PUBLIC "-//W3C//DTD SVG 1.1//EN" "http://www.w3.org/Graphics/SVG/1.1/DTD/svg11.dtd">
<svg style="fill-rule:evenodd;clip-rule:evenodd;stroke-linecap:round;stroke-linejoin:round;" xmlns:vectornator="http://vectornator.io" xmlns:xlink="http://www.w3.org/1999/xlink" xmlns="http://www.w3.org/2000/svg" xml:space="preserve" version="1.1" viewBox="0 0 1024 1024">
<metadata>
<vectornator:setting key="DisplayWhiteBackground" value="0"/>
<vectornator:setting key="RulersVisible" value="1"/>
<vectornator:setting key="SnapToEdges" value="0"/>
<vectornator:setting key="Units" value="Pixels"/>
<vectornator:setting key="DynamicGuides" value="0"/>
<vectornator:setting key="SnapToPoints" value="0"/>
<vectornator:setting key="CMYKEnabledKey" value="0"/>
<vectornator:setting key="SnapToGrid" value="0"/>
<vectornator:setting key="ShowGrid" value="1"/>
<vectornator:setting key="GridSpacing" value="36"/>
</metadata>
<defs>
<linearGradient y1="195.203" id="LinearGradient" x1="348.567" y2="765.203" x2="356.567" gradientUnits="userSpaceOnUse" gradientTransform="matrix(1 0 0 1 1.71828 -2.87649)">
<stop stop-color="#025260" offset="0"/>
<stop stop-opacity="0.95" stop-color="#ff692f" offset="1"/>
</linearGradient>
</defs>
<g id="Layer 2" vectornator:layerName="Layer 2">
<g opacity="1"/>
<path d="M64.397+0L959.603+0C995.168+0+1024+28.8315+1024+64.397L1024+959.603C1024+995.168+995.168+1024+959.603+1024L64.397+1024C28.8315+1024+0+995.168+0+959.603L0+64.397C0+28.8315+28.8315+0+64.397+0Z" opacity="1" fill="url(#LinearGradient)"/>
<g opacity="1">
<path d="M291.378+546.901C291.378+566.754+284.619+582.699+271.101+594.737C257.387+606.564+240.735+612.478+221.144+612.478C203.708+612.478+188.33+606.987+175.008+596.004C161.686+585.022+152.478+570.027+147.385+551.02L173.245+539.615C175.008+546.373+177.457+552.498+180.591+557.989C183.726+563.48+187.399+568.179+191.611+572.086C195.823+575.994+200.476+579.056+205.569+581.274C210.663+583.491+216.051+584.6+221.732+584.6C234.074+584.6+244.164+581.168+252+574.304C259.836+567.44+263.754+558.306+263.754+546.901C263.754+537.397+260.522+529.266+254.057+522.508C247.984+515.961+236.621+509.625+219.969+503.5C203.121+496.953+192.64+492.518+188.525+490.195C166.192+477.946+155.025+459.888+155.025+436.023C155.025+419.339+161.196+405.083+173.538+393.256C186.077+381.429+201.455+375.515+219.675+375.515C235.739+375.515+249.649+379.95+261.404+388.821C273.158+397.48+280.994+408.356+284.913+421.451L259.64+432.855C257.289+424.407+252.637+417.385+245.682+411.788C238.727+406.192+230.254+403.393+220.263+403.393C209.684+403.393+200.77+406.561+193.521+412.897C186.272+418.811+182.648+426.519+182.648+436.023C182.648+443.837+185.489+450.596+191.17+456.298C197.439+462+211.055+468.759+232.017+476.573C253.371+484.387+268.603+493.944+277.713+505.243C286.823+516.542+291.378+530.428+291.378+546.901Z" opacity="1" fill="#fffbfb"/>
<path d="M445.95+607.409L413.331+607.409L368.37+534.23L346.33+557.672L346.33+607.409L319.295+607.409L319.295+380.584L346.33+380.584L346.33+520.291L408.629+452.18L443.305+452.18L443.305+453.447L387.177+513.638L445.95+606.142L445.95+607.409Z" opacity="1" fill="#fffbfb"/>
<path d="M589.943+452.18L499.727+675.837L471.81+675.837L505.31+597.588L445.95+452.18L475.336+452.18L518.24+563.691L518.828+563.691L560.557+452.18L589.943+452.18Z" opacity="1" fill="#fffbfb"/>
<path d="M631.672+380.584L631.672+607.409L604.636+607.409L604.636+380.584L631.672+380.584Z" opacity="1" fill="#fffbfb"/>
<path d="M682.804+559.89C682.804+567.493+685.792+573.829+691.767+578.898C697.742+583.966+704.746+586.501+712.778+586.501C724.141+586.501+734.279+581.96+743.193+572.878C752.107+563.797+756.564+553.132+756.564+540.882C748.14+533.702+736.385+530.111+721.3+530.111C710.329+530.111+701.17+532.962+693.824+538.665C686.477+544.367+682.804+551.442+682.804+559.89ZM717.774+447.111C737.756+447.111+753.527+452.866+765.086+464.376C776.644+475.886+782.424+491.673+782.424+511.737L782.424+607.409L756.564+607.409L756.564+585.867L755.388+585.867C744.221+603.608+729.332+612.478+710.721+612.478C694.852+612.478+681.58+607.409+670.902+597.272C660.225+587.134+654.887+574.462+654.887+559.256C654.887+543.205+660.519+530.428+671.784+520.924C683.049+511.42+698.085+506.668+716.892+506.668C732.957+506.668+746.181+509.836+756.564+516.172L756.564+509.52C756.564+499.382+752.841+490.776+745.397+483.701C737.952+476.626+729.234+473.088+719.243+473.088C704.158+473.088+692.208+479.952+683.392+493.68L659.589+477.523C672.715+457.248+692.11+447.111+717.774+447.111Z" opacity="1" fill="#fffbfb"/>
<path d="M840.021+607.409L812.985+607.409L812.985+452.18L838.845+452.18L838.845+477.523L840.021+477.523C842.764+469.287+848.396+462.264+856.918+456.456C865.44+450.648+873.815+447.745+882.043+447.745C889.88+447.745+896.541+449.012+902.026+451.546L893.798+479.741C890.468+478.262+885.178+477.523+877.929+477.523C867.742+477.523+858.877+481.958+851.335+490.829C843.792+499.699+840.021+510.048+840.021+521.875L840.021+607.409Z" opacity="1" fill="#fffbfb"/>
</g>
</g>
</svg>
