<?xml version="1.0" encoding="UTF-8" standalone="no"?> <!-- Created with Vectornator for iOS (http://vectornator.io/) --><!DOCTYPE svg PUBLIC "-//W3C//DTD SVG 1.1//EN" "http://www.w3.org/Graphics/SVG/1.1/DTD/svg11.dtd">
<svg style="fill-rule:evenodd;clip-rule:evenodd;stroke-linecap:round;stroke-linejoin:round;" xmlns:vectornator="http://vectornator.io" xmlns:xlink="http://www.w3.org/1999/xlink" xmlns="http://www.w3.org/2000/svg" xml:space="preserve" version="1.1" viewBox="0 0 1024 1024">
<metadata>
<vectornator:setting key="DisplayWhiteBackground" value="0"/>
<vectornator:setting key="RulersVisible" value="1"/>
<vectornator:setting key="GridSpacing" value="36"/>
<vectornator:setting key="Units" value="Pixels"/>
<vectornator:setting key="DynamicGuides" value="0"/>
<vectornator:setting key="SnapToPoints" value="0"/>
<vectornator:setting key="CMYKEnabledKey" value="0"/>
<vectornator:setting key="SnapToGrid" value="0"/>
<vectornator:setting key="ShowGrid" value="1"/>
<vectornator:setting key="SnapToEdges" value="0"/>
</metadata>
<defs>
<linearGradient y1="195.203" id="LinearGradient" x1="348.567" y2="765.203" x2="356.567" gradientUnits="userSpaceOnUse" gradientTransform="matrix(1 0 0 1 1.71828 -2.87649)">
<stop stop-color="#025260" offset="0"/>
<stop stop-opacity="0.95" stop-color="#ff692f" offset="1"/>
</linearGradient>
</defs>
<g id="Layer 2" vectornator:layerName="Layer 2">
<g opacity="1"/>
<path d="M64.397+0L959.603+0C995.168+0+1024+28.8315+1024+64.397L1024+959.603C1024+995.168+995.168+1024+959.603+1024L64.397+1024C28.8315+1024+0+995.168+0+959.603L0+64.397C0+28.8315+28.8315+0+64.397+0Z" opacity="1" fill="url(#LinearGradient)"/>
<g opacity="1">
<path d="M155.591+634.946C138.056+634.946+122.82+631.949+109.883+625.955C96.9452+619.961+87.1085+612.065+80.3725+602.268C73.6364+592.47+70.0546+581.923+69.6269+570.627C69.6269+568.783+70.2684+567.169+71.5515+565.786C72.8345+564.403+74.4383+563.711+76.3629+563.711L92.0803+563.711C95.9294+563.711+98.6024+566.017+100.099+570.627C102.024+580.31+107.53+588.666+116.619+595.698C125.707+602.729+138.698+606.244+155.591+606.244C173.768+606.244+187.347+602.786+196.328+595.871C205.309+588.955+209.8+579.388+209.8+567.169C209.8+559.331+207.608+552.876+203.224+547.805C198.841+542.733+192.318+538.295+183.658+534.492C174.997+530.688+162.006+526.02+144.685+520.487C128.219+515.415+115.122+509.998+105.392+504.234C95.6621+498.471+88.338+491.382+83.4197+482.968C78.5013+474.553+76.0422+463.891+76.0422+450.982C76.0422+438.533+79.1429+427.41+85.3443+417.612C91.5457+407.815+100.527+400.092+112.288+394.444C124.05+388.796+137.949+385.972+153.987+385.972C170.667+385.972+184.941+389.141+196.809+395.481C208.677+401.821+217.712+409.774+223.914+419.341C230.115+428.908+233.43+438.533+233.857+448.215C233.857+450.29+233.216+452.019+231.933+453.402C230.65+454.785+229.046+455.477+227.121+455.477L211.083+455.477C209.372+455.477+207.769+454.901+206.272+453.748C204.775+452.595+203.706+450.866+203.064+448.561C201.781+438.648+196.649+430.464+187.667+424.009C178.686+417.554+167.459+414.327+153.987+414.327C139.446+414.327+127.899+417.382+119.345+423.491C110.791+429.6+106.515+438.648+106.515+450.636C106.515+458.704+108.493+465.274+112.449+470.346C116.405+475.418+122.499+479.913+130.732+483.832C138.965+487.751+150.994+492.247+166.818+497.318C184.994+502.851+199.268+508.384+209.64+513.917C220.011+519.449+227.763+526.308+232.895+534.492C238.027+542.675+240.593+553.222+240.593+566.132C240.593+587.802+232.948+604.688+217.659+616.791C202.369+628.894+181.68+634.946+155.591+634.946Z" opacity="1" fill="#fffbfb"/>
<path d="M286.462+631.488C284.324+631.488+282.56+630.738+281.17+629.24C279.78+627.742+279.085+625.84+279.085+623.534L279.085+393.925C279.085+391.389+279.78+389.43+281.17+388.046C282.56+386.663+284.324+385.972+286.462+385.972L300.255+385.972C302.393+385.972+304.158+386.721+305.548+388.219C306.938+389.718+307.633+391.62+307.633+393.925L307.633+514.608L371.785+457.552C374.993+455.016+377.238+453.402+378.521+452.711C379.804+452.019+381.836+451.673+384.615+451.673L400.654+451.673C402.578+451.673+404.129+452.307+405.305+453.575C406.481+454.843+407.069+456.63+407.069+458.935C407.069+461.01+405.893+463.2+403.54+465.505L328.482+531.898L411.559+617.656C413.912+620.192+415.088+622.382+415.088+624.226C415.088+626.301+414.5+628.03+413.324+629.413C412.148+630.796+410.597+631.488+408.673+631.488L392.955+631.488C389.748+631.488+387.449+631.142+386.059+630.45C384.669+629.759+382.691+628.145+380.125+625.609L307.633+551.609L307.633+623.534C307.633+625.84+306.938+627.742+305.548+629.24C304.158+630.738+302.393+631.488+300.255+631.488L286.462+631.488Z" opacity="1" fill="#fffbfb"/>
<path d="M472.504+697.189C470.58+697.189+468.976+696.498+467.693+695.114C466.41+693.731+465.768+692.117+465.768+690.273C465.768+689.582+466.303+687.507+467.372+684.049L492.392+620.768L431.126+464.813C429.843+462.047+429.201+460.088+429.201+458.935C429.415+456.86+430.164+455.131+431.447+453.748C432.73+452.365+434.227+451.673+435.937+451.673L450.692+451.673C454.114+451.673+456.68+453.517+458.391+457.206L507.788+584.459L558.469+457.206C560.179+453.517+562.745+451.673+566.167+451.673L580.601+451.673C582.312+451.673+583.809+452.365+585.092+453.748C586.375+455.131+587.016+456.745+587.016+458.589C587.016+460.203+586.482+462.278+585.413+464.813L494.637+691.656C493.568+693.501+492.445+694.884+491.269+695.806C490.093+696.728+488.542+697.189+486.618+697.189L472.504+697.189Z" opacity="1" fill="#fffbfb"/>
<path d="M627.112+631.488C624.973+631.488+623.209+630.738+621.819+629.24C620.429+627.742+619.734+625.84+619.734+623.534L619.734+393.925C619.734+391.389+620.429+389.43+621.819+388.046C623.209+386.663+624.973+385.972+627.112+385.972L641.225+385.972C643.364+385.972+645.128+386.721+646.518+388.219C647.908+389.718+648.603+391.62+648.603+393.925L648.603+623.534C648.603+625.84+647.908+627.742+646.518+629.24C645.128+630.738+643.364+631.488+641.225+631.488L627.112+631.488Z" opacity="1" fill="#fffbfb"/>
<path d="M742.907+634.946C732.429+634.946+722.752+632.64+713.878+628.03C705.004+623.419+697.947+617.137+692.708+609.184C687.469+601.23+684.849+592.413+684.849+582.73C684.849+567.515+690.623+555.066+702.17+545.384C713.718+535.702+729.435+529.247+749.322+526.02L797.437+518.758L797.437+508.73C797.437+484.985+784.713+473.113+759.266+473.113C749.429+473.113+741.517+475.245+735.529+479.51C729.542+483.775+725.158+488.789+722.378+494.552C721.523+496.857+720.614+498.413+719.652+499.22C718.689+500.027+717.353+500.431+715.642+500.431L703.132+500.431C701.208+500.431+699.551+499.681+698.161+498.183C696.771+496.684+696.076+494.898+696.076+492.823C696.076+487.521+698.374+481.354+702.972+474.323C707.57+467.292+714.68+461.183+724.303+455.996C733.926+450.809+745.687+448.215+759.587+448.215C783.537+448.215+800.698+454.209+811.069+466.197C821.44+478.184+826.626+493.169+826.626+511.15L826.626+623.534C826.626+625.84+825.931+627.742+824.541+629.24C823.151+630.738+821.387+631.488+819.248+631.488L805.135+631.488C802.996+631.488+801.286+630.738+800.003+629.24C798.72+627.742+798.078+625.84+798.078+623.534L798.078+608.319C793.374+615.927+786.531+622.266+777.549+627.338C768.568+632.41+757.02+634.946+742.907+634.946ZM749.322+609.702C763.436+609.702+774.983+604.746+783.964+594.833C792.946+584.92+797.437+570.512+797.437+551.609L797.437+541.926L759.907+547.805C744.511+550.11+732.856+554.029+724.944+559.562C717.032+565.095+713.076+572.011+713.076+580.31C713.076+589.761+716.658+597.023+723.822+602.095C730.985+607.167+739.485+609.702+749.322+609.702Z" opacity="1" fill="#fffbfb"/>
<path d="M880.514+631.488C878.376+631.488+876.611+630.738+875.221+629.24C873.831+627.742+873.136+625.84+873.136+623.534L873.136+459.972C873.136+457.667+873.831+455.707+875.221+454.094C876.611+452.48+878.376+451.673+880.514+451.673L893.986+451.673C896.338+451.673+898.209+452.422+899.599+453.921C900.989+455.419+901.684+457.436+901.684+459.972L901.684+475.187C910.452+459.511+925.314+451.673+946.27+451.673L958.78+451.673C961.132+451.673+962.95+452.365+964.233+453.748C965.516+455.131+966.157+457.091+966.157+459.626L966.157+472.421C966.157+474.726+965.516+476.628+964.233+478.127C962.95+479.625+961.132+480.374+958.78+480.374L940.496+480.374C928.735+480.374+919.487+484.063+912.751+491.44C906.015+498.817+902.647+508.845+902.647+521.524L902.647+623.534C902.647+625.84+901.898+627.742+900.401+629.24C898.904+630.738+897.087+631.488+894.948+631.488L880.514+631.488Z" opacity="1" fill="#fffbfb"/>
</g>
</g>
</svg>
