<?xml version="1.0" encoding="UTF-8" standalone="no"?> <!-- Created with Vectornator for iOS (http://vectornator.io/) --><!DOCTYPE svg PUBLIC "-//W3C//DTD SVG 1.1//EN" "http://www.w3.org/Graphics/SVG/1.1/DTD/svg11.dtd">
<svg style="fill-rule:evenodd;clip-rule:evenodd;stroke-linecap:round;stroke-linejoin:round;" xmlns:vectornator="http://vectornator.io" xmlns:xlink="http://www.w3.org/1999/xlink" xmlns="http://www.w3.org/2000/svg" xml:space="preserve" version="1.1" viewBox="0 0 1024 1024">
<metadata>
<vectornator:setting key="DisplayWhiteBackground" value="0"/>
<vectornator:setting key="RulersVisible" value="1"/>
<vectornator:setting key="SnapToEdges" value="0"/>
<vectornator:setting key="Units" value="Pixels"/>
<vectornator:setting key="DynamicGuides" value="0"/>
<vectornator:setting key="SnapToPoints" value="0"/>
<vectornator:setting key="CMYKEnabledKey" value="0"/>
<vectornator:setting key="SnapToGrid" value="0"/>
<vectornator:setting key="ShowGrid" value="1"/>
<vectornator:setting key="GridSpacing" value="36"/>
</metadata>
<defs>
<linearGradient y1="195.203" id="LinearGradient" x1="348.567" y2="765.203" x2="356.567" gradientUnits="userSpaceOnUse" gradientTransform="matrix(1 0 0 1 1.71828 -2.87649)">
<stop stop-color="#025260" offset="0"/>
<stop stop-opacity="0.95" stop-color="#ff692f" offset="1"/>
</linearGradient>
</defs>
<g id="Layer 2" vectornator:layerName="Layer 2">
<path d="M64.397+0L959.603+0C995.168+0+1024+28.8315+1024+64.397L1024+959.603C1024+995.168+995.168+1024+959.603+1024L64.397+1024C28.8315+1024+0+995.168+0+959.603L0+64.397C0+28.8315+28.8315+0+64.397+0Z" opacity="1" fill="url(#LinearGradient)"/>
<g opacity="1">
<path d="M642.264+620.2C642.264+640.2+637.591+658.8+628.245+676C618.899+693.2+604.686+707.2+585.606+718C566.525+728.8+542.966+734.2+514.93+734.2C487.672+734.2+463.432+729.1+442.209+718.9C420.987+708.7+404.048+694.7+391.392+676.9C378.737+659.1+371.436+638.8+369.489+616L426.146+616C427.315+628+431.306+639.7+438.121+651.1C444.935+662.5+454.67+671.9+467.326+679.3C479.981+686.7+495.265+690.4+513.177+690.4C536.541+690.4+554.454+684+566.915+671.2C579.375+658.4+585.606+642+585.606+622C585.606+604.8+581.225+590.8+572.464+580C563.702+569.2+552.896+560.7+540.046+554.5C527.196+548.3+509.673+541.6+487.477+534.4C461.387+525.6+440.457+517.3+424.686+509.5C408.915+501.7+395.481+490+384.383+474.4C373.285+458.8+367.736+438.2+367.736+412.6C367.736+390.6+372.896+371.2+383.215+354.4C393.534+337.6+408.331+324.6+427.607+315.4C446.882+306.2+469.565+301.6+495.654+301.6C536.152+301.6+568.277+311.7+592.031+331.9C615.784+352.1+629.608+377.8+633.502+409L576.26+409C573.145+392.2+564.773+377.4+551.144+364.6C537.515+351.8+519.018+345.4+495.654+345.4C474.237+345.4+457.104+351.1+444.254+362.5C431.403+373.9+424.978+390+424.978+410.8C424.978+427.2+429.164+440.5+437.536+450.7C445.909+460.9+456.325+468.9+468.786+474.7C481.247+480.5+498.38+487+520.187+494.2C546.666+503+567.985+511.4+584.146+519.4C600.306+527.4+614.032+539.5+625.325+555.7C636.617+571.9+642.264+593.4+642.264+620.2Z" opacity="1" fill="#fffbfb"/>
</g>
</g>
</svg>
