<?xml version="1.0" encoding="UTF-8" standalone="no"?> <!-- Created with Vectornator for iOS (http://vectornator.io/) --><!DOCTYPE svg PUBLIC "-//W3C//DTD SVG 1.1//EN" "http://www.w3.org/Graphics/SVG/1.1/DTD/svg11.dtd">
<svg style="fill-rule:evenodd;clip-rule:evenodd;stroke-linecap:round;stroke-linejoin:round;" xmlns:vectornator="http://vectornator.io" xmlns:xlink="http://www.w3.org/1999/xlink" xmlns="http://www.w3.org/2000/svg" xml:space="preserve" version="1.1" viewBox="0 0 1536 1536">
<metadata>
<vectornator:setting key="DisplayWhiteBackground" value="0"/>
<vectornator:setting key="RulersVisible" value="1"/>
<vectornator:setting key="SnapToEdges" value="0"/>
<vectornator:setting key="Units" value="Pixels"/>
<vectornator:setting key="DynamicGuides" value="0"/>
<vectornator:setting key="SnapToPoints" value="0"/>
<vectornator:setting key="CMYKEnabledKey" value="0"/>
<vectornator:setting key="SnapToGrid" value="0"/>
<vectornator:setting key="SnapToGuides" value="1"/>
<vectornator:setting key="ShowGrid" value="1"/>
<vectornator:setting key="GridSpacing" value="32"/>
</metadata>
<defs/>
<g id="Background" vectornator:layerName="Background">
<path d="M75+0L1461+0C1502.42+0+1536+33.5786+1536+75L1536+1461C1536+1502.42+1502.42+1536+1461+1536L75+1536C33.5786+1536+0+1502.42+0+1461L0+75C0+33.5786+33.5786+0+75+0Z" opacity="1" fill="#00b1ff"/>
</g>
<g id="Boat" vectornator:layerName="Boat">
<g opacity="1">
<path d="M510.075+1379.45L1027.92+1379.45C1041.54+1379.45+1052.58+1391.42+1052.58+1406.18L1052.58+1406.18C1052.58+1420.95+1041.54+1432.91+1027.92+1432.91L510.075+1432.91C496.456+1432.91+485.415+1420.95+485.415+1406.18L485.415+1406.18C485.415+1391.42+496.456+1379.45+510.075+1379.45Z" opacity="1" fill="#ffffff"/>
<path d="M1009.28+1388.67L1364.87+1024.64C1374.22+1015.07+1389.97+1015.51+1400.06+1025.62L1400.06+1025.62C1410.14+1035.74+1410.73+1051.7+1401.38+1061.27L1119.3+1350.04L1045.78+1425.3C1036.43+1434.88+1020.68+1434.44+1010.6+1424.32L1010.6+1424.32C1000.52+1414.21+999.924+1398.25+1009.28+1388.67Z" opacity="1" fill="#ffffff"/>
<path d="M528.125+1388.67L172.532+1024.64C163.18+1015.07+147.426+1015.51+137.345+1025.62L137.345+1025.62C127.264+1035.74+126.673+1051.7+136.025+1061.27L418.102+1350.04L491.618+1425.3C500.97+1434.87+516.723+1434.44+526.804+1424.32L526.804+1424.32C536.885+1414.21+537.477+1398.24+528.125+1388.67Z" opacity="1" fill="#ffffff"/>
<path d="M777.049+1122.78L167.846+1015.12C151.824+1012.29+136.469+1023.32+133.549+1039.76L133.549+1039.76C130.629+1056.2+141.25+1071.82+157.271+1074.65L640.527+1160.06L766.474+1182.31C782.496+1185.15+797.851+1174.11+800.771+1157.68L800.771+1157.68C803.692+1141.24+793.071+1125.61+777.049+1122.78Z" opacity="1" fill="#ffffff"/>
<path d="M762.451+1121.64L1371.65+1013.98C1387.68+1011.14+1403.03+1022.18+1405.95+1038.62L1405.95+1038.62C1408.87+1055.06+1398.25+1070.68+1382.23+1073.51L898.973+1158.91L773.026+1181.17C757.004+1184+741.649+1172.97+738.729+1156.53L738.729+1156.53C735.808+1140.09+746.429+1124.47+762.451+1121.64Z" opacity="1" fill="#ffffff"/>
<path d="M749.06+585.313L350.805+1058.72C340.331+1071.17+342.19+1089.98+354.958+1100.74L354.958+1100.74C367.725+1111.5+386.566+1110.13+397.04+1097.68L712.959+722.151L795.295+624.278C805.769+611.828+803.91+593.012+791.142+582.253L791.142+582.253C778.375+571.493+759.534+572.863+749.06+585.313Z" opacity="1" fill="#ffffff"/>
<path d="M792.872+585.313L1191.13+1058.72C1201.6+1071.17+1199.74+1089.98+1186.97+1100.74L1186.97+1100.74C1174.21+1111.5+1155.37+1110.13+1144.89+1097.68L828.973+722.151L746.637+624.278C736.163+611.828+738.022+593.012+750.79+582.253L750.79+582.253C763.557+571.493+782.398+572.863+792.872+585.313Z" opacity="1" fill="#ffffff"/>
</g>
<g opacity="1">
<path d="M148.583+281.696C154.428+281.696+157.873+278.127+157.873+272.037L157.873+200.239C157.873+194.086+154.428+190.518+148.583+190.518C142.738+190.518+139.293+194.086+139.293+200.239L139.293+272.037C139.293+278.127+142.738+281.696+148.583+281.696Z" opacity="1" fill="#ffffff"/>
<path d="M175.899+263.669C175.899+275.297+181.99+281.265+193.987+281.265L194.602+281.265C202.17+281.265+207.338+278.558+207.338+273.267C207.338+269.083+204.938+267.238+200.509+266.745L199.34+266.622C195.464+266.315+193.864+264.346+193.864+259.67L193.864+228.109L200.201+228.109C204.446+228.109+207.092+225.463+207.092+221.341C207.092+217.219+204.446+214.574+200.201+214.574L193.864+214.574L193.864+207.252C193.864+201.469+190.48+197.901+184.882+197.901C179.283+197.901+175.899+201.469+175.899+207.252L175.899+214.574L172.454+214.574C168.209+214.574+165.502+217.158+165.502+221.341C165.502+225.525+168.209+228.109+172.454+228.109L175.899+228.109L175.899+263.669Z" opacity="1" fill="#ffffff"/>
<path d="M267.692+281.942C285.103+281.942+296.854+273.452+296.854+260.347C296.854+250.503+291.071+245.335+277.044+242.382L266.154+240.044C259.571+238.629+256.987+236.353+256.987+232.908C256.987+228.662+261.232+225.771+267.323+225.771C273.783+225.771+277.351+228.847+280.489+232.846C282.089+234.753+284.673+235.615+287.011+235.615C291.625+235.615+293.901+233.092+293.901+229.462C293.901+228.601+293.717+227.74+293.47+226.817C291.317+219.372+281.289+213.159+267.631+213.159C250.527+213.159+239.637+221.28+239.637+233.892C239.637+243.674+246.159+250.257+259.079+253.026L270.153+255.364C276.613+256.779+278.889+258.686+278.889+262.254C278.889+266.622+274.644+269.329+268.123+269.329C261.294+269.329+257.233+267.238+253.726+262.623C251.265+259.855+248.804+258.563+245.913+258.563C241.729+258.563+238.653+261.331+238.653+265.454C238.653+266.438+238.899+267.607+239.33+268.776C242.468+276.528+252.557+281.942+267.692+281.942Z" opacity="1" fill="#ffffff"/>
<path d="M336.045+281.942C348.78+281.942+358.993+277.143+363.361+269.022C364.161+267.545+364.592+266.069+364.592+264.654C364.592+260.532+361.454+258.071+357.578+258.071C355.24+258.071+353.64+258.747+351.733+260.716C346.873+266.438+342.566+268.653+335.983+268.653C326.878+268.653+320.971+262.254+320.971+252.472L320.971+251.672L358.624+251.672C363.607+251.672+366.437+248.842+366.437+243.859C366.437+225.955+353.887+213.159+335.183+213.159C315.68+213.159+303.314+226.632+303.314+247.858C303.314+269.206+315.434+281.942+336.045+281.942ZM321.156+240.66C321.771+232.231+327.493+226.448+335.368+226.448C343.243+226.448+348.78+232.046+349.149+240.66L321.156+240.66Z" opacity="1" fill="#ffffff"/>
<path d="M405.997+281.942C418.732+281.942+428.945+277.143+433.313+269.022C434.113+267.545+434.544+266.069+434.544+264.654C434.544+260.532+431.406+258.071+427.53+258.071C425.192+258.071+423.593+258.747+421.685+260.716C416.825+266.438+412.518+268.653+405.935+268.653C396.83+268.653+390.924+262.254+390.924+252.472L390.924+251.672L428.576+251.672C433.559+251.672+436.389+248.842+436.389+243.859C436.389+225.955+423.839+213.159+405.136+213.159C385.633+213.159+373.266+226.632+373.266+247.858C373.266+269.206+385.387+281.942+405.997+281.942ZM391.108+240.66C391.723+232.231+397.445+226.448+405.32+226.448C413.195+226.448+418.732+232.046+419.101+240.66L391.108+240.66Z" opacity="1" fill="#ffffff"/>
<path d="M454.6+281.819C459.891+281.819+463.583+278.558+463.583+272.467L463.583+240.721C463.583+233.338+468.197+228.17+475.026+228.17C481.671+228.17+485.67+232.354+485.67+239.429L485.67+272.467C485.67+278.558+488.992+281.819+494.283+281.819C499.636+281.819+502.958+278.558+502.958+272.467L502.958+240.475C502.958+233.154+507.449+228.17+514.278+228.17C521.23+228.17+525.045+232.354+525.045+239.983L525.045+272.467C525.045+278.558+528.675+281.819+533.966+281.819C539.318+281.819+543.01+278.558+543.01+272.467L543.01+235.492C543.01+222.203+534.335+213.343+521.415+213.343C511.756+213.343+503.881+218.573+500.928+226.878L500.558+226.878C498.344+218.265+491.699+213.343+482.163+213.343C473.18+213.343+466.105+218.573+463.337+226.509L462.968+226.509L462.968+222.387C462.968+216.358+459.399+213.22+454.293+213.22C449.186+213.22+445.618+216.358+445.618+222.387L445.618+272.467C445.618+278.558+449.248+281.819+454.6+281.819Z" opacity="1" fill="#ffffff"/>
<path d="M581.277+281.942C598.688+281.942+610.439+273.452+610.439+260.347C610.439+250.503+604.656+245.335+590.629+242.382L579.739+240.044C573.156+238.629+570.572+236.353+570.572+232.908C570.572+228.662+574.817+225.771+580.908+225.771C587.368+225.771+590.936+228.847+594.074+232.846C595.674+234.753+598.258+235.615+600.595+235.615C605.21+235.615+607.486+233.092+607.486+229.462C607.486+228.601+607.302+227.74+607.055+226.817C604.902+219.372+594.874+213.159+581.216+213.159C564.112+213.159+553.222+221.28+553.222+233.892C553.222+243.674+559.744+250.257+572.664+253.026L583.738+255.364C590.198+256.779+592.474+258.686+592.474+262.254C592.474+266.622+588.229+269.329+581.708+269.329C574.879+269.329+570.818+267.238+567.311+262.623C564.85+259.855+562.389+258.563+559.498+258.563C555.314+258.563+552.238+261.331+552.238+265.454C552.238+266.438+552.484+267.607+552.915+268.776C556.053+276.528+566.142+281.942+581.277+281.942Z" opacity="1" fill="#ffffff"/>
<path d="M671.101+281.942C688.512+281.942+700.263+273.452+700.263+260.347C700.263+250.503+694.48+245.335+680.453+242.382L669.563+240.044C662.98+238.629+660.396+236.353+660.396+232.908C660.396+228.662+664.641+225.771+670.732+225.771C677.192+225.771+680.761+228.847+683.898+232.846C685.498+234.753+688.082+235.615+690.42+235.615C695.034+235.615+697.31+233.092+697.31+229.462C697.31+228.601+697.126+227.74+696.88+226.817C694.726+219.372+684.698+213.159+671.04+213.159C653.936+213.159+643.047+221.28+643.047+233.892C643.047+243.674+649.568+250.257+662.488+253.026L673.562+255.364C680.022+256.779+682.299+258.686+682.299+262.254C682.299+266.622+678.053+269.329+671.532+269.329C664.703+269.329+660.642+267.238+657.136+262.623C654.675+259.855+652.214+258.563+649.322+258.563C645.138+258.563+642.062+261.331+642.062+265.454C642.062+266.438+642.308+267.607+642.739+268.776C645.877+276.528+655.967+281.942+671.101+281.942Z" opacity="1" fill="#ffffff"/>
<path d="M739.392+281.942C759.326+281.942+772.061+269.206+772.061+247.489C772.061+226.079+759.141+213.159+739.392+213.159C719.643+213.159+706.723+226.14+706.723+247.489C706.723+269.145+719.459+281.942+739.392+281.942ZM739.392+268.222C730.533+268.222+724.934+260.778+724.934+247.55C724.934+234.446+730.656+226.878+739.392+226.878C748.129+226.878+753.789+234.446+753.789+247.55C753.789+260.778+748.19+268.222+739.392+268.222Z" opacity="1" fill="#ffffff"/>
<path d="M790.272+281.819C795.563+281.819+799.255+278.558+799.255+272.467L799.255+240.721C799.255+233.338+803.869+228.17+810.698+228.17C817.343+228.17+821.342+232.354+821.342+239.429L821.342+272.467C821.342+278.558+824.664+281.819+829.955+281.819C835.307+281.819+838.63+278.558+838.63+272.467L838.63+240.475C838.63+233.154+843.121+228.17+849.95+228.17C856.902+228.17+860.717+232.354+860.717+239.983L860.717+272.467C860.717+278.558+864.346+281.819+869.637+281.819C874.99+281.819+878.681+278.558+878.681+272.467L878.681+235.492C878.681+222.203+870.007+213.343+857.087+213.343C847.428+213.343+839.553+218.573+836.599+226.878L836.23+226.878C834.015+218.265+827.371+213.343+817.835+213.343C808.852+213.343+801.777+218.573+799.009+226.509L798.639+226.509L798.639+222.387C798.639+216.358+795.071+213.22+789.965+213.22C784.858+213.22+781.29+216.358+781.29+222.387L781.29+272.467C781.29+278.558+784.92+281.819+790.272+281.819Z" opacity="1" fill="#ffffff"/>
<path d="M920.394+281.942C933.13+281.942+943.343+277.143+947.711+269.022C948.511+267.545+948.941+266.069+948.941+264.654C948.941+260.532+945.803+258.071+941.928+258.071C939.59+258.071+937.99+258.747+936.083+260.716C931.222+266.438+926.916+268.653+920.333+268.653C911.227+268.653+905.321+262.254+905.321+252.472L905.321+251.672L942.973+251.672C947.957+251.672+950.787+248.842+950.787+243.859C950.787+225.955+938.236+213.159+919.533+213.159C900.03+213.159+887.664+226.632+887.664+247.858C887.664+269.206+899.784+281.942+920.394+281.942ZM905.506+240.66C906.121+232.231+911.843+226.448+919.718+226.448C927.593+226.448+933.13+232.046+933.499+240.66L905.506+240.66Z" opacity="1" fill="#ffffff"/>
<path d="M990.285+281.942C1010.22+281.942+1022.95+269.206+1022.95+247.489C1022.95+226.079+1010.03+213.159+990.285+213.159C970.536+213.159+957.616+226.14+957.616+247.489C957.616+269.145+970.351+281.942+990.285+281.942ZM990.285+268.222C981.426+268.222+975.827+260.778+975.827+247.55C975.827+234.446+981.549+226.878+990.285+226.878C999.021+226.878+1004.68+234.446+1004.68+247.55C1004.68+260.778+999.083+268.222+990.285+268.222Z" opacity="1" fill="#ffffff"/>
<path d="M1041.16+281.819C1046.46+281.819+1050.15+278.62+1050.15+272.467L1050.15+242.69C1050.15+234.138+1055.25+228.232+1063.31+228.232C1071.37+228.232+1075.43+233.154+1075.43+241.767L1075.43+272.467C1075.43+278.62+1079.12+281.819+1084.42+281.819C1089.65+281.819+1093.4+278.62+1093.4+272.467L1093.4+238.014C1093.4+222.572+1085.15+213.343+1070.51+213.343C1060.36+213.343+1053.72+217.834+1050.21+226.017L1049.84+226.017L1049.84+222.326C1049.84+216.665+1046.27+213.22+1040.86+213.22C1035.44+213.22+1032.18+216.665+1032.18+222.264L1032.18+272.467C1032.18+278.62+1035.94+281.819+1041.16+281.819Z" opacity="1" fill="#ffffff"/>
<path d="M1135.11+281.942C1147.85+281.942+1158.06+277.143+1162.43+269.022C1163.23+267.545+1163.66+266.069+1163.66+264.654C1163.66+260.532+1160.52+258.071+1156.64+258.071C1154.31+258.071+1152.71+258.747+1150.8+260.716C1145.94+266.438+1141.63+268.653+1135.05+268.653C1125.94+268.653+1120.04+262.254+1120.04+252.472L1120.04+251.672L1157.69+251.672C1162.67+251.672+1165.5+248.842+1165.5+243.859C1165.5+225.955+1152.95+213.159+1134.25+213.159C1114.75+213.159+1102.38+226.632+1102.38+247.858C1102.38+269.206+1114.5+281.942+1135.11+281.942ZM1120.22+240.66C1120.84+232.231+1126.56+226.448+1134.43+226.448C1142.31+226.448+1147.85+232.046+1148.22+240.66L1120.22+240.66Z" opacity="1" fill="#ffffff"/>
<path d="M1209.06+281.819C1214.35+281.819+1218.04+278.62+1218.04+272.467L1218.04+242.874C1218.04+234.2+1223.03+228.232+1231.52+228.232C1239.7+228.232+1243.88+233.4+1243.88+241.89L1243.88+272.467C1243.88+278.62+1247.64+281.819+1252.87+281.819C1258.16+281.819+1261.85+278.62+1261.85+272.467L1261.85+238.076C1261.85+222.818+1253.48+213.343+1238.84+213.343C1228.81+213.343+1221.61+218.019+1218.11+226.325L1217.74+226.325L1217.74+199.623C1217.74+193.84+1214.48+190.395+1208.94+190.395C1203.4+190.395+1200.08+193.84+1200.08+199.623L1200.08+272.467C1200.08+278.62+1203.83+281.819+1209.06+281.819Z" opacity="1" fill="#ffffff"/>
<path d="M1292.8+281.573C1301.04+281.573+1309.28+277.451+1312.98+270.437L1313.34+270.437L1313.34+273.821C1313.71+279.112+1317.1+281.819+1321.96+281.819C1327.06+281.819+1330.69+278.743+1330.69+272.775L1330.69+235.184C1330.69+221.895+1319.68+213.159+1302.76+213.159C1289.1+213.159+1278.52+218.019+1275.45+225.894C1274.83+227.247+1274.52+228.539+1274.52+229.954C1274.52+234.015+1277.66+236.845+1282.03+236.845C1284.92+236.845+1287.2+235.738+1289.17+233.523C1293.16+228.355+1296.49+226.571+1301.96+226.571C1308.73+226.571+1313.04+230.139+1313.04+236.291L1313.04+240.66L1296.43+241.644C1279.94+242.628+1270.71+249.58+1270.71+261.578C1270.71+273.452+1280.24+281.573+1292.8+281.573ZM1298.7+268.591C1292.67+268.591+1288.61+265.515+1288.61+260.593C1288.61+255.917+1292.43+252.903+1299.13+252.411L1313.04+251.549L1313.04+256.348C1313.04+263.485+1306.58+268.591+1298.7+268.591Z" opacity="1" fill="#ffffff"/>
<path d="M1369.15+281.942C1386.56+281.942+1398.31+273.452+1398.31+260.347C1398.31+250.503+1392.53+245.335+1378.5+242.382L1367.61+240.044C1361.03+238.629+1358.44+236.353+1358.44+232.908C1358.44+228.662+1362.69+225.771+1368.78+225.771C1375.24+225.771+1378.81+228.847+1381.94+232.846C1383.54+234.753+1386.13+235.615+1388.46+235.615C1393.08+235.615+1395.36+233.092+1395.36+229.462C1395.36+228.601+1395.17+227.74+1394.92+226.817C1392.77+219.372+1382.74+213.159+1369.08+213.159C1351.98+213.159+1341.09+221.28+1341.09+233.892C1341.09+243.674+1347.61+250.257+1360.53+253.026L1371.61+255.364C1378.07+256.779+1380.34+258.686+1380.34+262.254C1380.34+266.622+1376.1+269.329+1369.58+269.329C1362.75+269.329+1358.69+267.238+1355.18+262.623C1352.72+259.855+1350.26+258.563+1347.37+258.563C1343.18+258.563+1340.11+261.331+1340.11+265.454C1340.11+266.438+1340.35+267.607+1340.78+268.776C1343.92+276.528+1354.01+281.942+1369.15+281.942Z" opacity="1" fill="#ffffff"/>
<path d="M164.64+432.305C182.052+432.305+193.803+423.815+193.803+410.71C193.803+400.867+188.019+395.699+173.992+392.745L163.102+390.408C156.519+388.993+153.935+386.716+153.935+383.271C153.935+379.026+158.18+376.134+164.271+376.134C170.731+376.134+174.3+379.21+177.437+383.209C179.037+385.117+181.621+385.978+183.959+385.978C188.573+385.978+190.849+383.455+190.849+379.826C190.849+378.964+190.665+378.103+190.419+377.18C188.265+369.736+178.237+363.522+164.579+363.522C147.475+363.522+136.586+371.643+136.586+384.255C136.586+394.037+143.107+400.62+156.027+403.389L167.101+405.727C173.561+407.142+175.838+409.049+175.838+412.618C175.838+416.986+171.593+419.693+165.071+419.693C158.242+419.693+154.181+417.601+150.675+412.987C148.214+410.218+145.753+408.926+142.861+408.926C138.678+408.926+135.601+411.695+135.601+415.817C135.601+416.801+135.847+417.97+136.278+419.139C139.416+426.891+149.506+432.305+164.64+432.305Z" opacity="1" fill="#ffffff"/>
<path d="M232.993+432.305C245.728+432.305+255.941+427.506+260.309+419.385C261.109+417.909+261.54+416.432+261.54+415.017C261.54+410.895+258.402+408.434+254.526+408.434C252.188+408.434+250.589+409.111+248.681+411.079C243.821+416.801+239.514+419.016+232.931+419.016C223.826+419.016+217.92+412.618+217.92+402.835L217.92+402.036L255.572+402.036C260.555+402.036+263.386+399.205+263.386+394.222C263.386+376.319+250.835+363.522+232.132+363.522C212.629+363.522+200.262+376.995+200.262+398.221C200.262+419.57+212.383+432.305+232.993+432.305ZM218.104+391.023C218.72+382.594+224.441+376.811+232.316+376.811C240.191+376.811+245.728+382.41+246.097+391.023L218.104+391.023Z" opacity="1" fill="#ffffff"/>
<path d="M281.596+432.182C286.887+432.182+290.579+428.983+290.579+422.83L290.579+393.053C290.579+384.501+295.685+378.595+303.745+378.595C311.804+378.595+315.865+383.517+315.865+392.13L315.865+422.83C315.865+428.983+319.556+432.182+324.847+432.182C330.077+432.182+333.83+428.983+333.83+422.83L333.83+388.377C333.83+372.935+325.586+363.706+310.943+363.706C300.792+363.706+294.147+368.198+290.64+376.38L290.271+376.38L290.271+372.689C290.271+367.029+286.703+363.583+281.289+363.583C275.875+363.583+272.614+367.029+272.614+372.627L272.614+422.83C272.614+428.983+276.367+432.182+281.596+432.182Z" opacity="1" fill="#ffffff"/>
<path d="M350.011+414.033C350.011+425.661+356.101+431.628+368.098+431.628L368.714+431.628C376.281+431.628+381.449+428.921+381.449+423.63C381.449+419.447+379.05+417.601+374.62+417.109L373.451+416.986C369.575+416.678+367.975+414.709+367.975+410.034L367.975+378.472L374.312+378.472C378.557+378.472+381.203+375.827+381.203+371.704C381.203+367.582+378.557+364.937+374.312+364.937L367.975+364.937L367.975+357.616C367.975+351.832+364.592+348.264+358.993+348.264C353.394+348.264+350.011+351.832+350.011+357.616L350.011+364.937L346.565+364.937C342.32+364.937+339.613+367.521+339.613+371.704C339.613+375.888+342.32+378.472+346.565+378.472L350.011+378.472L350.011+414.033Z" opacity="1" fill="#ffffff"/>
<path d="M426.115+455.315C440.573+455.315+448.202+449.039+454.354+431.997L474.595+376.995C475.211+375.273+475.58+373.181+475.58+371.704C475.58+366.967+472.012+363.583+466.844+363.583C462.229+363.583+459.645+365.737+458.169+370.72L443.834+416.494L443.526+416.494L429.191+370.843C427.715+365.614+425.254+363.583+420.516+363.583C415.225+363.583+411.226+367.09+411.226+371.951C411.226+373.427+411.595+375.396+412.272+377.242L433.313+432.736L432.39+435.074C430.237+439.688+426.853+441.041+423.716+441.041C422.485+441.041+421.808+440.98+420.578+440.98C416.517+440.98+413.995+443.256+413.995+446.886C413.995+452.3+418.24+455.315+426.115+455.315Z" opacity="1" fill="#ffffff"/>
<path d="M511.756+432.305C531.689+432.305+544.425+419.57+544.425+397.852C544.425+376.442+531.505+363.522+511.756+363.522C492.007+363.522+479.087+376.503+479.087+397.852C479.087+419.508+491.822+432.305+511.756+432.305ZM511.756+418.585C502.896+418.585+497.298+411.141+497.298+397.913C497.298+384.809+503.019+377.242+511.756+377.242C520.492+377.242+526.152+384.809+526.152+397.913C526.152+411.141+520.553+418.585+511.756+418.585Z" opacity="1" fill="#ffffff"/>
<path d="M577.094+432.12C587.06+432.12+593.582+427.322+596.843+419.016L597.212+419.016L597.212+423.077C597.212+429.044+600.719+432.182+605.887+432.182C611.054+432.182+614.561+429.044+614.561+423.077L614.561+372.996C614.561+366.844+610.87+363.583+605.579+363.583C600.349+363.583+596.596+366.844+596.596+372.996L596.596+402.712C596.596+411.449+591.613+417.17+583.615+417.17C575.678+417.17+571.31+412.495+571.31+403.697L571.31+372.996C571.31+366.844+567.619+363.583+562.328+363.583C557.098+363.583+553.345+366.844+553.345+372.996L553.345+407.45C553.345+422.83+562.82+432.12+577.094+432.12Z" opacity="1" fill="#ffffff"/>
<path d="M670.671+431.936C678.915+431.936+687.159+427.814+690.85+420.8L691.22+420.8L691.22+424.184C691.589+429.475+694.972+432.182+699.833+432.182C704.939+432.182+708.569+429.106+708.569+423.138L708.569+385.547C708.569+372.258+697.556+363.522+680.637+363.522C666.979+363.522+656.397+368.382+653.321+376.257C652.706+377.611+652.398+378.903+652.398+380.318C652.398+384.378+655.536+387.208+659.904+387.208C662.796+387.208+665.072+386.101+667.041+383.886C671.04+378.718+674.362+376.934+679.838+376.934C686.605+376.934+690.912+380.502+690.912+386.655L690.912+391.023L674.301+392.007C657.812+392.992+648.584+399.944+648.584+411.941C648.584+423.815+658.12+431.936+670.671+431.936ZM676.577+418.954C670.548+418.954+666.487+415.878+666.487+410.956C666.487+406.281+670.302+403.266+677.008+402.774L690.912+401.912L690.912+406.711C690.912+413.848+684.452+418.954+676.577+418.954Z" opacity="1" fill="#ffffff"/>
<path d="M754.035+432.182C759.326+432.182+763.017+428.921+763.017+422.83L763.017+391.084C763.017+383.702+767.632+378.534+774.461+378.534C781.105+378.534+785.104+382.717+785.104+389.792L785.104+422.83C785.104+428.921+788.427+432.182+793.718+432.182C799.07+432.182+802.392+428.921+802.392+422.83L802.392+390.838C802.392+383.517+806.884+378.534+813.713+378.534C820.665+378.534+824.479+382.717+824.479+390.346L824.479+422.83C824.479+428.921+828.109+432.182+833.4+432.182C838.753+432.182+842.444+428.921+842.444+422.83L842.444+385.855C842.444+372.566+833.769+363.706+820.849+363.706C811.19+363.706+803.315+368.936+800.362+377.242L799.993+377.242C797.778+368.628+791.134+363.706+781.597+363.706C772.615+363.706+765.54+368.936+762.771+376.872L762.402+376.872L762.402+372.75C762.402+366.721+758.834+363.583+753.727+363.583C748.621+363.583+745.053+366.721+745.053+372.75L745.053+422.83C745.053+428.921+748.682+432.182+754.035+432.182Z" opacity="1" fill="#ffffff"/>
<path d="M884.157+432.305C896.892+432.305+907.105+427.506+911.473+419.385C912.273+417.909+912.704+416.432+912.704+415.017C912.704+410.895+909.566+408.434+905.69+408.434C903.352+408.434+901.753+409.111+899.845+411.079C894.985+416.801+890.678+419.016+884.095+419.016C874.99+419.016+869.084+412.618+869.084+402.835L869.084+402.036L906.736+402.036C911.72+402.036+914.55+399.205+914.55+394.222C914.55+376.319+901.999+363.522+883.296+363.522C863.793+363.522+851.427+376.995+851.427+398.221C851.427+419.57+863.547+432.305+884.157+432.305ZM869.268+391.023C869.884+382.594+875.605+376.811+883.48+376.811C891.355+376.811+896.892+382.41+897.262+391.023L869.268+391.023Z" opacity="1" fill="#ffffff"/>
<path d="M950.664+432.305C968.075+432.305+979.826+423.815+979.826+410.71C979.826+400.867+974.043+395.699+960.015+392.745L949.126+390.408C942.543+388.993+939.959+386.716+939.959+383.271C939.959+379.026+944.204+376.134+950.295+376.134C956.755+376.134+960.323+379.21+963.461+383.209C965.06+385.117+967.644+385.978+969.982+385.978C974.596+385.978+976.873+383.455+976.873+379.826C976.873+378.964+976.688+378.103+976.442+377.18C974.289+369.736+964.261+363.522+950.602+363.522C933.499+363.522+922.609+371.643+922.609+384.255C922.609+394.037+929.131+400.62+942.051+403.389L953.125+405.727C959.585+407.142+961.861+409.049+961.861+412.618C961.861+416.986+957.616+419.693+951.095+419.693C944.265+419.693+940.205+417.601+936.698+412.987C934.237+410.218+931.776+408.926+928.885+408.926C924.701+408.926+921.625+411.695+921.625+415.817C921.625+416.801+921.871+417.97+922.302+419.139C925.439+426.891+935.529+432.305+950.664+432.305Z" opacity="1" fill="#ffffff"/>
<path d="M1015.57+432.305C1032.98+432.305+1044.73+423.815+1044.73+410.71C1044.73+400.867+1038.95+395.699+1024.92+392.745L1014.03+390.408C1007.45+388.993+1004.87+386.716+1004.87+383.271C1004.87+379.026+1009.11+376.134+1015.2+376.134C1021.66+376.134+1025.23+379.21+1028.37+383.209C1029.97+385.117+1032.55+385.978+1034.89+385.978C1039.5+385.978+1041.78+383.455+1041.78+379.826C1041.78+378.964+1041.6+378.103+1041.35+377.18C1039.2+369.736+1029.17+363.522+1015.51+363.522C998.406+363.522+987.516+371.643+987.516+384.255C987.516+394.037+994.038+400.62+1006.96+403.389L1018.03+405.727C1024.49+407.142+1026.77+409.049+1026.77+412.618C1026.77+416.986+1022.52+419.693+1016+419.693C1009.17+419.693+1005.11+417.601+1001.61+412.987C999.144+410.218+996.683+408.926+993.792+408.926C989.608+408.926+986.532+411.695+986.532+415.817C986.532+416.801+986.778+417.97+987.209+419.139C990.346+426.891+1000.44+432.305+1015.57+432.305Z" opacity="1" fill="#ffffff"/>
<path d="M1073.1+431.936C1081.34+431.936+1089.58+427.814+1093.28+420.8L1093.64+420.8L1093.64+424.184C1094.01+429.475+1097.4+432.182+1102.26+432.182C1107.36+432.182+1110.99+429.106+1110.99+423.138L1110.99+385.547C1110.99+372.258+1099.98+363.522+1083.06+363.522C1069.4+363.522+1058.82+368.382+1055.75+376.257C1055.13+377.611+1054.82+378.903+1054.82+380.318C1054.82+384.378+1057.96+387.208+1062.33+387.208C1065.22+387.208+1067.5+386.101+1069.47+383.886C1073.46+378.718+1076.79+376.934+1082.26+376.934C1089.03+376.934+1093.34+380.502+1093.34+386.655L1093.34+391.023L1076.73+392.007C1060.24+392.992+1051.01+399.944+1051.01+411.941C1051.01+423.815+1060.54+431.936+1073.1+431.936ZM1079+418.954C1072.97+418.954+1068.91+415.878+1068.91+410.956C1068.91+406.281+1072.73+403.266+1079.43+402.774L1093.34+401.912L1093.34+406.711C1093.34+413.848+1086.88+418.954+1079+418.954Z" opacity="1" fill="#ffffff"/>
<path d="M1152.03+455.684C1173.26+455.807+1185.68+445.471+1185.68+428.306L1185.68+372.689C1185.68+366.598+1181.93+363.583+1176.76+363.583C1171.59+363.583+1167.72+366.598+1167.72+372.689L1167.72+376.319L1167.35+376.319C1163.9+368.874+1156.71+363.891+1147.23+363.891C1130.25+363.891+1120.16+376.134+1120.16+396.806C1120.16+416.924+1130.5+429.475+1146.92+429.475C1156.46+429.475+1164.15+424.738+1167.23+417.662L1167.6+417.662L1167.6+428.183C1167.6+436.427+1161.81+441.841+1151.97+441.78C1146+441.718+1141.32+439.196+1136.46+434.581C1134.43+432.736+1132.59+431.997+1130.25+431.997C1125.76+431.997+1122.93+434.828+1122.93+438.58C1122.93+440.242+1123.3+441.903+1124.28+443.564C1128.53+450.516+1138.56+455.622+1152.03+455.684ZM1153.01+416.124C1144.09+416.124+1138.56+409.049+1138.56+396.991C1138.56+385.055+1144.16+377.549+1153.01+377.549C1162+377.549+1167.78+385.178+1167.78+397.052C1167.78+408.988+1162+416.124+1153.01+416.124Z" opacity="1" fill="#ffffff"/>
<path d="M1227.64+432.305C1240.38+432.305+1250.59+427.506+1254.96+419.385C1255.76+417.909+1256.19+416.432+1256.19+415.017C1256.19+410.895+1253.05+408.434+1249.18+408.434C1246.84+408.434+1245.24+409.111+1243.33+411.079C1238.47+416.801+1234.16+419.016+1227.58+419.016C1218.48+419.016+1212.57+412.618+1212.57+402.835L1212.57+402.036L1250.22+402.036C1255.2+402.036+1258.03+399.205+1258.03+394.222C1258.03+376.319+1245.48+363.522+1226.78+363.522C1207.28+363.522+1194.91+376.995+1194.91+398.221C1194.91+419.57+1207.03+432.305+1227.64+432.305ZM1212.75+391.023C1213.37+382.594+1219.09+376.811+1226.97+376.811C1234.84+376.811+1240.38+382.41+1240.75+391.023L1212.75+391.023Z" opacity="1" fill="#ffffff"/>
<path d="M1303.87+387.639C1309.35+387.639+1313.78+383.209+1313.78+377.734C1313.78+372.197+1309.35+367.829+1303.87+367.829C1298.33+367.829+1293.96+372.197+1293.96+377.734C1293.96+383.209+1298.33+387.639+1303.87+387.639ZM1303.87+431.628C1309.35+431.628+1313.78+427.199+1313.78+421.723C1313.78+416.186+1309.35+411.818+1303.87+411.818C1298.33+411.818+1293.96+416.186+1293.96+421.723C1293.96+427.199+1298.33+431.628+1303.87+431.628Z" opacity="1" fill="#ffffff"/>
<path d="M1333.16+451.623C1336.97+451.623+1340.05+449.716+1343.61+445.102C1353.64+431.259+1358.26+416.124+1358.26+396.006C1358.26+375.827+1353.21+359.646+1343.74+347.218C1340.17+342.604+1337.22+340.758+1333.46+340.758C1330.08+340.758+1327.43+342.912+1327.43+345.742C1327.43+347.157+1327.86+348.326+1328.79+350.356C1336.17+365.06+1339.74+379.703+1339.74+395.945C1339.74+412.556+1335.49+428.306+1328.54+442.026C1327.56+444.056+1327.19+445.225+1327.19+446.763C1327.19+449.409+1329.71+451.623+1333.16+451.623Z" opacity="1" fill="#ffffff"/>
</g>
</g>
</svg>
